<?xml version="1.0" encoding="utf-8"?><svg xmlns="http://www.w3.org/2000/svg" xmlns:xlink="http://www.w3.org/1999/xlink"><symbol viewBox="0 0 32 32" id="contacts-address"><path d="M15.999 17.96a2.91 2.91 0 0 1-2.914-2.907 2.91 2.91 0 0 1 2.914-2.906 2.91 2.91 0 0 1 2.914 2.906A2.91 2.91 0 0 1 16 17.96z"/><path fill-rule="evenodd" clip-rule="evenodd" d="M29 16c0 7.18-5.82 13-13 13S3 23.18 3 16 8.82 3 16 3s13 5.82 13 13zM15.786 9.004c-2.988.104-5.47 2.43-5.757 5.397a6.004 6.004 0 0 0 .08 1.72l.002.015.008.044c.007.03.016.074.03.128.092.412.231.812.404 1.187.601 1.421 1.992 3.799 5.113 6.385.191.16.472.16.666 0 3.12-2.583 4.512-4.96 5.116-6.388a5.735 5.735 0 0 0 .444-1.375c.071-.369.108-.747.108-1.134 0-3.377-2.803-6.1-6.214-5.98z"/><path fill-rule="evenodd" clip-rule="evenodd" d="M32 16c0 8.837-7.163 16-16 16S0 24.837 0 16 7.163 0 16 0s16 7.163 16 16zm-1 0c0 8.284-6.716 15-15 15-8.284 0-15-6.716-15-15C1 7.716 7.716 1 16 1c8.284 0 15 6.716 15 15z"/></symbol><symbol viewBox="0 0 32 32" id="contacts-clock"><path d="M16 16.387h2.605a.387.387 0 1 0 0-.775h-2.218v-3.361a.388.388 0 1 0-.775 0V16c0 .214.174.387.388.387z"/><path fill-rule="evenodd" clip-rule="evenodd" d="M9.322 16A6.686 6.686 0 0 0 16 22.678 6.686 6.686 0 0 0 22.678 16 6.686 6.686 0 0 0 16 9.322 6.686 6.686 0 0 0 9.322 16zm11.77 0c0 .214.174.387.388.387h.41a5.878 5.878 0 0 1-1.447 3.495l-.304-.305a.387.387 0 1 0-.548.548l.305.305a5.878 5.878 0 0 1-3.509 1.46v-.457a.388.388 0 1 0-.775 0v.457a5.88 5.88 0 0 1-3.519-1.469l.33-.33a.387.387 0 1 0-.549-.547l-.327.327a5.878 5.878 0 0 1-1.437-3.483h.457a.388.388 0 1 0 0-.776h-.457a5.88 5.88 0 0 1 1.46-3.508l.304.304a.386.386 0 0 0 .548 0 .387.387 0 0 0 0-.548l-.304-.304a5.88 5.88 0 0 1 3.494-1.446v.41a.388.388 0 0 0 .775 0v-.41a5.877 5.877 0 0 1 3.484 1.437l-.28.28a.387.387 0 1 0 .548.548l.282-.282a5.879 5.879 0 0 1 1.469 3.52h-.41a.388.388 0 0 0-.387.387z"/><path fill-rule="evenodd" clip-rule="evenodd" d="M29 16c0 7.18-5.82 13-13 13S3 23.18 3 16 8.82 3 16 3s13 5.82 13 13zM16 8c-4.411 0-8 3.589-8 8s3.589 8 8 8 8-3.589 8-8-3.589-8-8-8z"/><path fill-rule="evenodd" clip-rule="evenodd" d="M32 16c0 8.837-7.163 16-16 16S0 24.837 0 16 7.163 0 16 0s16 7.163 16 16zm-1 0c0 8.284-6.716 15-15 15-8.284 0-15-6.716-15-15C1 7.716 7.716 1 16 1c8.284 0 15 6.716 15 15z"/></symbol><symbol viewBox="0 0 32 32" id="contacts-email"><path fill-rule="evenodd" clip-rule="evenodd" d="M29 16c0 7.18-5.82 13-13 13S3 23.18 3 16 8.82 3 16 3s13 5.82 13 13zm-6.429-6H9.43c-.458 0-.81.148-1.058.443-.247.296-.37.665-.37 1.108 0 .358.163.746.49 1.164a4.34 4.34 0 0 0 1.045.984c.203.136.813.541 1.83 1.214a642.317 642.317 0 0 1 2.34 1.556l.133.09.246.17c.194.133.354.241.482.324l.079.05a8.475 8.475 0 0 0 .386.227 3.109 3.109 0 0 0 .513.23c.161.05.31.077.447.077h.017a1.648 1.648 0 0 0 .446-.077 2.78 2.78 0 0 0 .514-.23 9.575 9.575 0 0 0 .681-.42l.266-.181.246-.17.075-.05.058-.04 4.179-2.77c.434-.29.797-.64 1.089-1.048.291-.41.437-.838.437-1.287a1.28 1.28 0 0 0-.424-.964 1.415 1.415 0 0 0-1.005-.4zm-13.67 4.61A4.675 4.675 0 0 1 8 13.87v6.583l3.995-3.814a301.072 301.072 0 0 0-3.093-2.028zM22.572 22c.36 0 .671-.113.936-.337l-4.533-4.328-.112.077-.202.139c-.339.238-.614.425-.826.558a5.18 5.18 0 0 1-.843.41 2.684 2.684 0 0 1-.982.208h-.018c-.304 0-.631-.07-.982-.209a5.162 5.162 0 0 1-.844-.41l-.1-.062-.089-.059-.07-.047a19.35 19.35 0 0 1-.567-.39l-.313-.216-4.534 4.329c.265.224.577.337.937.337h13.14zm-2.565-5.36a295.76 295.76 0 0 1 3.1-2.03c.34-.22.637-.468.893-.74v6.583l-3.993-3.812z"/><path fill-rule="evenodd" clip-rule="evenodd" d="M32 16c0 8.837-7.163 16-16 16S0 24.837 0 16 7.163 0 16 0s16 7.163 16 16zm-1 0c0 8.284-6.716 15-15 15-8.284 0-15-6.716-15-15C1 7.716 7.716 1 16 1c8.284 0 15 6.716 15 15z"/></symbol><symbol viewBox="0 0 92 92" id="contacts-reserv"><path fill-rule="evenodd" clip-rule="evenodd" d="M46 89.125c23.817 0 43.125-19.308 43.125-43.125S69.817 2.875 46 2.875 2.875 22.183 2.875 46 22.183 89.125 46 89.125zM46 92c25.405 0 46-20.595 46-46S71.405 0 46 0 0 20.595 0 46s20.595 46 46 46z"/><path d="M29.494 46.806c2.322-6.515 8.346-11.019 15.338-11.475a1.24 1.24 0 0 0 1.166-1.313c-.049-.68-.668-1.19-1.33-1.149-7.996.52-14.879 5.669-17.533 13.118a1.233 1.233 0 0 0 .765 1.574 1.253 1.253 0 0 0 1.595-.755z"/><path fill-rule="evenodd" clip-rule="evenodd" d="M46 83.375c20.643 0 37.375-16.733 37.375-37.375S66.643 8.625 46 8.625 8.625 25.358 8.625 46 25.357 83.375 46 83.375zm3.71-56.148c-.048.337-.145.66-.282.963 11.322 1.537 20.27 10.54 21.418 21.943H21.152c1.149-11.408 10.092-20.406 21.42-21.943a3.513 3.513 0 0 1-.299-1.091 3.363 3.363 0 0 1-.023-.399c0-2.04 1.682-3.7 3.75-3.7s3.75 1.66 3.75 3.7c0 .179-.014.355-.04.527zM74.75 52.6c.432 0 .834.222 1.064.585.229.365.247.816.055 1.2C74.11 57.85 70.582 60 66.66 60H25.34c-3.926 0-7.453-2.151-9.207-5.617a1.184 1.184 0 0 1-.131-.5v-.107a1.215 1.215 0 0 1 .186-.591 1.253 1.253 0 0 1 1.062-.585h57.5z"/></symbol><symbol viewBox="0 0 32 32" id="contacts-tel"><path fill-rule="evenodd" clip-rule="evenodd" d="M29 16c0 7.18-5.82 13-13 13S3 23.18 3 16 8.82 3 16 3s13 5.82 13 13zm-8.226 5.894c-.398.451-3.267 3.278-7.589-3.304-4.555-6.94-1.824-8.84-.639-9.31l.057-.021.094-.034.04-.013c.167-.054.273-.071.273-.071l-.001.008c.785-.135 1.521.17 1.662.843l.248 1.53c.168.803-.482 1.768-1.452 2.156l-.079.031c.514 1.744 1.55 3.752 3.582 5.579l.15-.127c.79-.674 1.963-.808 2.62-.3l1.155.983c.641.496.617 1.38-.12 2.05z"/><path fill-rule="evenodd" clip-rule="evenodd" d="M32 16c0 8.837-7.163 16-16 16S0 24.837 0 16 7.163 0 16 0s16 7.163 16 16zm-1 0c0 8.284-6.716 15-15 15-8.284 0-15-6.716-15-15C1 7.716 7.716 1 16 1c8.284 0 15 6.716 15 15z"/></symbol><symbol viewBox="0 0 139.4 44.7" id="dorohovdesign"><path d="M52.2 19.5V8.1H57c3.6 0 6.1 2.1 6.1 5.7 0 3.5-2.6 5.7-6.1 5.7h-4.8zm7.9-5.7c0-1.8-1.1-3.1-3.1-3.1h-1.9v6.2H57c2 0 3.1-1.4 3.1-3.1m4.1 0c0-3.4 2.6-5.9 6.1-5.9 3.5 0 6.1 2.4 6.1 5.9 0 3.5-2.6 5.9-6.1 5.9-3.5 0-6.1-2.4-6.1-5.9m9.2 0c0-1.9-1.2-3.3-3.1-3.3-1.9 0-3.1 1.4-3.1 3.3 0 1.8 1.2 3.3 3.1 3.3 1.9 0 3.1-1.4 3.1-3.3m11 5.7l-1.9-3.8H81v3.8h-2.9V8.1h5.7c2.5 0 3.9 1.7 3.9 3.8 0 2-1.2 3-2.3 3.4l2.3 4.2h-3.3zm.3-7.6c0-.8-.6-1.2-1.4-1.2H81v2.4h2.3c.8 0 1.4-.4 1.4-1.2m4.2 1.9c0-3.4 2.6-5.9 6.1-5.9 3.5 0 6.1 2.4 6.1 5.9 0 3.5-2.6 5.9-6.1 5.9-3.5 0-6.1-2.4-6.1-5.9m9.1 0c0-1.9-1.2-3.3-3.1-3.3-1.9 0-3.1 1.4-3.1 3.3 0 1.8 1.2 3.3 3.1 3.3 1.9 0 3.1-1.4 3.1-3.3m12.4 5.7v-4.6h-4.7v4.6h-3V8.1h3v4.3h4.7V8.1h2.9v11.4zm4.6-5.7c0-3.4 2.6-5.9 6.1-5.9 3.5 0 6.1 2.4 6.1 5.9 0 3.5-2.6 5.9-6.1 5.9-3.5 0-6.1-2.4-6.1-5.9m9.2 0c0-1.9-1.2-3.3-3.1-3.3-1.9 0-3.1 1.4-3.1 3.3 0 1.8 1.2 3.3 3.1 3.3 1.9 0 3.1-1.4 3.1-3.3m7.3 5.7l-4.3-11.4h3.3l2.8 8.2 2.8-8.2h3.3l-4.2 11.4zm-79.3 17V25.1H57c3.6 0 6.1 2.1 6.1 5.7 0 3.5-2.6 5.7-6.1 5.7h-4.8zm7.9-5.7c0-1.8-1.1-3.1-3.1-3.1h-1.9v6.2H57c2 0 3.1-1.4 3.1-3.1m4.7 5.7V25.1h8.3v2.6h-5.3v1.8H73V32h-5.2v1.9h5.3v2.6zm9.6-1.6l1.5-2.2c.8.8 2.1 1.5 3.6 1.5 1 0 1.6-.4 1.6-.9 0-1.5-6.4-.3-6.4-4.7 0-1.9 1.6-3.6 4.5-3.6 1.8 0 3.4.5 4.6 1.6l-1.6 2.1c-1-.8-2.2-1.2-3.3-1.2-.8 0-1.2.3-1.2.8 0 1.4 6.4.4 6.4 4.6 0 2.3-1.7 3.8-4.7 3.8-2.2 0-3.8-.7-5-1.8m11.5-9.8h2.9v11.3h-2.9zm4.7 5.7c0-3.6 2.8-5.9 6.1-5.9 2.5 0 4.1 1.3 4.8 2.8L99.1 29c-.4-.7-1.3-1.4-2.4-1.4-1.9 0-3.2 1.4-3.2 3.3s1.3 3.3 3.2 3.3c.8 0 1.7-.3 2.1-.7v-.9h-2.6V30h5.5v4.5c-1.2 1.3-2.9 2.2-5 2.2-3.4 0-6.1-2.3-6.1-5.9m20.9 5.7l-4.8-6.6v6.6h-2.9V25.1h3l4.6 6.3v-6.3h2.9v11.4zM17.7 0H0v44.7h17.8c15 0 24.6-8.8 24.6-22.4C42.4 8.7 32.7 0 17.7 0m-.4 35.7h-8V9.5h8c9.3 0 15.7 3.7 15.7 12.7.1 7.5-5.8 13.5-15.7 13.5"/><path d="M19.1 17H17v10.6h2c4 0 6.4-2.4 6.4-5.4 0-3.7-2.6-5.2-6.3-5.2"/></symbol><symbol viewBox="0 0 96.124 96.123" id="fb"><path d="M72.089.02L59.624 0C45.62 0 36.57 9.285 36.57 23.656v10.907H24.037a1.96 1.96 0 0 0-1.96 1.961v15.803a1.96 1.96 0 0 0 1.96 1.96H36.57v39.876a1.96 1.96 0 0 0 1.96 1.96h16.352a1.96 1.96 0 0 0 1.96-1.96V54.287h14.654a1.96 1.96 0 0 0 1.96-1.96l.006-15.803a1.963 1.963 0 0 0-1.961-1.961H56.842v-9.246c0-4.444 1.059-6.7 6.848-6.7l8.397-.003a1.96 1.96 0 0 0 1.959-1.96V1.98A1.96 1.96 0 0 0 72.089.02z"/></symbol><symbol viewBox="0 0 17 17" id="form-email"><path d="M8.5 0C3.813 0 0 3.813 0 8.5 0 13.187 3.813 17 8.5 17c2.27 0 4.405-.884 6.01-2.49a.354.354 0 1 0-.5-.5 7.74 7.74 0 0 1-5.51 2.282C4.204 16.292.708 12.796.708 8.5.708 4.204 4.204.708 8.5.708c4.296 0 7.792 3.496 7.792 7.792v.708a2.127 2.127 0 0 1-2.125 2.125 2.127 2.127 0 0 1-2.125-2.125V6.021a.354.354 0 1 0-.709 0v.376A3.528 3.528 0 0 0 8.5 4.958 3.546 3.546 0 0 0 4.958 8.5 3.546 3.546 0 0 0 8.5 12.042a3.53 3.53 0 0 0 3.046-1.765 2.835 2.835 0 0 0 2.62 1.765A2.837 2.837 0 0 0 17 9.208V8.5C17 3.813 13.187 0 8.5 0zm0 11.333A2.837 2.837 0 0 1 5.667 8.5 2.837 2.837 0 0 1 8.5 5.667 2.837 2.837 0 0 1 11.333 8.5 2.836 2.836 0 0 1 8.5 11.333z"/></symbol><symbol viewBox="0 0 17 17" id="form-name"><path d="M14.671 14.234l2.004-1.002-5.451-2.008 2.008 5.451 1.002-2.003 2.101 2.1a.308.308 0 1 0 .437-.436l-2.1-2.102zm-2.404-1.967l2.854 1.052-1.202.6-.6 1.202-1.052-2.854z"/><path d="M8.5 0C3.813 0 0 3.813 0 8.5a8.479 8.479 0 0 0 2.759 6.262l-.008.007.276.232.055.043c.146.12.298.236.452.348a8.674 8.674 0 0 0 1.354.8l.044.02a8.424 8.424 0 0 0 2.792.75l.083.007c.229.019.46.031.693.031a.309.309 0 1 0 0-.618c-.196 0-.391-.01-.586-.024l-.1-.008a8.004 8.004 0 0 1-.585-.072l-.026-.005a7.847 7.847 0 0 1-1.202-.3l-.036-.012a7.869 7.869 0 0 1-.576-.22l-.004-.002a8.109 8.109 0 0 1-.527-.253l-.068-.035a7.956 7.956 0 0 1-1.013-.645l-.04-.032.029-.017 2.444-1.333c.42-.23.681-.67.681-1.148v-1.113l-.07-.086a5.16 5.16 0 0 1-.928-1.921l-.029-.123-.105-.068a.512.512 0 0 1-.238-.43V7.439c0-.144.061-.278.172-.378l.102-.092V5.247l-.002-.04c-.001-.008-.092-.751.431-1.348.447-.51 1.213-.768 2.276-.768 1.059 0 1.822.256 2.27.762.524.59.438 1.348.437 1.354l-.003 1.762.102.092c.112.1.173.235.173.379v1.095c0 .22-.15.42-.365.487a.309.309 0 0 0 .182.59c.48-.147.8-.58.8-1.077V7.44c0-.268-.097-.528-.273-.733V5.265c.016-.161.073-1.066-.582-1.813-.57-.65-1.492-.98-2.741-.98s-2.171.33-2.74.98c-.656.747-.599 1.652-.583 1.812v1.443a1.126 1.126 0 0 0-.274.732v1.096c0 .34.153.658.414.872.25.98.766 1.723.956 1.975v.894a.69.69 0 0 1-.359.605L3.47 14.214a2.23 2.23 0 0 0-.232.148A7.863 7.863 0 0 1 .618 8.5C.618 4.154 4.154.618 8.5.618s7.882 3.536 7.882 7.882a.309.309 0 1 0 .618 0C17 3.813 13.187 0 8.5 0z"/></symbol><symbol viewBox="0 0 17 17" id="form-tel"><path d="M16.554 13.115l-.66-.44A8.46 8.46 0 0 0 8.534.035a.283.283 0 1 0 0 .567 7.892 7.892 0 0 1 6.886 11.757l-2.308-1.539a1.005 1.005 0 0 0-1.345.219l-1.001 1.288a.429.429 0 0 1-.55.116l-.19-.105c-.632-.345-1.418-.774-3.003-2.359C5.44 8.394 5.01 7.607 4.664 6.976l-.104-.19a.429.429 0 0 1 .113-.552l1.288-1.002c.412-.323.507-.908.219-1.345L3.885.447A1 1 0 0 0 2.538.142L1.1 1.007A2.03 2.03 0 0 0 .174 2.21c-.518 1.888-.128 5.146 4.671 9.946 2.09 2.091 3.888 3.343 5.408 4.052A7.879 7.879 0 0 1 .638 8.5a.283.283 0 1 0-.566 0 8.473 8.473 0 0 0 8.462 8.465 8.39 8.39 0 0 0 2.578-.406c.75.28 1.545.43 2.347.44.45.002.897-.057 1.332-.174a2.027 2.027 0 0 0 1.2-.926l.866-1.438a1 1 0 0 0-.303-1.347zm-.184 1.056l-.863 1.439a1.462 1.462 0 0 1-.866.67c-.824.227-1.94.255-3.374-.262a.281.281 0 0 0-.073-.028c-1.586-.59-3.556-1.844-5.949-4.237C.64 7.147.242 4.102.72 2.358c.104-.364.344-.674.671-.865L2.83.63a.433.433 0 0 1 .584.131l1.247 1.872 1.046 1.57a.436.436 0 0 1-.095.583L4.324 5.788a.992.992 0 0 0-.262 1.273l.102.185c.362.664.812 1.49 2.456 3.134 1.643 1.643 2.469 2.093 3.132 2.455l.187.103a.99.99 0 0 0 1.272-.263l1.002-1.288a.436.436 0 0 1 .584-.095l3.44 2.295a.433.433 0 0 1 .133.584z"/></symbol><symbol viewBox="0 0 16 14" id="icon-down"><path fill-rule="evenodd" clip-rule="evenodd" d="M7.93 11l5.196-9H2.734l5.196 9zm-.866 2.5a1 1 0 0 0 1.732 0l6.928-12a1 1 0 0 0-.866-1.5H1a1 1 0 0 0-.866 1.5l6.929 12z"/></symbol><symbol viewBox="0 0 14 16" id="icon-next"><path fill-rule="evenodd" clip-rule="evenodd" d="M11 7.93L2 2.734v10.392l9-5.196zm2.5.866a1 1 0 0 0 0-1.732L1.5.135a1 1 0 0 0-1.5.866v13.857a1 1 0 0 0 1.5.866l12-6.928z"/></symbol><symbol viewBox="0 0 14 16" id="icon-prev"><path fill-rule="evenodd" clip-rule="evenodd" d="M3 8l9 5.196V2.804L3 8zM.5 7.134a1 1 0 0 0 0 1.732l12 6.928a1 1 0 0 0 1.5-.866V1.072a1 1 0 0 0-1.5-.866L.5 7.134z"/></symbol><symbol viewBox="0 0 16 17" id="icon-search"><path d="M15.757 15.484l-3.944-4.208a6.949 6.949 0 0 0 1.57-4.412C13.382 3.079 10.38 0 6.69 0 3.001 0 0 3.08 0 6.864s3.002 6.863 6.691 6.863a6.505 6.505 0 0 0 3.834-1.242l3.974 4.24a.856.856 0 0 0 1.234.025.913.913 0 0 0 .024-1.266zM6.69 1.791c2.727 0 4.946 2.275 4.946 5.073 0 2.797-2.219 5.073-4.946 5.073S1.746 9.66 1.746 6.864c0-2.798 2.218-5.073 4.945-5.073z"/></symbol><symbol viewBox="0 0 92 92" id="inst"><path d="M46 89.625c24.093 0 43.625-19.532 43.625-43.625S70.093 2.375 46 2.375 2.375 21.907 2.375 46 21.907 89.625 46 89.625zM91.5 46c0 25.129-20.372 45.5-45.5 45.5S.5 71.129.5 46 20.872.5 46 .5 91.5 20.871 91.5 46zm-8.625 0c0 20.365-16.509 36.875-36.875 36.875S9.125 66.365 9.125 46C9.125 25.634 25.634 9.125 46 9.125S82.875 25.635 82.875 46zM63.5 33.364c0-2.877-2.2-4.864-4.863-4.864H33.363c-2.662 0-4.863 1.987-4.863 4.864v25.272c0 2.877 2.2 4.864 4.863 4.864h25.274c2.662 0 4.863-1.987 4.863-4.864V33.364zm-10.762.944c0-.566.464-1.03 1.03-1.03h3.843c.566 0 1.03.464 1.03 1.03v3.664c0 .566-.465 1.03-1.03 1.03h-3.843c-.566 0-1.03-.464-1.03-1.03v-3.664zm-19.46 9.57h1.969a10.457 10.457 0 0 0-.282 2.417c0 5.946 4.97 10.74 11.068 10.74 6.097 0 11.069-4.794 11.069-10.74 0-.83-.1-1.64-.284-2.416h1.84V57.74a.855.855 0 0 1-.851.852H34.13a.857.857 0 0 1-.854-.852V43.88zm6.425 2.048c0-3.363 2.82-6.116 6.328-6.116 3.513 0 6.33 2.753 6.33 6.116 0 3.363-2.82 6.116-6.33 6.116-3.508 0-6.328-2.752-6.328-6.116z"/></symbol><symbol viewBox="0 0 109 95" fill="none" id="logotip"><path d="M108.052 47.507c0-25.833-24.04-46.775-53.696-46.775C24.701.732.66 21.674.66 47.507S24.7 94.28 54.356 94.28s53.696-20.941 53.696-46.774z" fill="#B02827"/><path d="M0 47.5c0-13.159 6.124-25.042 15.976-33.642C25.798 5.288 39.38 0 54.356 0c14.976 0 28.557 5.288 38.38 13.858 9.852 8.6 15.975 20.483 15.975 33.642 0 13.159-6.123 25.042-15.976 33.642C82.913 89.712 69.332 95 54.355 95 39.38 95 25.8 89.712 15.977 81.142 6.124 72.542 0 60.659 0 47.5zm1.304 0h.03-.03c0 12.673 5.941 24.16 15.49 32.518 9.61 8.357 22.889 13.523 37.562 13.523 14.672 0 27.95-5.166 37.56-13.523 9.55-8.358 15.492-19.845 15.492-32.518h-.031.031c0-12.673-5.942-24.16-15.491-32.487-9.61-8.388-22.889-13.554-37.561-13.554-14.673 0-27.951 5.166-37.561 13.554C7.245 23.34 1.304 34.827 1.304 47.5z" fill="#F8B036"/><path d="M2.273 41.968l3.244-3.526-1.334-4.315-.303-.942.758-.547 4.093-2.918-.273-4.497-.06-.912.787-.365 4.79-2.158.788-4.497.152-.82.758-.183 5.275-1.277 1.91-4.315.273-.699.697-.03 5.517-.304 2.971-3.951.394-.547.637.091 5.487.73 3.88-3.404.485-.395.576.182 5.215 1.702 4.638-2.644.515-.304.516.304 4.699 2.614 5.183-1.763.576-.182.486.395 3.91 3.373L75 5.104l.637-.091.394.517 3.001 3.95 5.518.243.697.03.303.7 1.94 4.315 5.306 1.216.727.182.152.82.879 4.498 4.79 2.128.788.334-.061.912-.212 4.498 4.123 2.887.758.547-.303.942-1.274 4.315 3.274 3.526.698.729-.516.881-2.304 3.981 2.335 3.981.515.882-.667.73-3.244 3.555 1.334 4.285.303.942-.788.547-4.092 2.948.303 4.467.06.942-.788.335-4.79 2.157-.788 4.498-.151.82-.758.183-5.275 1.276-1.91 4.316-.303.699-.698.03-5.517.304-2.94 3.95-.395.548-.636-.091-5.487-.7-3.911 3.374-.455.425-.576-.212-5.214-1.702-4.638 2.644-.546.304-.515-.304-4.669-2.583-5.184 1.732-.576.182-.485-.395-3.91-3.373-5.488.79-.636.06-.425-.516-2.97-3.95L24.221 85l-.697-.03-.304-.669-1.97-4.346-5.275-1.215-.728-.182-.181-.821-.85-4.498-4.82-2.127-.757-.334.03-.912.243-4.498-4.123-2.887-.758-.547.273-.942 1.303-4.316-3.304-3.494-.667-.73.515-.911 2.304-3.982-2.364-3.98-.516-.882.697-.73zm5.397-2.28l-3.093 3.374L6.79 46.83l.425.699-.394.699-2.213 3.83L7.73 55.37l.546.577-.243.76L6.79 60.84l3.941 2.765.576.396-.03.76-.242 4.315 4.608 2.036.606.243.121.668.819 4.377 5.093 1.155.545.151.273.548 1.88 4.193 5.366.243.515.03.333.426 2.91 3.86 5.336-.76.455-.06.394.334 3.82 3.282 5.063-1.702.454-.152.394.213 4.578 2.553 4.547-2.584.394-.212.455.121 5.093 1.672 3.79-3.313.363-.334.485.06 5.336.73 2.88-3.89.333-.425.516-.03 5.335-.274 1.85-4.225.242-.547.546-.151 5.093-1.216.788-4.346.121-.669.576-.273 4.578-2.067-.273-4.315-.03-.73.576-.425 3.91-2.796-1.303-4.102-.212-.76.515-.578 3.092-3.373-2.243-3.768-.394-.7.394-.698 2.182-3.8-3.122-3.342-.515-.577.242-.76 1.213-4.133-3.91-2.735-.607-.426.06-.76.213-4.315-4.608-2.036-.576-.243-.122-.669-.818-4.376-5.123-1.155-.546-.122-.243-.577-1.91-4.194-5.335-.243-.515-.03-.334-.426-2.91-3.86-5.336.76-.485.061-.364-.334-3.85-3.282-5.062 1.702-.425.152-.424-.213-4.547-2.553-4.548 2.583-.424.243-.425-.152-5.093-1.671-3.79 3.313-.363.334-.485-.061L33.68 7.9l-2.85 3.86-.333.425-.515.03-5.336.274-1.849 4.224-.273.547-.546.152-5.062 1.216-.788 4.346-.122.668-.576.274-4.608 2.066.273 4.316.06.76-.575.395-3.91 2.795 1.272 4.103.243.76-.515.577z" fill="#F8B036"/><path d="M55.21 88.2c0-.333-.245-.603-.545-.603-.301 0-.545.27-.545.603 0 .333.244.603.545.603.3 0 .544-.27.544-.603zm-5.39 3.783c0-.333-.243-.603-.544-.603-.3 0-.545.27-.545.603 0 .333.244.603.545.603.3 0 .545-.27.545-.603zm.51-6.27c0-.332-.243-.602-.544-.602-.3 0-.545.27-.545.602 0 .334.244.603.545.603.3 0 .544-.27.544-.603zm-5.207 1.583c0-.334-.244-.604-.545-.604-.301 0-.545.27-.545.604 0 .332.244.602.545.602.3 0 .544-.27.544-.602zm-5.684 2.871c0-.333-.244-.603-.545-.603-.3 0-.544.27-.544.603 0 .333.243.602.544.602.301 0 .545-.27.545-.602zm1.566-6.097c0-.332-.244-.602-.544-.602-.301 0-.545.27-.545.603 0 .333.244.603.545.603.3 0 .544-.27.544-.603zm-5.482.673c0-.333-.244-.603-.545-.603-.3 0-.544.27-.544.603 0 .333.243.603.544.603.301 0 .545-.27.545-.603zm-5.767 1.582c0-.333-.244-.603-.544-.603-.301 0-.545.27-.545.603 0 .333.244.603.545.603.3 0 .544-.27.544-.603zm2.492-5.514c0-.333-.243-.603-.544-.603-.301 0-.545.27-.545.603 0 .333.244.603.545.603.3 0 .544-.27.544-.603zm-7.719-4.775c0-.333-.244-.603-.545-.603-.3 0-.545.27-.545.603 0 .333.244.603.545.603.3 0 .545-.27.545-.603zm-6.249-6.022c0-.333-.244-.603-.545-.603-.3 0-.545.27-.545.603 0 .333.244.603.545.603.3 0 .545-.27.545-.603zm-4.632-6.941c0-.333-.244-.603-.545-.603-.3 0-.544.27-.544.603 0 .333.243.603.544.603.301 0 .545-.27.545-.603zm-2.923-7.529c0-.333-.244-.603-.545-.603-.3 0-.544.27-.544.602 0 .334.244.604.544.604.301 0 .545-.27.545-.603zm-.808-8.014c0-.333-.243-.603-.544-.603-.301 0-.545.27-.545.603 0 .333.244.603.545.603.3 0 .544-.27.544-.603zm.813-8.041c0-.333-.244-.603-.545-.603-.3 0-.544.27-.544.603 0 .333.243.603.544.603.301 0 .545-.27.545-.603zm2.77-7.613c0-.333-.244-.603-.545-.603-.301 0-.545.27-.545.603 0 .333.244.602.545.602.3 0 .544-.27.544-.602zm4.614-6.911c0-.333-.244-.602-.545-.602-.3 0-.545.27-.545.602 0 .333.244.603.545.603.3 0 .545-.27.545-.603zm6.16-6.052c0-.333-.244-.603-.545-.603-.3 0-.544.27-.544.603 0 .333.243.603.544.603.301 0 .545-.27.545-.603zm7.583-4.903c0-.333-.244-.603-.545-.603-.3 0-.544.27-.544.603 0 .333.243.603.544.603.301 0 .545-.27.545-.603zm8.87-3.334c0-.333-.244-.603-.545-.603-.3 0-.544.27-.544.603 0 .333.244.603.544.603.301 0 .545-.27.545-.603zm9.184-1.681c0-.333-.243-.603-.544-.603-.3 0-.545.27-.545.603 0 .333.244.603.545.603.3 0 .544-.27.544-.603zm9.63-.085c0-.332-.243-.602-.544-.602-.301 0-.545.27-.545.603 0 .333.244.603.545.603.3 0 .544-.27.544-.603zM26.819 80.555c0-.333-.244-.603-.545-.603-.3 0-.544.27-.544.603 0 .333.243.603.544.603.3 0 .545-.27.545-.603zm-5.751.355c0-.332-.244-.602-.545-.602-.3 0-.544.27-.544.603 0 .333.243.603.544.603.3 0 .545-.27.545-.603zm-1.772-6.279c0-.333-.244-.603-.544-.603-.301 0-.545.27-.545.603 0 .333.244.603.545.603.3 0 .544-.27.544-.603zm-5.798-6.925c0-.333-.243-.603-.544-.603-.301 0-.545.27-.545.603 0 .333.244.603.545.603.3 0 .544-.27.544-.603zm-4.034-7.739c0-.333-.244-.603-.544-.603-.301 0-.545.27-.545.603 0 .333.244.603.545.603.3 0 .544-.27.544-.603zm-1.758-8.23c0-.333-.243-.603-.544-.603-.301 0-.545.27-.545.603 0 .333.244.603.545.603.3 0 .544-.27.544-.603zm-.151-8.43c0-.333-.244-.603-.545-.603-.3 0-.544.27-.544.603 0 .333.244.603.544.603.301 0 .545-.27.545-.603zm1.988-8.308c0-.333-.243-.603-.544-.603-.301 0-.545.27-.545.603 0 .333.244.603.545.603.3 0 .544-.27.544-.603zm4.524 38.964c0-.332-.244-.602-.545-.602-.3 0-.545.27-.545.602 0 .334.244.603.545.603.301 0 .545-.27.545-.603zm-8.842-17.06c0-.333-.244-.603-.545-.603-.3 0-.544.27-.544.603 0 .333.244.603.544.603.301 0 .545-.27.545-.603zm-1.207-9.336c0-.333-.244-.603-.545-.603-.3 0-.544.27-.544.603 0 .333.244.603.544.603.301 0 .545-.27.545-.603zm1.063-9.355c0-.334-.243-.603-.544-.603-.301 0-.545.27-.545.602 0 .334.244.604.545.604.3 0 .544-.27.544-.603zm3.303-9.053c0-.333-.244-.603-.544-.603-.301 0-.545.27-.545.603 0 .333.244.603.545.603.3 0 .544-.27.544-.603zm4.902-1.928c0-.333-.244-.603-.545-.603-.3 0-.545.27-.545.603 0 .333.244.603.545.603.3 0 .545-.27.545-.603zm.5-6.098c0-.333-.244-.603-.545-.603-.3 0-.545.27-.545.603 0 .333.244.603.545.603.3 0 .545-.27.545-.603zm5.24-.949c0-.333-.244-.603-.545-.603-.3 0-.545.27-.545.603 0 .333.244.603.545.603.301 0 .545-.27.545-.603zm1.831-6.037c0-.333-.244-.603-.545-.603-.3 0-.544.27-.544.603 0 .333.243.603.544.603.301 0 .545-.27.545-.603zm5.55.289c0-.333-.244-.603-.545-.603-.3 0-.545.27-.545.603 0 .333.244.603.545.603.3 0 .545-.27.545-.603zm2.979-5.696c0-.332-.244-.602-.544-.602-.301 0-.545.27-.545.603 0 .333.244.603.544.603.301 0 .545-.27.545-.603zm9.576-3.964c0-.333-.244-.603-.544-.603-.301 0-.545.27-.545.603 0 .333.244.603.545.603.3 0 .544-.27.544-.603zm10.369-2.002c0-.333-.243-.603-.544-.603-.301 0-.545.27-.545.603 0 .333.244.603.545.603.3 0 .544-.27.544-.603zM44.699 7.37c0-.333-.244-.603-.545-.603-.3 0-.545.27-.545.603 0 .333.244.603.545.603.3 0 .545-.27.545-.603zm10.04-.873c0-.333-.244-.603-.545-.603-.3 0-.545.27-.545.603 0 .333.244.603.545.603.3 0 .545-.27.545-.603zm5.152-3.582c0-.333-.244-.603-.545-.603-.3 0-.544.27-.544.603 0 .333.244.603.544.603.301 0 .545-.27.545-.603zm10.433 2.002c0-.333-.244-.603-.545-.603-.3 0-.545.27-.545.603 0 .333.244.603.545.603.3 0 .545-.27.545-.603zM64.77 7.438c0-.333-.243-.603-.544-.603-.3 0-.544.27-.544.603 0 .333.243.603.544.603.301 0 .545-.27.545-.603zm4.106 3.152c0-.333-.244-.603-.544-.603-.301 0-.545.27-.545.603 0 .333.244.603.545.603.3 0 .544-.27.544-.603zm5.435-.61c0-.334-.244-.604-.545-.604-.3 0-.544.27-.544.603 0 .333.244.603.544.603.301 0 .545-.27.545-.603zm5.62-1.345c0-.333-.244-.603-.545-.603-.3 0-.544.27-.544.603 0 .333.244.603.544.603.301 0 .545-.27.545-.603zm-2.569 5.395c0-.333-.244-.603-.545-.603-.3 0-.544.27-.544.603 0 .333.243.603.544.603.3 0 .545-.27.545-.603zm5.45.36c0-.334-.244-.604-.545-.604-.3 0-.544.27-.544.603 0 .333.243.603.544.603.301 0 .545-.27.545-.603zm2.301 4.464c0-.333-.244-.603-.545-.603-.3 0-.545.27-.545.603 0 .333.244.603.545.603.3 0 .545-.27.545-.603zm3.477-4.982c0-.333-.245-.603-.545-.603-.301 0-.545.27-.545.603 0 .333.244.603.545.603.3 0 .544-.27.544-.603zm1.582 6.3c0-.333-.244-.602-.544-.602-.301 0-.545.27-.545.602 0 .333.244.603.545.603.3 0 .544-.27.544-.603zm5.615.575c0-.333-.244-.603-.545-.603-.3 0-.545.27-.545.603 0 .333.244.603.545.603.3 0 .544-.27.544-.603zM91.6 24.905c0-.333-.244-.603-.545-.603-.3 0-.544.27-.544.603 0 .333.244.603.544.603.301 0 .545-.27.545-.603zm4.482 2.123c0-.333-.243-.603-.544-.603-.301 0-.545.27-.545.603 0 .333.244.603.545.603.3 0 .544-.27.544-.603zm5.126 1.828c0-.333-.243-.603-.544-.603-.301 0-.545.27-.545.603 0 .333.244.603.545.603.301 0 .544-.27.544-.603zm-5.126 2.824c0-.333-.243-.603-.544-.603-.301 0-.545.27-.545.603 0 .333.244.603.545.603.3 0 .544-.27.544-.603zm3.998 3.096c0-.333-.244-.603-.545-.603-.3 0-.545.27-.545.603 0 .333.244.603.545.603.3 0 .545-.27.545-.603zm-.992 4.402c0-.333-.243-.603-.544-.603-.301 0-.545.27-.545.603 0 .333.244.603.545.603.3 0 .544-.27.544-.603zM102.076 43c0-.332-.244-.602-.545-.602-.301 0-.545.27-.545.603 0 .333.244.602.545.602.301 0 .545-.27.545-.602zm-1.938 4.118c0-.333-.244-.603-.544-.603-.301 0-.545.27-.545.603 0 .333.244.603.544.603.301 0 .545-.27.545-.603zm5.652.097c0-.333-.243-.603-.544-.603-.301 0-.545.27-.545.603 0 .333.244.603.545.603.301 0 .544-.27.544-.603zm-3.552 4.137c0-.333-.244-.603-.545-.603-.301 0-.545.27-.545.603 0 .333.244.603.545.603.301 0 .545-.27.545-.603zm2.473 5.246c0-.333-.243-.603-.544-.603-.301 0-.545.27-.545.603 0 .333.244.603.545.603.301 0 .544-.27.544-.603zm-5.564-1.574c0-.333-.244-.603-.545-.603-.3 0-.544.27-.544.603 0 .333.243.603.544.603.301 0 .545-.27.545-.603zm1.09 4.631c0-.333-.244-.603-.545-.603-.3 0-.544.27-.544.603 0 .333.243.603.544.603.3 0 .545-.27.545-.603zm1.161 5.955c0-.333-.244-.603-.545-.603-.301 0-.544.27-.544.603 0 .333.243.603.544.603.301 0 .545-.27.545-.603zm-5.136-2.914c0-.333-.244-.603-.544-.603-.301 0-.545.27-.545.603 0 .333.244.603.544.603.301 0 .545-.27.545-.603zm.293 4.705c0-.333-.244-.603-.545-.603-.3 0-.544.27-.544.603 0 .333.244.603.544.603.301 0 .545-.27.545-.603zm-4.719 2.248c0-.333-.243-.603-.544-.603-.301 0-.545.27-.545.603 0 .333.244.603.545.603.3 0 .544-.27.544-.603zm4.298 4.101c0-.332-.244-.602-.544-.602-.301 0-.545.27-.545.603 0 .333.244.602.545.602.3 0 .544-.27.544-.602zm-7.09 6.862c0-.333-.243-.603-.544-.603-.301 0-.545.27-.545.603 0 .333.244.603.545.603.3 0 .544-.27.544-.603zm-3.58-4.891c0-.333-.244-.603-.544-.603-.301 0-.545.27-.545.603 0 .333.244.603.545.603.3 0 .544-.27.544-.603zm-2.06 4.332c0-.333-.244-.603-.545-.603-.3 0-.544.27-.544.603 0 .333.243.603.544.603.3 0 .545-.27.545-.603zm-3.024 6.004c0-.333-.245-.603-.545-.603-.301 0-.545.27-.545.603 0 .333.244.603.545.603.3 0 .544-.27.544-.603zm-2.452-5.465c0-.333-.244-.603-.544-.603-.301 0-.545.27-.545.603 0 .333.244.603.544.603.301 0 .545-.27.545-.603zm-3.435 3.85c0-.333-.244-.603-.545-.603-.3 0-.545.27-.545.603 0 .333.244.603.545.603.3 0 .545-.27.545-.603zm-3.679 5.461c0-.333-.244-.603-.545-.603-.3 0-.544.27-.544.603 0 .333.244.603.544.603.301 0 .545-.27.545-.603zm-1.471-6.012c0-.333-.244-.603-.544-.603-.301 0-.545.27-.545.603 0 .333.244.603.544.603.301 0 .545-.27.545-.603zm-4.143 3.41c0-.333-.244-.603-.545-.603-.3 0-.545.27-.545.603 0 .333.244.603.545.603.3 0 .545-.27.545-.603zm-5.221-1.381c0-.332-.244-.603-.545-.603-.3 0-.544.27-.544.604 0 .332.243.602.544.602.301 0 .545-.27.545-.602zm.402 5.86c0-.333-.244-.603-.544-.603-.301 0-.545.27-.545.603 0 .333.244.603.545.603.3 0 .544-.27.544-.603zm30.256-17.588c0-.333-.244-.603-.544-.603-.301 0-.545.27-.545.603 0 .333.244.603.544.603.301 0 .545-.27.545-.603zm13.995-36.385c0-.333-.244-.603-.544-.603-.301 0-.545.27-.545.603 0 .333.244.603.545.603.3 0 .544-.27.544-.603zM35.07 10.014c0-.333-.243-.603-.544-.603-.3 0-.545.27-.545.603 0 .333.244.603.545.603.3 0 .545-.27.545-.603zM8.553 65.891c0-.333-.244-.603-.545-.603-.3 0-.544.27-.544.603 0 .333.244.603.544.603.301 0 .545-.27.545-.603z" fill="#F8B036"/><path d="M18.976 56.895h-.121c-.606 0-1.122.03-1.576.03-.304 0-.576.03-.789.03h-.12l-.031-.06c-.091-.092-.152-.395-.121-.578v-.121c0-.03.03-.091.06-.122l.03-.03.061-.03c.06 0 .152 0 .243-.031.394-.06.606-.091.788-.152.121-.03.182-.122.242-.182.03-.122.061-.243.061-.395.03-.456.03-1.642.03-3.01v-4.041c-.212-.03-.667-.03-1.091 0h-.485c-.121 0-.212.03-.273.091a1.06 1.06 0 0 0-.182.274c-.06.182-.09.395-.151.608-.03.243-.061.486-.122.76v.06l-.03.03c-.06.092-.394.122-.576.092-.03 0-.09-.03-.121-.03-.03 0-.06-.031-.091-.031l-.06-.06v-.092c0-.122-.031-.304-.031-.456-.03-.82-.091-1.61-.212-2.158l-.03-.06.03-.061c.03-.03.06-.122.12-.152.031-.03.031-.03.062-.03.03-.031.03-.031.06-.031h.03c.182.03.364.06.607.06.212.031.515.031.94.031h5.456c.425 0 .728 0 .94-.03.243 0 .394-.03.607-.061h.03c.06 0 .151.091.182.152.03 0 .03.03.03.03v.03h.03v.122c-.121.547-.182 1.338-.212 2.158-.03.152-.03.334-.03.456v.091l-.06.06c-.092.062-.395.092-.577.062h-.121c-.03-.03-.091-.061-.121-.092v-.03l-.03-.06a52.391 52.391 0 0 0-.092-.76c-.06-.213-.12-.426-.181-.608a.589.589 0 0 0-.152-.274c-.06-.06-.152-.091-.273-.091-.212 0-.485 0-.758-.03h-.151c-.273 0-.546 0-.698.03v1.368c0 2.218 0 4.953.03 5.683.031.152.031.273.092.395.03.06.12.152.242.182.152.06.394.091.758.152.091.03.182.03.273.03l.06.03.03.031c.061.091.092.426.031.608 0 .03 0 .091-.03.121 0 .03-.03.061-.06.092l-.031.06h-.06c-.213 0-.516-.03-.85-.03-.424 0-.91-.03-1.455-.03zm-1.243-8.753v.03-.03zm62.904 8.751h-.12c-.577 0-1.123.03-1.577.03-.303.03-.546.03-.788.03h-.121l-.031-.06c-.091-.061-.121-.365-.121-.578 0-.03 0-.06.03-.121 0-.03 0-.091.03-.122l.03-.03h.061c.091-.03.182-.03.273-.061.364-.03.606-.06.788-.122.122-.06.182-.121.213-.212.06-.122.06-.243.09-.395.03-.426.03-1.642.03-3.009v-4.042c-.242 0-.697-.03-1.121 0h-.485c-.121.03-.212.03-.273.091a.587.587 0 0 0-.151.274 3.487 3.487 0 0 0-.152.608c-.06.243-.09.486-.121.76v.06l-.03.03c-.061.092-.395.122-.607.092-.03 0-.06 0-.09-.03-.062 0-.092-.031-.122-.031l-.03-.06-.03-.062v-.456c-.061-.82-.092-1.61-.243-2.157v-.091l.03-.061c0-.03.06-.122.121-.152 0-.03.03-.03.03-.03.031-.03.061-.03.092-.03.212.03.394.06.606.06.242.03.515.03.94.03h5.487c.394 0 .697 0 .91-.03a3.4 3.4 0 0 0 .606-.06h.03c.09 0 .151.09.212.151v.03l.03.03.03.062-.03.09c-.12.548-.151 1.338-.212 2.158 0 .152-.03.304-.03.426v.091l-.06.06c-.061.062-.395.092-.577.062h-.09c-.061-.03-.092-.03-.122-.091l-.03-.03v-.062c-.03-.273-.091-.516-.121-.76a3.57 3.57 0 0 0-.152-.607c-.06-.122-.091-.213-.182-.274-.06-.06-.152-.06-.273-.09h-1.576v1.397c0 2.188 0 4.923.03 5.653 0 .152.03.273.06.395.061.09.122.152.243.212.182.061.394.092.788.122.091.03.182.03.243.06h.06l.03.031c.092.091.092.426.061.608-.03.06-.03.091-.03.121a.437.437 0 0 0-.06.092l-.061.06h-.06c-.213 0-.486 0-.85-.03-.424 0-.909-.03-1.455-.03zm-1.212-8.753v.03-.03zm-41.531 5.075c0 .486 0 1.52.03 2.036 0 .183.03.335.09.426.031.091.122.152.274.213.242.06.515.09.848.121.03.03.061.03.122.03h.06l.03.061c.031.03.031.061.061.122v.121c.03.183-.03.456-.09.547l-.031.061h-.09c-.304 0-.698 0-1.123-.03h-2.394c-.395.03-.789.03-1.062.03h-.09l-.03-.06c-.031-.03-.031-.092-.031-.122-.03-.03-.03-.06-.03-.091-.03-.213 0-.486.03-.578l.06-.06h.061c.152-.03.303-.03.425-.061.12 0 .242-.03.363-.091.122-.03.212-.092.243-.183.06-.121.06-.304.09-.516V54.583c0-.608.031-1.52.031-2.826 0-1.672 0-2.584-.03-3.01v-.03c-.03-.212-.03-.395-.091-.486-.06-.09-.152-.152-.303-.182-.122-.03-.212-.06-.334-.06a9.81 9.81 0 0 0-.424-.092h-.06l-.031-.091c-.03-.03-.03-.061-.03-.091-.03-.03-.03-.061-.03-.092 0-.212.03-.486.09-.547l.06-.06h.881c.364.03.727.03 1.152.03h1.394c.455-.03.91-.03 1.425-.03.243 0 .576.03.94.121.06 0 .121.03.182.03a2.6 2.6 0 0 1 .91.456c.09.061.151.122.242.183.06.09.151.182.212.243.364.456.606 1.064.606 1.884 0 .426-.06.79-.151 1.094-.06.152-.091.274-.152.395a2.942 2.942 0 0 1-1.182 1.307c-.03.03 0 0 0 0-.09.06-.182.091-.273.152-.06.03-.151.06-.242.091-.425.182-.88.274-1.304.274l-1.303-.03zm0-1.003h.879l.12-.03c.122 0 .243 0 .365-.03.09-.03.182-.092.273-.152.242-.152.424-.365.545-.639.121-.273.182-.638.152-1.094 0-.668-.152-1.215-.455-1.61-.303-.395-.788-.608-1.394-.608-.061 0-.152 0-.243.03h-.03c-.06 0-.091 0-.152.03 0 .031-.03.061-.03.092 0 .243-.03.547-.03 1.063v2.948zm9.458 3.982c.03-.06.06-.09.09-.121l.031-.03h.03l.577-.122c.212-.03.333-.122.394-.243.09-.152.09-.395.12-.79v-2.584a.932.932 0 0 0-.363.152 1.632 1.632 0 0 0-.455.456c-.182.304-.515.942-.849 1.52-.303.516-.575 1.033-.727 1.276-.03.03-.06.091-.091.122-.424.577-.697.881-1.607 1.063-.212.03-.545.061-.91.061h-1.211l-.061-.06c-.061-.092-.091-.396-.061-.578v-.091c0-.061.03-.091.03-.122l.06-.06h.031c.485-.092.788-.152 1.031-.274.242-.122.394-.304.606-.547.212-.334.485-.73.697-1.064.213-.304.364-.577.486-.73.394-.607.666-1.002.909-1.275a2.63 2.63 0 0 1 .546-.487c-.152-.152-.273-.334-.425-.577-.212-.304-.424-.7-.697-1.276-.273-.548-.455-.852-.637-1.003-.12-.122-.242-.152-.424-.152-.364 0-.758.121-1.061.243 0 .03-.03.03-.03.03-.03 0-.061.03-.091.03-.06 0-.122-.06-.182-.121a.665.665 0 0 1-.091-.152v-.091c0-.274.06-.7.151-1.033 0-.061.03-.122.061-.183.03-.06.03-.121.06-.182.061-.06.122-.152.213-.213 0-.03.03-.03.03-.06.03 0 .03 0 .06-.031.092-.03.183-.03.243-.06h.061c.121-.031.212-.062.303-.062.485 0 .819.183 1.122.456.303.274.515.7.758 1.185.273.578.454 1.003.636 1.338a5.4 5.4 0 0 0 .455.85c.152.274.334.457.576.578.243.122.515.152.88.182v-.425c0-.82 0-1.763-.031-2.28-.03-.182-.03-.334-.091-.425-.06-.091-.152-.152-.303-.182-.091-.03-.182-.03-.273-.061-.121 0-.273-.03-.424-.06h-.03l-.031-.031c-.03-.03-.03-.091-.06-.152 0-.06-.031-.213 0-.334 0-.122.03-.274.09-.335 0-.03.03-.06.091-.06h.91c.363.03.818.03 1.121.03.546 0 1.031 0 1.395-.03.333 0 .576-.03.697 0h.06c.031.03.061.06.092.121.03.06.06.183.06.304a1.1 1.1 0 0 1-.06.334c0 .061-.03.091-.091.122v.03h-.03c-.152.03-.243.03-.334.061-.06 0-.152.03-.243.03v.03c-.151.031-.272.062-.333.183-.06.091-.06.274-.06.517-.031.273-.031.638-.031 1.033v1.58c.424 0 .819-.121 1.091-.303.061-.03.091-.092.152-.122.03-.06.09-.091.121-.152a7.17 7.17 0 0 0 .546-.912c.03-.06.06-.121.09-.212.031-.061.092-.122.122-.213.455-.942.849-1.61 1.243-2.036.394-.426.819-.639 1.334-.639.182 0 .364.061.485.152.03 0 .06 0 .09.03.031 0 .062.031.062.031l.03.03c.06.03.09.153.121.244 0 0 0 .03.03.03v.122c0 .182-.12.729-.242 1.094a.565.565 0 0 0-.06.212c-.031.03-.061.092-.092.122-.03.091-.121.152-.182.182h-.03c-.03 0-.06.03-.09.03h-.031l-.03-.03a1.022 1.022 0 0 0-.364-.182c-.03 0-.03-.03-.06-.03-.152-.03-.274-.061-.365-.061a.441.441 0 0 0-.364.152c-.151.121-.303.364-.515.79a14.76 14.76 0 0 1-.667 1.276c-.151.243-.273.426-.424.547.182.122.333.243.485.395.212.213.394.456.636.82.122.214.243.426.364.67.212.364.455.79.758 1.245.394.578.667.912.94 1.125.303.182.606.243 1.091.273h.06c.062.03.092.092.092.183.03.06.03.182 0 .304 0 .09-.03.212-.06.304-.031.06-.061.121-.122.121-.212.061-1.061.061-1.698.03h-.333c-.121 0-.182-.03-.243-.03-.303-.03-.545-.091-.697-.213a1.235 1.235 0 0 1-.424-.364c-.425-.486-.819-1.246-1.274-2.097-.212-.365-.424-.76-.636-1.155-.212-.334-.364-.547-.546-.669-.121-.06-.242-.121-.394-.121v2.583c0 .122 0 .243.03.334 0 .243 0 .365.06.456.062.091.152.152.304.183.091.03.182.06.303.06.091.03.243.061.394.061l.03.03h.031c.03.03.06.061.09.122.031.091.031.213.031.334 0 .122-.03.243-.06.304s-.061.122-.122.152h-.06c-.182 0-.758-.03-1.273-.03h-.819c-.425 0-1.091 0-1.576.03h-.576l-.091-.091c-.061-.091-.061-.213-.091-.334 0-.122 0-.243.03-.335zm11.246-8.204a2.37 2.37 0 0 1-.424-.062h-.061l-.03-.03v-.03c-.061-.061-.091-.244-.061-.395 0-.152.03-.335.09-.395l.062-.03h1.06c.395.03.82.03 1.183.03h3.032c.394 0 .94 0 1.394-.03.09 0 .152-.031.242-.031.061 0 .122 0 .182-.03h.061l.03.03c.03 0 .091.06.091.09.03 0 .03.031.03.031 0 .03.03.061.03.092v.03l-.03.03c-.06.334-.12.942-.151 1.58-.03.122-.03.244-.03.365 0 .122 0 .243-.03.334v.092l-.061.06c-.091.061-.364.092-.546.092-.03 0-.06 0-.09-.03-.061 0-.092 0-.122-.031l-.06-.03v-.092a9.222 9.222 0 0 0-.092-.608c-.03-.151-.09-.273-.121-.395a.509.509 0 0 0-.212-.273.511.511 0 0 0-.303-.091c-.273-.03-1.152-.061-1.698-.03h-.424c0 .03-.03.06-.03.09s0 .03-.031.03v3.01h.242c.516 0 1.274 0 1.698-.03.091 0 .182-.031.212-.092.061-.06.091-.152.152-.304 0-.06.03-.152.06-.273.03-.092.03-.183.061-.304v-.061l.06-.03c.092-.092.395-.092.607-.061.03.03.06.03.091.03.03 0 .091.03.091.06l.091.031v.122c-.03.091-.03.182-.03.273-.03.365-.091.851-.091 1.246s.03.882.03 1.277c0 .09.03.182.03.273v.091l-.09.061c-.061.061-.364.091-.546.091-.06-.03-.091-.03-.121-.03s-.061-.03-.092-.03l-.06-.03v-.092c-.06-.213-.091-.304-.091-.395-.03-.091-.03-.152-.06-.243a.49.49 0 0 0-.122-.213c-.06-.06-.121-.091-.242-.091-.334-.06-1.365-.06-1.88-.06v2.734c0 .152.06.274.151.335l.03.03c.031 0 .062 0 .062.03.12.03.333.03.636.061h.182c.364.03.788.03 1.182.03.273 0 .455-.03.607-.09.12-.061.242-.153.394-.365.182-.213.364-.578.545-.912.03-.091.061-.152.091-.213.03-.06.061-.152.091-.212l.03-.092h.091c.092-.03.364.061.516.152.03 0 .06.03.09.03l.092.092.03.06v.061c-.06.335-.242 1.125-.455 1.733a1.51 1.51 0 0 1-.12.334c-.031.091-.061.182-.122.273-.03.092-.091.183-.243.274-.12.06-.333.091-.697.091-.546 0-1.182-.03-1.85-.03-.696-.03-1.485-.03-2.364-.03h-1.334c-.454.03-.91.03-1.273.03h-.09l-.031-.091c-.06-.122-.06-.365-.06-.547 0-.03 0-.061.03-.092 0-.03 0-.06.03-.09l.03-.092h.06c.274-.03.486-.06.698-.091.182-.03.334-.06.425-.091a.441.441 0 0 0 .272-.183c.03-.09.06-.212.091-.425.03-.7.03-1.884.03-3.708 0-.638 0-1.306-.03-1.762v-1.186c-.03-.212-.06-.334-.09-.395-.061-.06-.122-.09-.243-.152-.122-.03-.212-.06-.364-.09zm2.88 4.558zm12.732-2.584c-.03-.03-.03-.061-.06-.122a5.712 5.712 0 0 0-.242-1.155 1.248 1.248 0 0 0-.546-.577 1.883 1.883 0 0 0-.788-.274 4.11 4.11 0 0 0-.88-.09h-.03c-.818 0-1.485.333-1.94.972-.485.668-.727 1.671-.727 2.978 0 1.033.212 2.097.757 2.917.546.79 1.365 1.337 2.547 1.337.242 0 .515-.03.728-.09.242-.092.454-.183.636-.365h.03c.243-.213.516-.578.789-1.003.06-.091.121-.183.151-.243.06-.092.122-.183.152-.274l.06-.091h.091c.091.03.304.121.425.243l.09.091c.031.03.031.061.061.091l.03.061-.03.091c-.12.487-.515 1.307-.848 1.824-.061.09-.152.182-.213.273-.06.061-.151.122-.212.183h-.03c-.243.09-.546.212-.91.273a6.032 6.032 0 0 1-1.364.152c-1.697 0-3.031-.486-3.971-1.367-.94-.882-1.455-2.219-1.455-3.951 0-1.307.424-2.553 1.303-3.495.152-.183.364-.365.546-.517.212-.152.424-.304.667-.425a4.527 4.527 0 0 1 1.364-.486 7.275 7.275 0 0 1 1.698-.183c.788 0 1.546.091 2.152.183.334.03.637.06.849.09h.182l-.03.183a18.057 18.057 0 0 0-.182 1.824c-.03.151-.03.273-.03.395v.394l-.03.061a.608.608 0 0 1-.243.122c-.091.03-.182.03-.273.03-.121 0-.212 0-.273-.06zm12.28-2.036a1.769 1.769 0 0 0-.395-.061l-.03-.03-.03-.031c-.03 0-.03-.03-.061-.03a1.352 1.352 0 0 1-.06-.396c0-.151.03-.303.09-.364l.03-.03.03-.03h.062c.09 0 .363 0 .697.03.333 0 .758.03 1.303.03v-.03h1.486c.424-.03.788-.03 1.091-.03.697 0 1.425.09 2.001.424.576.335 1 .943 1 1.915 0 .669-.333 1.307-.909 1.732a1.254 1.254 0 0 1-.334.213c-.03.03-.03.03-.06.03.485.152.94.396 1.273.7.424.425.667.972.667 1.701 0 .7-.151 1.246-.485 1.733-.334.455-.819.82-1.425 1.124a4.82 4.82 0 0 1-1 .304c-.091.03-.152.03-.212.03-.455.091-.91.122-1.334.122-.334 0-1.061-.03-1.85-.03a68.148 68.148 0 0 0-2.091-.061v.03h-.061l-.06-.06v-.031c-.061-.091-.092-.243-.092-.395 0-.182.03-.334.122-.395v-.03l.03-.031h.03c.213-.03.394-.03.546-.06.182-.031.303-.062.424-.092a.407.407 0 0 0 .213-.182c.03-.091.06-.213.09-.426.03-.425.03-1.823.03-3.343v-2.036c0-.517 0-.942-.03-1.307a.875.875 0 0 0-.06-.364c-.06-.091-.121-.122-.243-.152-.09-.061-.242-.091-.394-.091zm3.273.06c-.09 0-.181 0-.272.03h-.061c-.03 0-.03.031-.03.062-.03.395-.061 1.914-.061 2.917.06.03.121.03.212.03h.516a5.5 5.5 0 0 0 .848-.06c.061-.03.091-.03.122-.03 0-.031.03-.031.03-.031h.03c.122-.091.243-.213.334-.365 0-.03.03-.06.03-.091.091-.213.121-.456.121-.699 0-.547-.12-1.003-.424-1.307-.303-.304-.758-.456-1.395-.456zm.789 7.963c.424 0 .818-.152 1.06-.456.273-.334.425-.79.425-1.459 0-.608-.182-1.124-.546-1.459-.363-.334-.94-.516-1.637-.516h-.515c0 1.094 0 2.522.06 3.16 0 .122.061.274.122.365.03 0 .03.03.06.06 0 0 0 .031.03.031a.69.69 0 0 0 .365.182c.03.03.06.03.09.03.183.062.364.062.486.062zm-56.782-3.92c0 .82-.122 1.52-.394 2.188a4.643 4.643 0 0 1-2.638 2.674 5.24 5.24 0 0 1-1.94.365c-.97 0-1.819-.213-2.546-.638a4.248 4.248 0 0 1-1.79-1.793c-.424-.79-.666-1.732-.666-2.826 0-.79.152-1.49.394-2.158a4.643 4.643 0 0 1 1.061-1.641c.455-.456.97-.82 1.576-1.064a5.127 5.127 0 0 1 1.94-.365c.94 0 1.79.213 2.547.639a4.5 4.5 0 0 1 1.789 1.823c.454.82.667 1.732.667 2.796zm-2.456 0c0-1.185-.182-2.188-.546-3.009-.363-.82-1.03-1.215-1.97-1.215-.606 0-1.122.212-1.485.638a3.697 3.697 0 0 0-.789 1.58c-.182.638-.242 1.307-.242 2.006 0 1.155.182 2.127.576 2.948.394.85 1.03 1.246 1.97 1.246s1.577-.395 1.94-1.216c.364-.82.546-1.823.546-2.978zm3.033-16.475c-.06-.03-.151-.03-.242-.03h-.03l-.03-.03a.325.325 0 0 1-.031-.244c0-.091.03-.182.06-.213l.03-.03h.031c.152 0 .364 0 .607.03h2.485c.243 0 .546 0 .819-.03h.151c.03 0 .091 0 .122-.03h.03v.03c.03 0 .06.03.06.03l.031.03v.091c-.03.183-.06.518-.09.882-.031.061-.031.122-.031.182v.243l-.03.031c-.061.06-.243.06-.334.06h-.06c-.031 0-.061-.03-.061-.03l-.03-.03-.03-.03c0-.152-.031-.244-.031-.335a2.102 2.102 0 0 0-.091-.243c-.03-.06-.06-.121-.121-.152-.061-.03-.122-.03-.182-.06h-1.243s-.03.03-.03.06v1.672h.151c.273 0 .728.031.97 0 .06 0 .121-.03.152-.06.03-.03.06-.091.06-.152.03-.06.03-.091.06-.152 0-.06 0-.122.031-.182v-.03l.03-.031c.061-.03.243-.03.364 0h.061c.03 0 .03 0 .06.03l.03.03v.213a5.434 5.434 0 0 0-.03 1.398v.213l-.03.03c-.06.03-.242.061-.364.03h-.06s-.03 0-.06-.03h-.031v-.06c-.03-.122-.03-.183-.06-.213 0-.06 0-.091-.031-.152 0-.03-.03-.06-.06-.091a.232.232 0 0 0-.152-.06c-.182-.031-.819-.031-1.092-.031v1.52c0 .09.03.151.061.182.03 0 .03 0 .03.03h.03c.092.03.213.03.364.03.061 0 .091 0 .122.03h.697c.182 0 .273 0 .364-.06.09-.03.151-.091.242-.182.122-.152.212-.335.334-.517 0-.06.03-.091.03-.122a.23.23 0 0 0 .06-.121l.031-.06h.03c.061 0 .243.03.334.09 0 0 .03.03.06.03l.03.031.031.06v.031c-.03.182-.151.608-.273.942a.632.632 0 0 0-.06.183l-.091.182c-.03.03-.061.091-.152.122-.06.03-.182.06-.394.06h-1.091c-.425-.03-.88-.03-1.395-.03h-.818c-.273.03-.516.03-.758.03h-.03l-.03-.06c-.031-.061-.031-.213-.031-.304v-.061s0-.03.03-.06v-.031h.06c.152-.03.273-.03.395-.061.121 0 .212-.03.273-.06a.23.23 0 0 0 .151-.062c.03-.06.03-.152.06-.273V35.891c-.03-.09-.03-.182-.06-.212a.324.324 0 0 0-.151-.092c-.061 0-.122-.03-.213-.03zm3.578 1.337l.03-.091-.03.091zm.09-.06l-.06.06.06-.06zm6.852-.153c0-.03-.03-.06-.03-.09-.061-.274-.092-.487-.152-.639a.706.706 0 0 0-.334-.334 1.595 1.595 0 0 0-.454-.152c-.152-.03-.334-.03-.546-.03-.485 0-.88.182-1.152.547-.273.364-.424.912-.424 1.64 0 .578.12 1.186.454 1.642.303.425.819.73 1.516.73.152 0 .273 0 .424-.031.152-.06.273-.122.395-.213.12-.121.303-.334.485-.547.03-.06.06-.121.09-.152.03-.06.061-.09.091-.152v-.06l.061.03c.06 0 .182.06.273.121 0 .03.03.03.03.03.03.031.03.062.03.062l.03.03v.06c-.09.274-.302.73-.515 1.004-.06.06-.09.121-.12.152l-.122.121h-.03a2.329 2.329 0 0 1-.546.152c-.212.03-.485.061-.819.061-1 0-1.788-.243-2.334-.73-.545-.516-.849-1.245-.849-2.218 0-.73.243-1.428.758-1.945.091-.091.212-.213.334-.273.121-.092.242-.183.364-.244.242-.121.515-.212.818-.303a5.079 5.079 0 0 1 1-.092c.485 0 .94.061 1.304.122.182 0 .364.03.485.03h.121l-.03.122c-.03.213-.091.638-.121 1.003v.455l-.03.031c-.03.03-.061.06-.152.06-.03.031-.091.031-.152.031-.06 0-.121-.03-.151-.03zm22.223 3.497v-.06l.03-.031h.03c.304-.061.486-.091.607-.182.121-.092.212-.244.333-.517a63.58 63.58 0 0 0 1.122-2.887c.06-.183.121-.334.182-.426.03-.121.06-.243.09-.334.061-.122.122-.304.152-.456 0-.03.03-.06.03-.091v-.06l.031-.092h.06c.061.03.092.03.152.03h.485c.06 0 .121 0 .182-.03h.06l.031.091c.03.091.06.243.121.365v.06c.03.031.03.061.03.092.061.152.183.517.334.911.334.943.788 2.158 1.03 2.705.122.335.213.517.334.639.091.09.273.121.576.182h.03l.031.03c.03.061.03.213.03.334 0 .03-.03.03-.03.061 0 .03-.03.03-.03.061l-.03.03h-.031c-.09 0-.273 0-.485-.03h-1.668c-.15.03-.303.03-.394.03h-.06l-.03-.06c0-.061-.03-.213-.03-.304 0-.03 0-.03.03-.061v-.06l.03-.031h.03s.03 0 .06-.03c.183 0 .304-.031.365-.092.06 0 .06-.03.06-.03v-.03c-.06-.213-.182-.578-.303-.882 0-.06-.03-.121-.06-.182 0-.03-.03-.091-.03-.122-.031 0-.031 0-.031-.03H69.09v.06a6.06 6.06 0 0 0-.182.426c-.091.274-.182.547-.182.638 0 .03 0 .092.03.122s.06.06.152.06c.06 0 .09.031.151.031.091.03.182.03.303.06h.03l.031.031c.03.061.03.213 0 .334v.061l-.03.03-.03.061h-.03c-.122 0-.274 0-.456-.03h-1.242c-.182.03-.334.03-.455.03h-.06l-.031-.06c-.03-.03-.03-.213-.03-.304 0-.03 0-.03.03-.061zm2.759-3.586c0-.03 0-.03-.03-.06l-.486 1.458h1.001a58.79 58.79 0 0 0-.395-1.155c-.03-.091-.06-.182-.09-.243zm5.001-1.003c-.09-.03-.182-.03-.273-.03l-.03-.03h-.03c-.03-.061-.03-.153-.03-.244 0-.06.03-.152.03-.213h.03l.03-.03h.334c.212 0 .515.03.94.03.454 0 .727-.03.94-.03h.363l.03.03c.03.061.03.152.03.244 0 .09 0 .182-.06.212v.03h-.03c-.121 0-.243.031-.334.031 0 .03-.03.03-.03.03h-.06c-.061.03-.091.061-.122.092-.03.06-.03.152-.03.243v1.428c.06.03.273.03 1.182.03.364 0 .637 0 .758-.03h.303v-.76c0-.273 0-.547-.03-.76 0-.06 0-.09-.03-.151 0-.03-.03-.061-.061-.061h-.03c-.091-.061-.243-.061-.486-.091h-.03l-.03-.03v-.031c-.03-.03-.06-.122-.03-.213 0-.091 0-.152.03-.213h.03l.03-.03h.456c.213.03.485.03.85.03.423 0 .696-.03.909-.03h.331l.03.03h.03c.031.061.031.122.031.213s0 .183-.03.243h-.03l-.031.03c-.09 0-.182 0-.242.031-.091 0-.152.03-.182.06h-.03c-.061 0-.092.031-.122.092-.03.03-.03.122-.03.243-.03.365-.03.669-.03 1.185.03.243.03.547.03.7v1.762c0 .121.03.182.06.243 0 .03.03.06.091.091.091.061.243.061.455.091.03 0 .06.03.121.03h.03l.03.062c.031.03 0 .212 0 .303-.03.03-.03.03-.03.061 0 .03-.03.061-.03.061l-.03.03h-.03c-.091 0-.273-.03-.516-.03H78.67c-.212 0-.394.03-.485.03h-.06v-.03s-.031 0-.031-.03c-.03-.03-.03-.122-.03-.213s0-.182.03-.213c0 0 .03 0 .03-.03h.03c.122-.03.182-.03.273-.061.061 0 .122-.03.182-.03.06-.03.091-.03.122-.091.03-.03.03-.122.06-.244v-1.55H76.79c-.151 0-.212 0-.242.03v1.46c0 .121 0 .212.03.273.03.03.091.091.152.091.06.03.151.03.242.061.06.03.182.03.273.06h.03l.03.031c.031.03.031.152.031.243-.03.091-.06.183-.09.213v.03h-.062c-.272 0-.212-.03-.424-.03h-1.728c-.212 0-.364.03-.455.03h-.03l-.03-.03v-.03c-.03-.03-.06-.122-.06-.213s.03-.182.06-.213v-.03h.06c.152-.03.243-.061.334-.061.03 0 .06-.03.09-.03.092-.03.152-.061.183-.122.03-.06.03-.182.06-.365v-3.555a.574.574 0 0 0-.06-.243c0-.03-.061-.061-.122-.061a.561.561 0 0 0-.212-.061zm-24.8 4.983h-1.03c-.152 0-.334.03-.455.03h-.06l-.03-.03c-.061-.06-.092-.212-.061-.334v-.06c0-.031 0-.062.03-.062l.03-.03h.03c.031-.03.092-.03.152-.03.212-.03.364-.061.455-.092.06-.03.121-.06.152-.121.03-.03.03-.122.03-.182.03-.274.03-.943.03-1.702v-2.25h-.97c-.06 0-.09.031-.151.062-.03.03-.061.06-.091.151a5.09 5.09 0 0 0-.091.335c-.03.121-.061.273-.061.425l-.03.03v.031c-.03.03-.243.06-.364.03h-.06s-.031-.03-.061-.03l-.03-.03V36.408c-.031-.456-.061-.882-.152-1.186v-.06l.03-.03s.03-.061.06-.092h.031c0-.03.03-.03.03-.03h.03c.122.03.213.03.334.06h4.365c.152-.03.243-.03.364-.06.06 0 .122.06.122.09.03 0 .03 0 .03.031l.03.03-.03.061c-.06.304-.091.73-.121 1.186v.273l-.03.03-.031.031c-.03.03-.212.06-.334.03h-.06c-.03 0-.06-.03-.06-.03l-.031-.03v-.03c-.03-.153-.03-.305-.06-.426-.031-.122-.061-.243-.092-.334a.326.326 0 0 0-.09-.152.43.43 0 0 0-.183-.061h-.939v.76c0 1.245 0 2.765.03 3.19 0 .061 0 .152.03.183.03.06.061.091.152.121.09.03.242.061.455.092.06 0 .12 0 .151.03h.03l.03.03c.031.03.031.213.031.335-.03 0-.03.03-.03.06s-.03.03-.03.061l-.03.03h-.031c-.121 0-.303-.03-.515-.03h-.85zm2.547-5.41l.06-.03-.06.03zm.06-.03l-.06.061.06-.06zm-3.334.578v-.03.03zm0-.03v.03-.03zm14.158 2.795c0 .274 0 .851.03 1.155 0 .091 0 .152.031.213.03.06.091.091.182.121.152.03.303.061.485.092h.121l.03.03c0 .03 0 .03.03.06v.061a.94.94 0 0 1-.06.335l-.03.03h-.03c-.182 0-.425 0-.667-.03h-1.425c-.243.03-.455.03-.637.03h-.06v-.06c-.03 0-.03-.031-.03-.061 0 0 0-.03-.031-.061 0-.091 0-.243.03-.304l.03-.03h.03c.092 0 .183-.03.274-.03.06 0 .121-.031.212-.062.06 0 .121-.06.151-.09.03-.062.03-.183.03-.305V39.234c.031-.334.031-.85.031-1.58 0-.942 0-1.429-.03-1.672 0-.152 0-.243-.03-.273-.03-.061-.092-.091-.182-.122-.091 0-.152-.03-.213-.03-.06 0-.151-.03-.242-.03l-.06-.031v-.03c0-.03-.031-.03-.031-.061v-.06c0-.092.03-.244.06-.305l.03-.03h.031c.121 0 .273 0 .485.03h1.516c.273 0 .546-.03.849-.03.121 0 .333.03.545.06.061.03.091.03.122.03.182.062.364.122.545.244l.122.122c.06.03.09.09.121.121.212.274.364.608.364 1.064 0 .243-.03.425-.091.608-.03.09-.06.152-.091.212a1.626 1.626 0 0 1-.697.73c-.061.03-.091.06-.152.09a.51.51 0 0 0-.151.062 2.255 2.255 0 0 1-.789.121h-.758zm0-.577h.606c.061 0 .122 0 .213-.03.06 0 .121-.03.151-.061.152-.091.243-.213.334-.365a1.71 1.71 0 0 0 .09-.608c0-.364-.09-.668-.272-.881-.182-.243-.455-.365-.849-.365-.03 0-.06 0-.121.03h-.091c-.03.031-.03.031-.03.061-.03.122-.03.304-.03.578v1.641zm-33.681.608c0 .274 0 .851.031 1.125 0 .091 0 .182.06.243.031.06.061.091.152.122.152.03.303.03.485.06h.091l.03.03.03.031s.031.03.031.061v.06c.03.092 0 .244-.06.305l-.03.03h-.699c-.243 0-.485-.03-.728-.03-.212 0-.454.03-.697.03h-.667l-.03-.03c0-.03-.03-.03-.03-.061v-.06c-.03-.123 0-.274.03-.305v-.03l.06-.03c.091 0 .182 0 .243-.031.06 0 .152 0 .212-.03.091-.03.121-.061.152-.122.03-.06.03-.152.03-.273 0-.061.03-.092.03-.152V37.685c0-.942 0-1.428-.03-1.702 0-.121 0-.213-.03-.273-.03-.061-.091-.061-.182-.092-.06-.03-.121-.03-.212-.03-.06-.03-.152-.03-.243-.06h-.03l-.03-.031v-.06c0-.031-.03-.062-.03-.062 0-.121.03-.273.06-.304l.03-.03h.546c.182 0 .424.03.667.03.303 0 .546-.03.818-.03h.85c.15 0 .363 0 .575.06.03 0 .06 0 .091.031.182.03.394.122.546.243.06.03.09.061.121.122.06.03.091.06.152.121.212.244.363.578.363 1.064 0 .213-.06.426-.12.608 0 .06-.031.121-.062.213a1.802 1.802 0 0 1-.697.729h-.03a.232.232 0 0 1-.152.06.23.23 0 0 1-.12.062 2.576 2.576 0 0 1-.79.151H29.8zm0-.577h.607c.091 0 .152 0 .212-.03s.122-.03.182-.092a.658.658 0 0 0 .303-.334c.06-.152.091-.364.091-.608 0-.395-.09-.698-.273-.911-.181-.213-.454-.335-.818-.335h-.182c-.03 0-.03.03-.06.03-.031 0-.031.031-.031.062v.577c-.03.273-.03.699-.03 1.368v.273zm30.013-.063c0 .456-.06.85-.212 1.215-.152.335-.364.669-.637.912a3.26 3.26 0 0 1-.94.578 3.658 3.658 0 0 1-2.668-.153 2.726 2.726 0 0 1-1.03-1.002c-.273-.426-.394-.973-.394-1.55 0-.456.09-.851.242-1.216a2.1 2.1 0 0 1 .607-.912 2.32 2.32 0 0 1 .94-.577 2.879 2.879 0 0 1 1.151-.213c.546 0 1.031.122 1.486.365.454.213.818.547 1.06 1.003.274.456.395.972.395 1.55zm-1.455 0c0-.669-.091-1.216-.303-1.672-.213-.456-.607-.699-1.183-.699-.364 0-.636.122-.879.365a2.218 2.218 0 0 0-.455.881 4.57 4.57 0 0 0-.151 1.125c0 .638.121 1.185.333 1.64.243.457.637.7 1.183.7.545 0 .94-.243 1.151-.7.213-.455.304-1.002.304-1.64z" fill="#F7B941"/><path d="M4.82 42.82l3.426-3.708-1.455-4.528-.09-.334.242-.182 4.213-3.01-.272-4.74-.03-.304.272-.122 4.942-2.188.848-4.77.03-.274.243-.061 5.396-1.277 1.971-4.558.09-.243h.244l5.608-.304 3.092-4.133.121-.183.212.03 5.609.73 4.002-3.495.151-.121.182.06 5.336 1.733 4.79-2.675.181-.09.152.09 4.85 2.644 5.275-1.793.182-.06.182.121 4.002 3.465 5.608-.76.212-.03.121.182 3.153 4.072 5.639.274h.212l.121.212 2.001 4.559 5.396 1.246.243.06.06.274.94 4.741 4.82 2.158.273.091-.03.304-.182 4.802 4.275 2.978.272.182-.091.334-1.364 4.529 3.426 3.707.212.243-.182.304-2.395 4.133 2.426 4.224.181.274-.242.243-3.365 3.677 1.394 4.59.122.334-.273.182-4.244 3.009.333 4.74.03.304-.272.122-4.881 2.188-.91 4.771-.06.243-.243.061-5.305 1.337-2 4.529-.092.243h-.242l-5.639.273-3.032 4.103-.151.182h-.212l-5.639-.73-3.971 3.496-.182.121-.182-.06-5.366-1.733-4.73 2.675-.181.09-.182-.09-4.82-2.584-5.305 1.763-.213.06-.151-.12-4.032-3.496-5.608.76-.213.03-.12-.151-3.123-4.103-5.609-.243h-.212l-.121-.213-2.062-4.528-5.366-1.276-.242-.061-.06-.274-.94-4.71-4.912-2.188-.272-.122.03-.304.212-4.74-4.244-3.04-.243-.182.091-.304 1.365-4.528-3.365-3.677-.213-.243.152-.274 2.395-4.255-2.486-4.163-.152-.304.213-.243zm4.124-3.282l-3.335 3.647 2.395 4.133.151.212-.12.243-2.366 4.164 3.335 3.647.152.182-.06.243-1.365 4.468 4.183 2.978.182.121v.243l-.212 4.711 4.85 2.127.213.092.03.212.91 4.68 5.305 1.277.182.06.09.183 2.062 4.437 5.518.243h.181l.122.152 3.092 4.042 5.548-.76h.151l.121.091 4.002 3.465 5.305-1.733.121-.06.152.06 4.79 2.553 4.699-2.644.121-.06.152.03 5.335 1.732 3.971-3.464.122-.122.151.03 5.578.73 3.002-4.072.12-.152.183-.03 5.578-.274 1.97-4.498.091-.182.182-.03 5.275-1.307.88-4.711.06-.213.182-.09 4.82-2.189-.334-4.65v-.243l.182-.152 4.184-2.978-1.395-4.528-.09-.243.181-.213 3.335-3.617-2.395-4.133-.121-.243.121-.212 2.365-4.103-3.365-3.647-.182-.182.09-.274 1.335-4.467-4.214-2.918-.182-.121.03-.274.182-4.74-4.79-2.098-.212-.09-.03-.244-.91-4.68-5.335-1.246-.182-.06-.091-.183-2-4.498-5.549-.243h-.181l-.122-.152-3.092-4.042-5.578.76-.152.03-.151-.121-3.972-3.434-5.244 1.793-.152.06-.12-.09-4.79-2.645-4.76 2.675-.152.06-.151-.03-5.275-1.732-3.972 3.464-.121.122-.151-.03-5.548-.73-3.062 4.072-.091.152h-.182l-5.578.304-1.94 4.528-.091.213-.182.03-5.305 1.247-.819 4.74-.06.213-.182.091-4.881 2.158.273 4.71.03.244-.182.152-4.153 2.947 1.425 4.468.06.273-.181.183z" fill="#EF8F27"/></symbol><symbol viewBox="0 0 16 16" id="modal-close"><path fill-rule="evenodd" clip-rule="evenodd" d="M15.211 13.446L9.908 8.143l5.303-5.304a1.25 1.25 0 0 0-1.767-1.767L8.14 6.375 2.837 1.072a1.25 1.25 0 1 0-1.768 1.767l5.304 5.304-5.304 5.303a1.25 1.25 0 1 0 1.768 1.768L8.14 9.91l5.304 5.304a1.25 1.25 0 1 0 1.767-1.768z"/></symbol><symbol viewBox="0 0 45 45" id="view"><path d="M44.61 42.705L33.674 31.77a19.107 19.107 0 0 0 4.71-12.582C38.383 8.601 29.77 0 19.192 0 8.602 0 0 8.61 0 19.187c0 10.577 8.613 19.188 19.192 19.188 4.81 0 9.211-1.776 12.584-4.71l10.939 10.936c.26.26.608.399.948.399a1.349 1.349 0 0 0 .948-2.295zM2.686 19.187c0-9.1 7.405-16.493 16.497-16.493 9.101 0 16.497 7.404 16.497 16.493 0 9.09-7.396 16.504-16.497 16.504-9.092 0-16.497-7.404-16.497-16.504z"/></symbol><symbol viewBox="0 0 32 32" id="vk"><path fill-rule="evenodd" clip-rule="evenodd" d="M16 29c7.18 0 13-5.82 13-13S23.18 3 16 3 3 8.82 3 16s5.82 13 13 13zm7.906-8.4l.004.01c.02.046.041.124.06.24a.67.67 0 0 1-.003.304c-.022.091-.097.173-.221.248a.714.714 0 0 1-.234.087 1.46 1.46 0 0 1-.288.026l-2.274.034a.97.97 0 0 1-.497-.043 2.128 2.128 0 0 1-.463-.198l-.177-.107a4.163 4.163 0 0 1-.622-.573c-.24-.257-.442-.486-.61-.693a2.924 2.924 0 0 0-.54-.52c-.193-.138-.358-.185-.5-.138l-.025.009a.367.367 0 0 0-.047.022.642.642 0 0 0-.153.129 1.27 1.27 0 0 0-.19.263 1.69 1.69 0 0 0-.152.464 2.814 2.814 0 0 0-.059.693c0 .09-.01.172-.031.247a.49.49 0 0 1-.065.166l-.034.044c-.106.113-.262.179-.47.198h-1.02A3.982 3.982 0 0 1 14 21.364a4.963 4.963 0 0 1-1.166-.473 11.146 11.146 0 0 1-.915-.592c-.273-.2-.481-.37-.624-.514l-.221-.217c-.06-.06-.143-.15-.246-.27a22.44 22.44 0 0 1-.634-.814c-.32-.423-.634-.875-.942-1.351a26.09 26.09 0 0 1-1.088-1.887A26.477 26.477 0 0 1 7.01 12.8a1.03 1.03 0 0 1-.039-.124.515.515 0 0 1-.014-.117.29.29 0 0 1 .027-.145l.035-.053c.09-.113.257-.17.507-.17l2.43-.018c.072.013.14.031.206.06.066.025.115.05.143.075l.043.028c.097.066.168.16.215.285.118.301.252.608.407.928.153.32.274.564.364.73l.143.26a9.837 9.837 0 0 0 .498.931c.079.13.153.244.224.344.073.105.143.196.208.27.124.148.249.261.367.346a.8.8 0 0 0 .173.098.35.35 0 0 0 .128.027.688.688 0 0 0 .24-.044.132.132 0 0 0 .043-.044 2.73 2.73 0 0 0 .106-.197 1.41 1.41 0 0 0 .12-.42c.026-.173.054-.414.085-.724.012-.134.02-.197.02-.261.003-.086-.004-.17-.02-.42a4.412 4.412 0 0 0-.08-.652 1.792 1.792 0 0 0-.125-.41l-.053-.107c-.15-.204-.4-.332-.755-.385-.078-.013-.063-.085.043-.217.1-.116.211-.203.336-.27.314-.156 1.02-.228 2.12-.215.486.006.883.043 1.198.116.061.016.118.035.17.057.046.02.09.04.128.065a.517.517 0 0 1 .183.216c.04.091.072.188.093.285.022.1.032.235.032.408 0 .172-.004.338-.01.492-.003.066-.005.061-.008.056-.004-.008-.008-.016-.014.135a22.41 22.41 0 0 0-.012.74c0 .066-.003.191-.01.376l-.002.096c-.002.14-.003.251 0 .334.003.103.012.222.03.363.02.138.053.254.103.348.05.094.115.166.2.22.05.009.099.021.152.034.052.013.13-.019.23-.097a2.827 2.827 0 0 0 .545-.551c.077-.1.161-.218.253-.355.184-.273.386-.593.604-.962a14.49 14.49 0 0 0 .951-2.013.587.587 0 0 1 .087-.157.375.375 0 0 1 .097-.094l.034-.028.043-.022.116-.028a.452.452 0 0 1 .143-.011.151.151 0 0 1 .034.008l2.555-.019c.23-.031.42-.022.57.022.146.044.239.094.273.147l.053.088c.137.38-.308 1.257-1.33 2.63-.144.191-.337.445-.58.762-.46.595-.727.987-.798 1.172-.1.245-.06.486.124.724.1.126.339.37.718.734h.01l.019.018.018.02c.834.78 1.4 1.441 1.694 1.977.018.03.035.064.055.104z"/><path fill-rule="evenodd" clip-rule="evenodd" d="M32 16c0 8.837-7.164 16-16 16S0 24.837 0 16 7.164 0 16 0s16 7.163 16 16zm-1 0c0 8.284-6.716 15-15 15-8.284 0-15-6.716-15-15C1 7.716 7.716 1 16 1c8.284 0 15 6.716 15 15z"/></symbol></svg>