<svg version="1" xmlns="http://www.w3.org/2000/svg" width="933.333" height="933.333" viewBox="0 0 700.000000 700.000000"><path d="M0 350v350h700V0H0v350zM382.5 50.1c22.4 2.1 44.2 8.1 61.4 16.9l9.5 4.9 12-7.3c6.7-4 15.4-9 19.4-11L492 50v9.6l-9 5.8c-4.9 3.1-11.4 7.7-14.4 10l-5.5 4.3 5 5.9c12.7 14.8 18.8 30 19.6 48.4 1.3 30.1-11.6 58.4-38.1 83.7-21.1 20.2-41 28.9-64.1 28.1-8.8-.3-10.8-.7-16-3.3-3.3-1.7-7.2-4.7-9-6.8-2.8-3.6-3-4.5-3-11.5.1-6.1.6-8.7 2.4-12.2 3-5.7 18.2-20.8 24.1-23.9l4.6-2.4 3.8 2 3.8 2-7.3 6c-14.4 11.8-20.8 20.5-20.9 28.3 0 7.5 5.7 11.3 17 11.4 15.3.1 28.3-6.2 44.2-21.3 15.4-14.6 26.8-30.9 33.4-47.8 5.1-12.9 6.8-22.2 6.8-35.8 0-12.8-1.4-19.6-5.9-28.5-2.6-5.2-10.1-15-11.4-15-2.1 0-17.6 13.7-30.1 26.6-27.8 28.6-46.5 53.2-91.7 120.9-13.3 19.8-27.7 40.7-32.2 46.4-35 45.1-72.1 73.5-114.8 88-22.5 7.7-43.8 11.1-69.8 11.1-42.5 0-69-12.5-72.4-34.2-1.8-11.1 1.7-21.3 10.5-30.1 11.9-12 29.9-15.5 38.9-7.6 7 6.1 6.6 15.6-.7 20.9-5.1 3.7-10.3 3.9-19.9.8-5.9-1.9-7.1-2-9.9-.8-4.9 2-8 7.4-8 14 0 11.7 8.8 18.6 30.3 23.7 9.3 2.3 43.5 2.5 54.2.4 20.5-4 39-11.1 54.3-20.8 30.9-19.7 68-59.5 121.7-130.8 31.7-42.1 47.8-61 75.4-88.6 18-17.9 36.8-34.2 49.8-42.9 2.9-1.9 5.1-3.9 5-4.4-.5-1.6-14.9-8.5-24.2-11.5-26.7-8.7-63.7-11.2-99.6-6.7-56.8 7.2-114 34.4-150.9 71.7-14.9 15.1-26.7 33.9-30.5 48.8-2.4 9.2-2.2 22.3.4 29.2 10.3 27.5 54.3 29 94.9 3.2 17.2-11 40.2-32 54.9-50.3 14.8-18.4 28.9-41.3 39.4-63.6l4.9-10.5 3.8.7c2 .4 3.9.8 4.1 1 1.5 1.4-14 37.6-22.5 52.6-22.6 39.9-53.2 71.6-84.6 87.7-10.5 5.4-25.4 10.4-35.8 12.1-17.4 2.7-36.5.5-48.7-5.6-19.6-10-28.6-33.3-22.3-58 11.2-44.2 66.7-92.3 133.1-115.3 40.5-14.1 81.3-19 123.4-15zM429 301.5c18.3.7 36.4 2.2 83 7.1 64.9 6.7 88.6 5.8 113.4-4.7l7-3 2.9 2.9 2.9 2.9-4.4 2.5c-28.8 16.8-65 24.2-106.4 21.8-18.1-1.1-23-1.6-65.9-7-40.4-5.1-48.6-5.9-69-6.9-28.1-1.5-48.8.8-68.9 7.4-38 12.4-70.5 40.7-80.3 70-2.4 7-2.7 9.6-2.8 21 0 12.3.2 13.4 2.9 19.3 10.5 22.8 42.5 31.7 79 22.2 36.1-9.5 72-39.7 97.5-82.1 6.8-11.4 6.8-11.4 11-11.7 2.2-.2 4.1-.1 4.1.1 0 1.1-5.7 14.2-9.5 21.7-15.3 30.4-42.4 57.8-72.2 72.8-9.4 4.8-25.1 9.9-36.2 11.7-14.3 2.4-37.7 1.7-47.6-1.5-20-6.3-34.2-19.9-38.7-36.9-3.9-15.3-1-34.8 7.8-52.4 15.1-29.8 55.4-58.9 97.4-70.2 20.5-5.5 48.9-8.7 69.5-7.9 4.4.2 15 .6 23.5.9zm91 49.5c0 .3-3.9 3.9-8.6 8-12.8 11.1-32.7 33.1-46.6 51.5-8.9 11.9-24.9 36.5-42.3 65.5-19.9 33.1-30.8 49.9-42.7 65.7-37.5 50-74.8 80.1-115.9 93.8-46.9 15.5-100.5 10.6-116-10.8-5-6.9-6.2-10.5-6.3-19.2-.1-6.7.3-8.9 2.6-13.8 3.4-7.2 12.4-16.4 19.7-20 6.9-3.4 15.9-3.7 20.8-.7 7.7 4.6 9.1 16.5 2.7 23.1-4.4 4.6-8.1 5.3-17.3 3.4-4.4-1-9.1-1.5-10.6-1.1-3.6.9-6.5 6.1-6.5 11.7 0 9.7 10.2 18.6 27 23.5 9.6 2.8 36.9 2.6 49.5-.3 28.8-6.7 49.1-19 76.1-45.8 22.4-22.4 37.8-41.3 66.2-81.4 51.8-73.3 93.6-120.8 136.2-154.9l6.4-5.1 2.8 3.2c1.5 1.8 2.7 3.4 2.8 3.7zm132 33.8c-8.1 6.9-16.1 15.5-24.4 26.2-17.5 22.8-25.9 37.4-44.8 77.9-27 58.1-45.6 88.1-68.7 111.1-16.6 16.5-27.8 24.6-48.4 34.9l-15.7 7.9 6.7.9c13 1.6 38.9.8 49-1.5 21.2-4.8 34.1-12.1 50.8-28.7 13.6-13.5 23.8-25.7 37.8-45.6 10.5-14.8 12.1-16.6 13.2-14.9.8 1.4-1.6 5.1-16.1 24.6-23.2 31.3-43.7 52-60 60.2-6.9 3.5-19.4 7.1-30.3 8.7-13.8 2.1-39.9 2.1-51.3.1-8.7-1.6-8.8-1.6-17.5 1-6.5 1.9-12 2.7-20.9 3.1-12.9.6-16.4-.2-16.4-3.7 0-5.3 10.5-7.2 30.7-5.8 13.7 1 14.4 1 20-1.2 12.1-4.8 21.4-11.1 32.4-22 17.2-17.1 26.8-32.7 56.7-92.5 10.4-21 21.4-42.1 24.4-47 16.9-28.3 48.3-62.5 82.4-89.8 10.8-8.7 20.1-12.2 10.4-3.9zm-98.9 25.1c-.6 1-4.6 4.8-8.9 8.4-14.3 11.8-25.6 25.2-38.3 45.2-6.1 9.8-17.7 32.2-21.5 41.7-1 2.7-2.3 4.8-2.9 4.8-.5 0-3.1 4-5.8 8.9-5.6 10.6-14.7 24.6-23.1 35.6-8.2 10.8-31.7 34.7-50.9 51.8-17.6 15.7-23.3 20.1-28.4 21.8-6.8 2.2-5.4-.9 3.3-7.5 8.9-6.6 25.1-23.9 33.1-35.2 9.8-13.9 16.2-24.9 23.8-41 17.9-38 31-57.6 54.2-81.5 15.2-15.6 54.6-51.8 56.6-51.9.1 0 2-.7 4.2-1.5 5.3-1.9 5.8-1.8 4.6.4z"/></svg>