<svg width="92" height="92" viewBox="0 0 92 92" xmlns="http://www.w3.org/2000/svg">
<path fill-rule="evenodd" clip-rule="evenodd" d="M46 89.125C69.8173 89.125 89.125 69.8173 89.125 46C89.125 22.1827 69.8173 2.875 46 2.875C22.1827 2.875 2.875 22.1827 2.875 46C2.875 69.8173 22.1827 89.125 46 89.125ZM46 92C71.4051 92 92 71.4051 92 46C92 20.5949 71.4051 0 46 0C20.5949 0 0 20.5949 0 46C0 71.4051 20.5949 92 46 92Z"/>
<path d="M29.4941 46.8058C31.8164 40.2913 37.8398 35.7872 44.832 35.3308C45.5215 35.2864 46.043 34.6994 45.998 34.0185C45.9492 33.3377 45.3301 32.8271 44.668 32.8691C36.6719 33.3896 29.7891 38.5375 27.1348 45.9869C26.9082 46.6307 27.25 47.3336 27.9004 47.5606C28.0371 47.6074 28.1777 47.6296 28.3145 47.6296C28.8301 47.6296 29.3145 47.3115 29.4941 46.8058Z"/>
<path fill-rule="evenodd" clip-rule="evenodd" d="M46 83.375C66.6426 83.375 83.375 66.6417 83.375 46C83.375 25.3583 66.6426 8.625 46 8.625C25.3574 8.625 8.625 25.3583 8.625 46C8.625 66.6417 25.3574 83.375 46 83.375ZM49.7109 27.2268C49.6621 27.5645 49.5645 27.8875 49.4277 28.1898C60.75 29.7266 69.6973 38.73 70.8457 50.1334H21.1523C22.3008 38.725 31.2441 29.7266 42.5723 28.1898C42.498 28.0239 42.4355 27.8519 42.3848 27.6745C42.332 27.4879 42.2949 27.2955 42.2734 27.0984C42.2578 26.9676 42.25 26.8347 42.25 26.7C42.25 24.66 43.9316 23 46 23C48.0684 23 49.75 24.66 49.75 26.7C49.75 26.879 49.7363 27.0548 49.7109 27.2268ZM74.75 52.6C75.1816 52.6 75.584 52.822 75.8145 53.1846C76.043 53.5496 76.0605 54.001 75.8691 54.3858C74.1094 57.849 70.582 60 66.6602 60H25.3398C21.4141 60 17.8867 57.849 16.1328 54.3834C16.0762 54.2726 16.0371 54.1559 16.0176 54.0371C16.0098 53.986 16.0039 53.9344 16.002 53.8829V53.7759C16.0059 53.6782 16.0234 53.5811 16.0508 53.4866C16.082 53.3816 16.127 53.2799 16.1875 53.1846C16.4141 52.822 16.8164 52.6 17.25 52.6H74.75Z"/>
</svg>
