<svg width="32" height="32" viewBox="0 0 32 32" xmlns="http://www.w3.org/2000/svg">
<path d="M15.9989 17.9597C14.3891 17.9597 13.0846 16.6587 13.0846 15.0532C13.0846 13.448 14.3891 12.147 15.9989 12.147C17.6086 12.147 18.9131 13.448 18.9131 15.0532C18.9131 16.6587 17.6086 17.9597 15.9989 17.9597Z"/>
<path fill-rule="evenodd" clip-rule="evenodd" d="M29 16C29 23.1797 23.1797 29 16 29C8.82031 29 3 23.1797 3 16C3 8.82031 8.82031 3 16 3C23.1797 3 29 8.82031 29 16ZM15.7861 9.00391C12.7979 9.1084 10.3154 11.4333 10.0286 14.4014C9.96997 14.9949 10.0039 15.5701 10.1087 16.1206L10.1112 16.1357L10.1195 16.1797C10.1257 16.2107 10.1352 16.2537 10.1488 16.3081C10.2413 16.7202 10.3801 17.1201 10.5528 17.4954C11.1541 18.9163 12.545 21.2935 15.6658 23.8801C15.857 24.04 16.1376 24.04 16.3319 23.8801C19.4528 21.2966 20.8436 18.9192 21.448 17.4922C21.6238 17.1169 21.7595 16.7202 21.852 16.3052C21.863 16.2573 21.8716 16.2178 21.878 16.1877C21.8876 16.1421 21.8921 16.1174 21.8921 16.1174C21.963 15.7483 22 15.3701 22 14.9827C22 11.6057 19.1968 8.88379 15.7861 9.00391Z"/>
<path fill-rule="evenodd" clip-rule="evenodd" d="M32 16C32 24.8367 24.8365 32 16 32C7.16345 32 0 24.8367 0 16C0 7.16333 7.16345 0 16 0C24.8365 0 32 7.16333 32 16ZM31 16C31 24.2842 24.2843 31 16 31C7.71573 31 1 24.2842 1 16C1 7.71582 7.71573 1 16 1C24.2843 1 31 7.71582 31 16Z"/>
</svg>
