<svg width="32" height="32" viewBox="0 0 32 32" xmlns="http://www.w3.org/2000/svg">
<path fill-rule="evenodd" clip-rule="evenodd" d="M29 16C29 23.1797 23.1797 29 16 29C8.82031 29 3 23.1797 3 16C3 8.82031 8.82031 3 16 3C23.1797 3 29 8.82031 29 16ZM20.7742 21.8943C20.3757 22.345 17.5069 25.1719 13.1852 18.5896C8.62982 11.6499 11.3611 9.74951 12.5461 9.2793C12.5649 9.27173 12.5837 9.26611 12.6027 9.25903C12.6359 9.24658 12.6671 9.2356 12.6974 9.22534L12.7373 9.21191C12.904 9.15845 13.0101 9.14087 13.0101 9.14087L13.0088 9.14893C13.794 9.0144 14.5304 9.31885 14.6713 9.99243L14.9189 11.5217C15.0873 12.325 14.4372 13.29 13.467 13.6782L13.3885 13.7092C13.9019 15.4534 14.9384 17.4609 16.9703 19.2878L17.1198 19.1606C17.9103 18.4868 19.0832 18.3535 19.7403 18.8616L20.8951 19.844C21.536 20.3401 21.5117 21.2239 20.7742 21.8943Z"/>
<path fill-rule="evenodd" clip-rule="evenodd" d="M32 16C32 24.8367 24.8365 32 16 32C7.16345 32 0 24.8367 0 16C0 7.16333 7.16345 0 16 0C24.8365 0 32 7.16333 32 16ZM31 16C31 24.2842 24.2843 31 16 31C7.7157 31 1 24.2842 1 16C1 7.71582 7.7157 1 16 1C24.2843 1 31 7.71582 31 16Z"/>
</svg>
