<svg width="32" height="32" viewBox="0 0 32 32" xmlns="http://www.w3.org/2000/svg">
<path d="M16 16.3875H18.6052C18.8192 16.3875 18.9927 16.2141 18.9927 16C18.9927 15.7859 18.8192 15.6123 18.6052 15.6123H16.3875V12.251C16.3875 12.0369 16.214 11.8633 16 11.8633C15.7859 11.8633 15.6124 12.0369 15.6124 12.251V16C15.6124 16.2139 15.7859 16.3875 16 16.3875Z"/>
<path fill-rule="evenodd" clip-rule="evenodd" d="M9.32181 16C9.32181 19.6824 12.3176 22.6782 16 22.6782C19.6824 22.6782 22.6782 19.6824 22.6782 16C22.6782 12.3176 19.6824 9.32178 16 9.32178C12.3176 9.32178 9.32181 12.3176 9.32181 16ZM21.0929 16C21.0929 16.2139 21.2664 16.3875 21.4804 16.3875H21.89C21.8032 17.7205 21.2722 18.9341 20.4435 19.8816L20.1394 19.5774C19.988 19.426 19.7427 19.426 19.5913 19.5774C19.44 19.7288 19.44 19.9741 19.5913 20.1255L19.8963 20.4304C18.9467 21.2666 17.7274 21.8027 16.3875 21.8899V21.4329C16.3875 21.2188 16.214 21.0452 15.9999 21.0452C15.7859 21.0452 15.6124 21.2188 15.6124 21.4329V21.8899C14.2675 21.8022 13.0441 21.2625 12.093 20.4211L12.4225 20.0916C12.5738 19.9404 12.5738 19.6948 12.4224 19.5437C12.2711 19.3923 12.0258 19.3923 11.8744 19.5437L11.5471 19.8711C10.7238 18.9253 10.1964 17.7156 10.1099 16.3875H10.5671C10.7812 16.3875 10.9547 16.2139 10.9547 16C10.9547 15.7859 10.7812 15.6123 10.5671 15.6123H10.1099C10.1972 14.2725 10.7334 13.0532 11.5695 12.1035L11.8745 12.4084C11.9501 12.4841 12.0493 12.522 12.1485 12.522C12.2476 12.522 12.3469 12.4841 12.4225 12.4084C12.5739 12.2571 12.5739 12.0117 12.4225 11.8604L12.1184 11.5562C13.0658 10.7278 14.2794 10.1968 15.6124 10.1099V10.5195C15.6124 10.7334 15.7859 10.907 16 10.907C16.214 10.907 16.3875 10.7334 16.3875 10.5195V10.1099C17.7155 10.1963 18.9252 10.7236 19.8711 11.5471L19.5913 11.8269C19.44 11.978 19.44 12.2236 19.5914 12.3748C19.6671 12.4504 19.7662 12.4883 19.8654 12.4883C19.9645 12.4883 20.0638 12.4504 20.1394 12.3748L20.4211 12.093C21.2625 13.0442 21.8024 14.2673 21.89 15.6123H21.4804C21.2664 15.6123 21.0929 15.7859 21.0929 16Z"/>
<path fill-rule="evenodd" clip-rule="evenodd" d="M29 16C29 23.1797 23.1797 29 16 29C8.82031 29 3 23.1797 3 16C3 8.82031 8.82031 3 16 3C23.1797 3 29 8.82031 29 16ZM16 8C11.5888 8 8 11.5889 8 16C8 20.4111 11.5888 24 16 24C20.4112 24 24 20.4111 24 16C24 11.5889 20.4112 8 16 8Z"/>
<path fill-rule="evenodd" clip-rule="evenodd" d="M32 16C32 24.8367 24.8365 32 16 32C7.16345 32 0 24.8367 0 16C0 7.16333 7.16345 0 16 0C24.8365 0 32 7.16333 32 16ZM31 16C31 24.2842 24.2843 31 16 31C7.71573 31 1 24.2842 1 16C1 7.71582 7.71573 1 16 1C24.2843 1 31 7.71582 31 16Z"/>
</svg>
