<svg width="32" height="32" viewBox="0 0 32 32" xmlns="http://www.w3.org/2000/svg">
<path fill-rule="evenodd" clip-rule="evenodd" d="M29 16C29 23.1797 23.1797 29 16 29C8.82031 29 3 23.1797 3 16C3 8.82031 8.82031 3 16 3C23.1797 3 29 8.82031 29 16ZM22.5714 10H9.42914C8.97064 10 8.61813 10.1477 8.37122 10.4431C8.12405 10.7385 8.0007 11.1079 8.0007 11.551C8.0007 11.9089 8.16443 12.2966 8.4917 12.7146C8.819 13.1321 9.16724 13.4602 9.53629 13.6987C9.73862 13.8352 10.3488 14.24 11.3667 14.9133C11.9162 15.2769 12.394 15.5935 12.8047 15.8669C13.1547 16.0999 13.4566 16.3015 13.7058 16.4688C13.7344 16.4878 13.7794 16.5186 13.8392 16.5593L14.0854 16.7288C14.2788 16.8623 14.4395 16.9702 14.5675 17.0527L14.6458 17.1023C14.6966 17.134 14.7509 17.167 14.8089 17.2014C14.8781 17.2422 14.9524 17.2849 15.0318 17.3296C15.1149 17.3765 15.1958 17.418 15.2746 17.4541C15.3679 17.4968 15.4581 17.532 15.5453 17.5598C15.706 17.6108 15.8548 17.6365 15.9916 17.6365H16.0094C16.0572 17.6365 16.1065 17.6333 16.1573 17.627C16.2517 17.6155 16.3513 17.593 16.4558 17.5598C16.6165 17.5085 16.7875 17.4319 16.9692 17.3296C17.1507 17.2273 17.3054 17.135 17.4336 17.0527C17.4975 17.0115 17.5697 16.9639 17.65 16.9099C17.7303 16.856 17.8189 16.7957 17.9157 16.7288C18.016 16.6594 18.0974 16.6035 18.1617 16.5596L18.2371 16.5081L18.2952 16.4688L22.4737 13.6987C22.9081 13.4092 23.2711 13.0596 23.5629 12.6506C23.8541 12.2415 24.0001 11.8125 24.0001 11.3638C24.0001 10.9888 23.8585 10.6677 23.576 10.4004C23.2932 10.1335 22.9583 10 22.5714 10ZM8.90186 14.6108C8.56265 14.395 8.26187 14.1479 8 13.8694V20.4529L11.9953 16.6389C11.196 16.1064 10.1662 15.4312 8.90186 14.6108ZM22.5709 21.9998C22.9305 21.9998 23.2422 21.8865 23.507 21.6626L18.9741 17.3354L18.8623 17.4119L18.6604 17.5508C18.3212 17.7893 18.0458 17.9756 17.8344 18.1089C17.623 18.2427 17.3418 18.3789 16.9907 18.5181C16.6394 18.6575 16.3121 18.7268 16.0085 18.7268H15.9908C15.6871 18.7268 15.3598 18.6575 15.0085 18.5181C14.6573 18.3789 14.376 18.2427 14.1649 18.1089L14.0658 18.0457L13.9761 17.9871L13.9059 17.9404C13.8158 17.8806 13.718 17.8142 13.6123 17.7412C13.5263 17.6819 13.4352 17.6184 13.3389 17.5508C13.2443 17.4846 13.1394 17.4119 13.026 17.3342L8.49222 21.6626C8.75711 21.8865 9.06894 21.9998 9.42856 21.9998H22.5709ZM20.0058 16.6406C20.857 16.073 21.8906 15.3967 23.1067 14.6108C23.4459 14.3894 23.7435 14.1423 23.9995 13.8694V20.4531L20.0058 16.6406Z"/>
<path fill-rule="evenodd" clip-rule="evenodd" d="M32 16C32 24.8367 24.8365 32 16 32C7.16345 32 0 24.8367 0 16C0 7.16333 7.16345 0 16 0C24.8365 0 32 7.16333 32 16ZM31 16C31 24.2842 24.2843 31 16 31C7.71573 31 1 24.2842 1 16C1 7.71582 7.71573 1 16 1C24.2843 1 31 7.71582 31 16Z"/>
</svg>
