<svg width="17" height="17" viewBox="0 0 17 17" xmlns="http://www.w3.org/2000/svg">
<path d="M14.6712 14.2343L16.6751 13.2325L11.2236 11.2241L13.2321 16.6755L14.2339 14.6717L16.3351 16.7729C16.3953 16.8331 16.4745 16.8634 16.5536 16.8634C16.6327 16.8634 16.7119 16.8331 16.7721 16.7729C16.893 16.652 16.893 16.4567 16.7721 16.3358L14.6712 14.2343ZM12.2671 12.2672L15.1207 13.3188L13.9192 13.9193L13.3187 15.1208L12.2671 12.2672Z"/>
<path d="M8.5 0C3.81325 0 0 3.81325 0 8.5C0 10.9755 1.06451 13.2068 2.75895 14.7616L2.75091 14.7687L3.02662 15.0011C3.04455 15.0163 3.06402 15.0286 3.08164 15.0435C3.22815 15.1649 3.37991 15.2802 3.53445 15.3918C3.58453 15.428 3.6346 15.4644 3.6856 15.4994C3.85065 15.6131 4.02004 15.721 4.19313 15.8233C4.23084 15.8455 4.26885 15.8672 4.30687 15.8888C4.49635 15.9967 4.68984 16.0984 4.88796 16.1917C4.90249 16.1985 4.91702 16.2047 4.93185 16.2115C5.57755 16.5116 6.26682 16.732 6.98762 16.8621C7.00647 16.8655 7.02533 16.8689 7.04449 16.8723C7.26827 16.911 7.49453 16.9419 7.72356 16.9626C7.75138 16.9651 7.77951 16.9666 7.80733 16.9691C8.03575 16.9879 8.26633 17 8.5 17C8.67093 17 8.80909 16.8618 8.80909 16.6909C8.80909 16.52 8.67093 16.3818 8.5 16.3818C8.30404 16.3818 8.10869 16.3722 7.91427 16.3577C7.88058 16.3552 7.84689 16.3531 7.81351 16.35C7.61755 16.3327 7.42251 16.3095 7.22933 16.278C7.22067 16.2764 7.21202 16.2749 7.20336 16.2733C6.79475 16.205 6.39262 16.1046 6.001 15.9732C5.98895 15.9692 5.97658 15.9652 5.96453 15.9608C5.77011 15.8947 5.57785 15.8217 5.389 15.7405L5.38498 15.7386C5.20633 15.6616 5.03107 15.5763 4.85798 15.4864C4.83542 15.4746 4.81255 15.4635 4.79029 15.4515C4.63235 15.3671 4.4778 15.2759 4.32542 15.1807C4.28029 15.1523 4.23547 15.1235 4.19096 15.0945C4.05064 15.0027 3.91216 14.9071 3.7774 14.8061C3.76349 14.7956 3.7502 14.7844 3.73629 14.7739C3.74618 14.7684 3.75607 14.7628 3.76596 14.7572L6.20995 13.4241C6.63031 13.1948 6.89149 12.7549 6.89149 12.2762L6.89118 11.1628L6.82009 11.0769C6.81329 11.0692 6.14504 10.2563 5.89251 9.15558L5.86438 9.03318L5.75898 8.96487C5.61031 8.86875 5.52129 8.70802 5.52129 8.53462V7.43889C5.52129 7.29516 5.58218 7.16133 5.69345 7.06087L5.79545 6.96876V5.24713L5.79267 5.20664C5.79175 5.19922 5.70056 4.45585 6.22416 3.859C6.67111 3.34962 7.43704 3.09091 8.5 3.09091C9.55895 3.09091 10.3224 3.34745 10.7706 3.85313C11.2936 4.4438 11.2079 5.20107 11.2073 5.20725L11.2045 6.96938L11.3065 7.06149C11.4175 7.16164 11.4787 7.29578 11.4787 7.43951V8.53524C11.4787 8.75562 11.3288 8.9556 11.1137 9.02205C10.9508 9.07213 10.8593 9.24553 10.9097 9.40842C10.9597 9.57131 11.1325 9.66249 11.296 9.61242C11.7751 9.46467 12.0969 9.03164 12.0969 8.53524V7.43951C12.0969 7.17153 11.9986 6.91158 11.8227 6.70727V5.26475C11.8388 5.10402 11.8957 4.199 11.2407 3.45224C10.6711 2.80191 9.74904 2.47273 8.5 2.47273C7.25096 2.47273 6.32895 2.80191 5.75929 3.45193C5.10433 4.19869 5.1612 5.10433 5.17727 5.26444V6.70696C5.00171 6.91127 4.90311 7.17122 4.90311 7.4392V8.53493C4.90311 8.87524 5.0558 9.19267 5.31729 9.40687C5.56765 10.3876 6.08291 11.1301 6.27331 11.3817V12.2762C6.27331 12.5284 6.13576 12.7602 5.91415 12.8814L3.47016 14.2145C3.39227 14.2568 3.315 14.3063 3.23773 14.3616C1.63076 12.9175 0.618182 10.825 0.618182 8.5C0.618182 4.15387 4.15387 0.618182 8.5 0.618182C12.8461 0.618182 16.3818 4.15387 16.3818 8.5C16.3818 8.67093 16.52 8.80909 16.6909 8.80909C16.8618 8.80909 17 8.67093 17 8.5C17 3.81325 13.1867 0 8.5 0Z" />
</svg>
