<svg width="17" height="17" viewBox="0 0 17 17" xmlns="http://www.w3.org/2000/svg">
<path d="M16.5539 13.1149L15.8936 12.6749C17.3828 10.0554 17.3662 6.8414 15.8499 4.23745C14.3337 1.6335 11.5468 0.0327723 8.53366 0.0352623C8.37719 0.0352623 8.25038 0.162088 8.25038 0.318562C8.25038 0.475036 8.37719 0.601862 8.53366 0.601862C11.3375 0.59977 13.932 2.08559 15.3492 4.50511C16.7664 6.9246 16.7935 9.91444 15.4205 12.3593L13.112 10.82C12.6753 10.5313 12.09 10.6264 11.7672 11.0385L10.766 12.3273C10.6371 12.497 10.4031 12.5462 10.2167 12.4429L10.0261 12.3377C9.39402 11.9932 8.60762 11.5643 7.02317 9.97918C5.43872 8.39405 5.00897 7.607 4.66447 6.97609L4.55993 6.78542C4.45499 6.5991 4.50333 6.36394 4.67324 6.23409L5.96106 5.23204C6.37312 4.90916 6.4683 4.32397 6.17977 3.88715L3.88511 0.446052C3.58938 0.00126501 2.99613 -0.132267 2.53836 0.142932L1.09951 1.00731C0.647421 1.27311 0.315738 1.70359 0.174014 2.20853C-0.34411 4.09651 0.0456698 7.35488 4.8452 12.1553C6.93589 14.2461 8.73338 15.4984 10.2532 16.2067C7.91395 16.7352 5.46129 16.1694 3.58988 14.6696C1.71846 13.1697 0.63205 10.899 0.638325 8.50063C0.638325 8.34415 0.511507 8.21733 0.355044 8.21733C0.198581 8.21733 0.0717639 8.34415 0.0717639 8.50063C0.0761461 13.173 3.86164 16.96 8.53369 16.966C9.40896 16.9663 10.2789 16.8292 11.1116 16.5597C11.8629 16.8403 12.657 16.9893 13.459 17C13.9086 17.0019 14.3564 16.9434 14.7905 16.826C15.2955 16.6845 15.726 16.3527 15.9916 15.9005L16.8568 14.4624C17.1324 14.0044 16.9989 13.4108 16.5539 13.1149ZM16.3698 14.1708L15.5066 15.6097C15.3157 15.9367 15.0056 16.177 14.6414 16.2803C13.8173 16.507 12.7011 16.5353 11.2668 16.0183C11.2441 16.0055 11.2197 15.996 11.1943 15.9899C9.60785 15.4009 7.63814 14.1456 5.24517 11.7533C0.638889 7.14694 0.242004 4.10163 0.72049 2.35843C0.823936 1.99429 1.06422 1.68423 1.39103 1.4932L2.82987 0.62995C3.0285 0.510428 3.28598 0.568363 3.41429 0.76139L4.66079 2.63294L5.70699 4.20219C5.83228 4.39167 5.79112 4.64562 5.61238 4.78582L4.32426 5.78788C3.93225 6.08765 3.82031 6.63004 4.06166 7.06052L4.16394 7.24638C4.526 7.91045 4.97614 8.73658 6.61951 10.3798C8.26289 12.023 9.0887 12.4732 9.75243 12.8353L9.93854 12.9378C10.369 13.1791 10.9113 13.0672 11.2111 12.6752L12.2131 11.387C12.3533 11.2083 12.6071 11.1672 12.7967 11.2924L16.2372 13.5872C16.4303 13.715 16.4887 13.9721 16.3698 14.1708Z"/>
</svg>
