<svg width="17" height="17" viewBox="0 0 17 17" xmlns="http://www.w3.org/2000/svg">
<path d="M8.50002 0C3.81319 0 0 3.81318 0 8.5C0 13.1868 3.81319 17 8.50002 17C10.7706 17 12.905 16.116 14.5105 14.5105C14.6488 14.3721 14.6488 14.148 14.5105 14.0097C14.3721 13.8713 14.148 13.8713 14.0097 14.0097C12.538 15.4813 10.5815 16.2917 8.50002 16.2917C4.20366 16.2917 0.708324 12.7964 0.708324 8.5C0.708324 4.20365 4.20366 0.708322 8.50002 0.708322C12.7964 0.708322 16.2917 4.20365 16.2917 8.5V9.20832C16.2917 10.3801 15.3385 11.3333 14.1667 11.3333C12.9949 11.3333 12.0417 10.3801 12.0417 9.20832V6.02082C12.0417 5.82506 11.8833 5.66664 11.6875 5.66664C11.4918 5.66664 11.3333 5.82506 11.3333 6.02082V6.39691C10.6872 5.52905 9.66259 4.95832 8.50002 4.95832C6.54724 4.95832 4.95833 6.54722 4.95833 8.5C4.95833 10.4528 6.54727 12.0417 8.50002 12.0417C9.80255 12.0417 10.9307 11.3268 11.5459 10.2765C11.9688 11.3102 12.9826 12.0417 14.1667 12.0417C15.7289 12.0417 17 10.7706 17 9.20836V8.5C17 3.81318 13.1868 0 8.50002 0ZM8.50002 11.3333C6.93774 11.3333 5.66669 10.0623 5.66669 8.5C5.66669 6.93773 6.93774 5.66668 8.50002 5.66668C10.0623 5.66668 11.3333 6.93773 11.3333 8.5C11.3333 10.0623 10.0623 11.3333 8.50002 11.3333Z"/>
</svg>
