<svg width="92" height="92" viewBox="0 0 92 92" xmlns="http://www.w3.org/2000/svg">
<path d="M46 89.625C70.0925 89.625 89.625 70.0934 89.625 46C89.625 21.9066 70.0925 2.375 46 2.375C21.9075 2.375 2.375 21.9066 2.375 46C2.375 70.0934 21.9075 89.625 46 89.625ZM91.5 46C91.5 71.1289 71.1282 91.5 46 91.5C20.8718 91.5 0.5 71.1289 0.5 46C0.5 20.8711 20.8718 0.5 46 0.5C71.1282 0.5 91.5 20.8711 91.5 46ZM82.875 46C82.875 66.3655 66.3664 82.875 46 82.875C25.6336 82.875 9.125 66.3655 9.125 46C9.125 25.6345 25.6336 9.125 46 9.125C66.3664 9.125 82.875 25.6345 82.875 46ZM63.5 33.3636C63.5 30.4868 61.2991 28.5 58.6367 28.5H33.3633C30.7009 28.5 28.5 30.4868 28.5 33.3636V58.6364C28.5 61.5132 30.7009 63.5 33.3633 63.5H58.6367C61.2991 63.5 63.5 61.5132 63.5 58.6364V33.3636ZM52.7383 34.3083C52.7383 33.7416 53.2024 33.2775 53.7676 33.2775H57.6113C58.1765 33.2775 58.6406 33.7416 58.6406 34.3083V37.972C58.6406 38.5385 58.1764 39.0029 57.6113 39.0029H53.7676C53.2025 39.0029 52.7383 38.5385 52.7383 37.972V34.3083ZM33.2773 43.8785H35.2467C35.0624 44.6553 34.9648 45.4643 34.9648 46.2952C34.9648 52.2414 39.9342 57.0348 46.0332 57.0348C52.1302 57.0348 57.1016 52.2414 57.1016 46.2952C57.1016 45.4644 57.0027 44.6552 56.8179 43.8785H58.6582V57.7405C58.6582 58.2082 58.2744 58.5922 57.8066 58.5922H34.1309C33.6622 58.5922 33.2773 58.207 33.2773 57.7405V43.8785ZM39.7031 45.9261C39.7031 42.5628 42.5228 39.8098 46.0312 39.8098C49.5436 39.8098 52.3613 42.5628 52.3613 45.9261C52.3613 49.2895 49.5417 52.0425 46.0312 52.0425C42.5228 52.0425 39.7031 49.2896 39.7031 45.9261Z" />
</svg>
