<svg width="109" height="95" viewBox="0 0 109 95" fill="none" xmlns="http://www.w3.org/2000/svg">
<path d="M108.052 47.5068C108.052 21.674 84.0118 0.732386 54.3563 0.732386C24.7007 0.732386 0.660156 21.674 0.660156 47.5068C0.660156 73.3396 24.7007 94.2813 54.3563 94.2813C84.0118 94.2813 108.052 73.3396 108.052 47.5068Z" fill="#B02827"/>
<path d="M0 47.5C0 34.341 6.12373 22.4584 15.9763 13.858C25.7985 5.28791 39.3798 0 54.3557 0C69.3315 0 82.9129 5.28791 92.7351 13.858C102.588 22.4584 108.711 34.341 108.711 47.5C108.711 60.659 102.588 72.5416 92.7351 81.142C82.9129 89.7121 69.3315 95 54.3557 95C39.3798 95 25.7985 89.7121 15.9763 81.142C6.12373 72.5416 0 60.659 0 47.5ZM1.30357 47.5H1.33388H1.30357C1.30357 60.1727 7.2454 71.6603 16.7948 80.0176C26.4048 88.3749 39.683 93.5413 54.3557 93.5413C69.0284 93.5413 82.3065 88.3749 91.9166 80.0176C101.466 71.6603 107.408 60.1727 107.408 47.5H107.377H107.408C107.408 34.8273 101.466 23.3397 91.9166 15.0128C82.3065 6.62508 69.0284 1.45873 54.3557 1.45873C39.683 1.45873 26.4048 6.62508 16.7948 15.0128C7.2454 23.3397 1.30357 34.8273 1.30357 47.5Z" fill="#F8B036"/>
<path d="M2.27343 41.9676L5.51719 38.4423L4.1833 34.1269L3.88015 33.1848L4.63804 32.6378L8.73063 29.7203L8.45779 25.2225L8.39716 24.3108L9.18536 23.9461L13.9752 21.7884L14.7634 17.2907L14.915 16.4701L15.6729 16.2878L20.9478 15.0114L22.8576 10.696L23.1305 9.99701L23.8277 9.96662L29.3452 9.66271L32.3161 5.71198L32.7102 5.16495L33.3468 5.25612L38.8339 5.98549L42.7143 2.58178L43.1993 2.18671L43.7753 2.36905L48.9896 4.0709L53.6279 1.42695L54.1432 1.12305L54.6586 1.42695L59.3575 4.04051L64.5414 2.27788L65.1174 2.09554L65.6025 2.49061L69.5132 5.86393L75.0003 5.10417L75.6369 5.013L76.031 5.52964L79.0322 9.48037L84.5497 9.72349L85.2469 9.75388L85.5501 10.4529L87.4903 14.7683L92.7955 15.9839L93.523 16.1662L93.6746 16.9868L94.5538 21.4845L99.3436 23.6118L100.132 23.9461L100.071 24.8578L99.859 29.3556L103.982 32.2427L104.74 32.7897L104.437 33.7318L103.163 38.0472L106.437 41.5725L107.135 42.3019L106.619 43.1832L104.315 47.1643L106.65 51.1454L107.165 52.0267L106.498 52.7561L103.254 56.3118L104.588 60.5968L104.891 61.5389L104.103 62.0859L100.011 65.0338L100.314 69.5012L100.374 70.4433L99.5861 70.7775L94.7963 72.9353L94.0081 77.433L93.8565 78.2536L93.0986 78.4359L87.8237 79.7123L85.9139 84.0277L85.6107 84.7267L84.9134 84.7571L79.396 85.061L76.4554 89.0117L76.0613 89.5587L75.4247 89.4676L69.9376 88.7686L66.0269 92.1419L65.5722 92.5674L64.9962 92.3546L59.7819 90.6528L55.1436 93.2967L54.598 93.6006L54.0826 93.2967L49.414 90.7136L44.2301 92.4458L43.6541 92.6282L43.169 92.2331L39.2583 88.8598L33.7712 89.6499L33.1346 89.7107L32.7102 89.194L29.7393 85.2433L24.2218 85.0002L23.5246 84.9698L23.2214 84.3012L21.2509 79.9554L15.976 78.7398L15.2485 78.5575L15.0666 77.7369L14.2177 73.2392L9.39757 71.1118L8.63968 70.7775L8.67 69.8658L8.91252 65.3681L4.78961 62.481L4.03173 61.934L4.30457 60.9919L5.60813 56.6765L2.30374 53.1816L1.6368 52.4522L2.15217 51.5405L4.45614 47.5594L2.09154 43.5783L1.57617 42.6969L2.27343 41.9676ZM7.66959 39.6883L4.57741 43.0616L6.79044 46.83L7.21485 47.529L6.82075 48.228L4.60772 52.0571L7.73022 55.3697L8.27589 55.9471L8.03337 56.7069L6.79044 60.8399L10.7314 63.6054L11.3074 64.0005L11.2771 64.7603L11.0346 69.0757L15.6426 71.1118L16.2489 71.355L16.3701 72.0235L17.1886 76.3997L22.2817 77.5546L22.8273 77.7065L23.1002 78.2536L24.9797 82.4474L30.3456 82.6905L30.8609 82.7209L31.1944 83.1464L34.1047 87.006L39.4402 86.2462L39.8949 86.1854L40.2891 86.5197L44.1088 89.8019L49.1715 88.1L49.6262 87.948L50.0203 88.1608L54.598 90.7136L59.1453 88.1304L59.5394 87.9177L59.9941 88.0392L65.0871 89.7107L68.8766 86.3981L69.2403 86.0639L69.7254 86.1246L75.0609 86.854L77.9409 82.964L78.2744 82.5386L78.7897 82.5082L84.1252 82.2347L85.9745 78.0104L86.217 77.4634L86.7627 77.3115L91.8557 76.0958L92.6439 71.75L92.7652 71.0814L93.3412 70.8079L97.9188 68.7414L97.646 64.426L97.6156 63.6966L98.1916 63.2711L102.102 60.4752L100.799 56.3726L100.587 55.6128L101.102 55.0354L104.194 51.6621L101.951 47.8937L101.557 47.1947L101.951 46.4957L104.133 42.6969L101.011 39.354L100.496 38.7766L100.738 38.0168L101.951 33.8838L98.0401 31.1486L97.4337 30.7232L97.4944 29.9634L97.7066 25.648L93.0986 23.6118L92.5226 23.3687L92.4014 22.7001L91.5829 18.3239L86.4595 17.1691L85.9139 17.0475L85.6713 16.4701L83.7615 12.2763L78.4259 12.0332L77.9106 12.0028L77.5771 11.5773L74.6668 7.71774L69.3313 8.47749L68.8462 8.53827L68.4825 8.20398L64.6324 4.92183L59.5697 6.62369L59.1453 6.77564L58.7209 6.56291L54.1735 4.01012L49.6262 6.5933L49.2018 6.83642L48.7774 6.68447L43.6844 5.013L39.8949 8.32554L39.5312 8.65983L39.0461 8.59905L33.6803 7.90008L30.8306 11.7596L30.4971 12.1851L29.9818 12.2155L24.6463 12.489L22.797 16.7133L22.5242 17.2603L21.9785 17.4122L16.9158 18.6278L16.1276 22.9737L16.0063 23.6422L15.4304 23.9157L10.8224 25.9823L11.0952 30.2977L11.1559 31.0575L10.5799 31.4525L6.66917 34.2484L7.94242 38.3511L8.18495 39.1109L7.66959 39.6883Z" fill="#F8B036"/>
<path d="M55.2094 88.1998C55.2094 87.8668 54.9655 87.5968 54.6648 87.5968C54.364 87.5968 54.1201 87.8668 54.1201 88.1998C54.1201 88.5328 54.364 88.8027 54.6648 88.8027C54.9655 88.8027 55.2094 88.5328 55.2094 88.1998Z" fill="#F8B036"/>
<path d="M49.8207 91.983C49.8207 91.65 49.5769 91.38 49.2761 91.38C48.9753 91.38 48.7314 91.65 48.7314 91.983C48.7314 92.316 48.9753 92.5859 49.2761 92.5859C49.5769 92.5859 49.8207 92.316 49.8207 91.983Z" fill="#F8B036"/>
<path d="M50.3305 85.7135C50.3305 85.3805 50.0866 85.1105 49.7858 85.1105C49.4851 85.1105 49.2412 85.3805 49.2412 85.7135C49.2412 86.0465 49.4851 86.3164 49.7858 86.3164C50.0866 86.3164 50.3305 86.0465 50.3305 85.7135Z" fill="#F8B036"/>
<path d="M45.1225 87.2955C45.1225 86.9625 44.8786 86.6925 44.5778 86.6925C44.277 86.6925 44.0332 86.9625 44.0332 87.2955C44.0332 87.6285 44.277 87.8984 44.5778 87.8984C44.8786 87.8984 45.1225 87.6285 45.1225 87.2955Z" fill="#F8B036"/>
<path d="M39.4389 90.1666C39.4389 89.8336 39.195 89.5636 38.8942 89.5636C38.5935 89.5636 38.3496 89.8336 38.3496 90.1666C38.3496 90.4996 38.5935 90.7695 38.8942 90.7695C39.195 90.7695 39.4389 90.4996 39.4389 90.1666Z" fill="#F8B036"/>
<path d="M41.0053 84.0709C41.0053 83.7379 40.7614 83.4679 40.4607 83.4679C40.1599 83.4679 39.916 83.7379 39.916 84.0709C39.916 84.4039 40.1599 84.6738 40.4607 84.6738C40.7614 84.6738 41.0053 84.4039 41.0053 84.0709Z" fill="#F8B036"/>
<path d="M35.5229 84.7428C35.5229 84.4098 35.279 84.1398 34.9782 84.1398C34.6774 84.1398 34.4336 84.4098 34.4336 84.7428C34.4336 85.0758 34.6774 85.3457 34.9782 85.3457C35.279 85.3457 35.5229 85.0758 35.5229 84.7428Z" fill="#F8B036"/>
<path d="M29.7563 86.3248C29.7563 85.9918 29.5124 85.7218 29.2116 85.7218C28.9108 85.7218 28.667 85.9918 28.667 86.3248C28.667 86.6578 28.9108 86.9277 29.2116 86.9277C29.5124 86.9277 29.7563 86.6578 29.7563 86.3248Z" fill="#F8B036"/>
<path d="M32.2485 80.8111C32.2485 80.4781 32.0046 80.2082 31.7038 80.2082C31.403 80.2082 31.1592 80.4781 31.1592 80.8111C31.1592 81.1441 31.403 81.4141 31.7038 81.4141C32.0046 81.4141 32.2485 81.1441 32.2485 80.8111Z" fill="#F8B036"/>
<path d="M24.5287 76.0357C24.5287 75.7027 24.2849 75.4328 23.9841 75.4328C23.6833 75.4328 23.4395 75.7027 23.4395 76.0357C23.4395 76.3687 23.6833 76.6387 23.9841 76.6387C24.2849 76.6387 24.5287 76.3687 24.5287 76.0357Z" fill="#F8B036"/>
<path d="M18.2797 70.0142C18.2797 69.6812 18.0359 69.4113 17.7351 69.4113C17.4343 69.4113 17.1904 69.6812 17.1904 70.0142C17.1904 70.3472 17.4343 70.6172 17.7351 70.6172C18.0359 70.6172 18.2797 70.3472 18.2797 70.0142Z" fill="#F8B036"/>
<path d="M13.6479 63.0728C13.6479 62.7398 13.404 62.4699 13.1032 62.4699C12.8024 62.4699 12.5586 62.7398 12.5586 63.0728C12.5586 63.4058 12.8024 63.6758 13.1032 63.6758C13.404 63.6758 13.6479 63.4058 13.6479 63.0728Z" fill="#F8B036"/>
<path d="M10.725 55.5435C10.725 55.2105 10.4812 54.9406 10.1804 54.9406C9.87958 54.9406 9.63574 55.2105 9.63574 55.5435C9.63574 55.8765 9.87958 56.1465 10.1804 56.1465C10.4812 56.1465 10.725 55.8765 10.725 55.5435Z" fill="#F8B036"/>
<path d="M9.9174 47.5299C9.9174 47.1969 9.67356 46.9269 9.37276 46.9269C9.07197 46.9269 8.82813 47.1969 8.82813 47.5299C8.82813 47.8629 9.07197 48.1328 9.37276 48.1328C9.67356 48.1328 9.9174 47.8629 9.9174 47.5299Z" fill="#F8B036"/>
<path d="M10.7299 39.4888C10.7299 39.1558 10.4861 38.8859 10.1853 38.8859C9.88447 38.8859 9.64063 39.1558 9.64063 39.4888C9.64063 39.8218 9.88447 40.0918 10.1853 40.0918C10.4861 40.0918 10.7299 39.8218 10.7299 39.4888Z" fill="#F8B036"/>
<path d="M13.4994 31.8756C13.4994 31.5426 13.2556 31.2726 12.9548 31.2726C12.654 31.2726 12.4102 31.5426 12.4102 31.8756C12.4102 32.2086 12.654 32.4785 12.9548 32.4785C13.2556 32.4785 13.4994 32.2086 13.4994 31.8756Z" fill="#F8B036"/>
<path d="M18.1137 24.9654C18.1137 24.6324 17.8698 24.3625 17.5691 24.3625C17.2683 24.3625 17.0244 24.6324 17.0244 24.9654C17.0244 25.2984 17.2683 25.5684 17.5691 25.5684C17.8698 25.5684 18.1137 25.2984 18.1137 24.9654Z" fill="#F8B036"/>
<path d="M24.2738 18.9127C24.2738 18.5797 24.03 18.3097 23.7292 18.3097C23.4284 18.3097 23.1846 18.5797 23.1846 18.9127C23.1846 19.2457 23.4284 19.5156 23.7292 19.5156C24.03 19.5156 24.2738 19.2457 24.2738 18.9127Z" fill="#F8B036"/>
<path d="M31.8569 14.0103C31.8569 13.6773 31.613 13.4074 31.3122 13.4074C31.0114 13.4074 30.7676 13.6773 30.7676 14.0103C30.7676 14.3433 31.0114 14.6133 31.3122 14.6133C31.613 14.6133 31.8569 14.3433 31.8569 14.0103Z" fill="#F8B036"/>
<path d="M40.727 10.6763C40.727 10.3433 40.4831 10.0734 40.1823 10.0734C39.8815 10.0734 39.6377 10.3433 39.6377 10.6763C39.6377 11.0093 39.8815 11.2793 40.1823 11.2793C40.4831 11.2793 40.727 11.0093 40.727 10.6763Z" fill="#F8B036"/>
<path d="M49.9115 8.99471C49.9115 8.66171 49.6677 8.39176 49.3669 8.39176C49.0661 8.39176 48.8223 8.66171 48.8223 8.99471C48.8223 9.32771 49.0661 9.59766 49.3669 9.59766C49.6677 9.59766 49.9115 9.32771 49.9115 8.99471Z" fill="#F8B036"/>
<path d="M59.5414 8.91072C59.5414 8.57772 59.2976 8.30778 58.9968 8.30778C58.696 8.30778 58.4521 8.57772 58.4521 8.91072C58.4521 9.24372 58.696 9.51367 58.9968 9.51367C59.2976 9.51367 59.5414 9.24372 59.5414 8.91072Z" fill="#F8B036"/>
<path d="M26.8188 80.5553C26.8188 80.2223 26.5749 79.9523 26.2741 79.9523C25.9733 79.9523 25.7295 80.2223 25.7295 80.5553C25.7295 80.8883 25.9733 81.1582 26.2741 81.1582C26.5749 81.1582 26.8188 80.8883 26.8188 80.5553Z" fill="#F8B036"/>
<path d="M21.0678 80.9107C21.0678 80.5777 20.8239 80.3078 20.5232 80.3078C20.2224 80.3078 19.9785 80.5777 19.9785 80.9107C19.9785 81.2437 20.2224 81.5137 20.5232 81.5137C20.8239 81.5137 21.0678 81.2437 21.0678 80.9107Z" fill="#F8B036"/>
<path d="M19.2963 74.6314C19.2963 74.2984 19.0525 74.0285 18.7517 74.0285C18.4509 74.0285 18.207 74.2984 18.207 74.6314C18.207 74.9644 18.4509 75.2344 18.7517 75.2344C19.0525 75.2344 19.2963 74.9644 19.2963 74.6314Z" fill="#F8B036"/>
<path d="M13.4985 67.7056C13.4985 67.3726 13.2546 67.1027 12.9538 67.1027C12.653 67.1027 12.4092 67.3726 12.4092 67.7056C12.4092 68.0386 12.653 68.3086 12.9538 68.3086C13.2546 68.3086 13.4985 68.0386 13.4985 67.7056Z" fill="#F8B036"/>
<path d="M9.46428 59.9674C9.46428 59.6344 9.22043 59.3644 8.91964 59.3644C8.61884 59.3644 8.375 59.6344 8.375 59.9674C8.375 60.3004 8.61884 60.5703 8.91964 60.5703C9.22043 60.5703 9.46428 60.3004 9.46428 59.9674Z" fill="#F8B036"/>
<path d="M7.70646 51.7369C7.70646 51.4039 7.46262 51.1339 7.16183 51.1339C6.86103 51.1339 6.61719 51.4039 6.61719 51.7369C6.61719 52.0699 6.86103 52.3398 7.16183 52.3398C7.46262 52.3398 7.70646 52.0699 7.70646 51.7369Z" fill="#F8B036"/>
<path d="M7.5551 43.3072C7.5551 42.9742 7.31125 42.7043 7.01046 42.7043C6.70966 42.7043 6.46582 42.9742 6.46582 43.3072C6.46582 43.6402 6.70966 43.9102 7.01046 43.9102C7.31125 43.9102 7.5551 43.6402 7.5551 43.3072Z" fill="#F8B036"/>
<path d="M9.54338 34.9986C9.54338 34.6656 9.29953 34.3957 8.99874 34.3957C8.69794 34.3957 8.4541 34.6656 8.4541 34.9986C8.4541 35.3316 8.69794 35.6016 8.99874 35.6016C9.29953 35.6016 9.54338 35.3316 9.54338 34.9986Z" fill="#F8B036"/>
<path d="M14.0668 73.9635C14.0668 73.6305 13.823 73.3605 13.5222 73.3605C13.2214 73.3605 12.9775 73.6305 12.9775 73.9635C12.9775 74.2965 13.2214 74.5664 13.5222 74.5664C13.823 74.5664 14.0668 74.2965 14.0668 73.9635Z" fill="#F8B036"/>
<path d="M5.22502 56.9029C5.22502 56.5699 4.98117 56.3 4.68038 56.3C4.37958 56.3 4.13574 56.5699 4.13574 56.9029C4.13574 57.2359 4.37958 57.5059 4.68038 57.5059C4.98117 57.5059 5.22502 57.2359 5.22502 56.9029Z" fill="#F8B036"/>
<path d="M4.01799 47.567C4.01799 47.234 3.77414 46.964 3.47335 46.964C3.17255 46.964 2.92871 47.234 2.92871 47.567C2.92871 47.9 3.17255 48.1699 3.47335 48.1699C3.77414 48.1699 4.01799 47.9 4.01799 47.567Z" fill="#F8B036"/>
<path d="M5.08146 38.2115C5.08146 37.8785 4.83762 37.6086 4.53683 37.6086C4.23603 37.6086 3.99219 37.8785 3.99219 38.2115C3.99219 38.5445 4.23603 38.8145 4.53683 38.8145C4.83762 38.8145 5.08146 38.5445 5.08146 38.2115Z" fill="#F8B036"/>
<path d="M8.3842 29.1588C8.3842 28.8258 8.14035 28.5558 7.83956 28.5558C7.53876 28.5558 7.29492 28.8258 7.29492 29.1588C7.29492 29.4918 7.53876 29.7617 7.83956 29.7617C8.14035 29.7617 8.3842 29.4918 8.3842 29.1588Z" fill="#F8B036"/>
<path d="M13.2856 27.231C13.2856 26.898 13.0417 26.6281 12.7409 26.6281C12.4401 26.6281 12.1963 26.898 12.1963 27.231C12.1963 27.564 12.4401 27.834 12.7409 27.834C13.0417 27.834 13.2856 27.564 13.2856 27.231Z" fill="#F8B036"/>
<path d="M13.7856 21.1334C13.7856 20.8004 13.5417 20.5304 13.2409 20.5304C12.9401 20.5304 12.6963 20.8004 12.6963 21.1334C12.6963 21.4664 12.9401 21.7363 13.2409 21.7363C13.5417 21.7363 13.7856 21.4664 13.7856 21.1334Z" fill="#F8B036"/>
<path d="M19.0258 20.1842C19.0258 19.8512 18.782 19.5812 18.4812 19.5812C18.1804 19.5812 17.9365 19.8512 17.9365 20.1842C17.9365 20.5172 18.1804 20.7871 18.4812 20.7871C18.782 20.7871 19.0258 20.5172 19.0258 20.1842Z" fill="#F8B036"/>
<path d="M20.8569 14.1471C20.8569 13.8141 20.613 13.5441 20.3122 13.5441C20.0114 13.5441 19.7676 13.8141 19.7676 14.1471C19.7676 14.4801 20.0114 14.75 20.3122 14.75C20.613 14.75 20.8569 14.4801 20.8569 14.1471Z" fill="#F8B036"/>
<path d="M26.4067 14.4361C26.4067 14.1031 26.1628 13.8332 25.862 13.8332C25.5612 13.8332 25.3174 14.1031 25.3174 14.4361C25.3174 14.7691 25.5612 15.0391 25.862 15.0391C26.1628 15.0391 26.4067 14.7691 26.4067 14.4361Z" fill="#F8B036"/>
<path d="M29.3862 8.7408C29.3862 8.4078 29.1423 8.13785 28.8415 8.13785C28.5407 8.13785 28.2969 8.4078 28.2969 8.7408C28.2969 9.0738 28.5407 9.34375 28.8415 9.34375C29.1423 9.34375 29.3862 9.0738 29.3862 8.7408Z" fill="#F8B036"/>
<path d="M38.9623 4.77596C38.9623 4.44296 38.7185 4.17301 38.4177 4.17301C38.1169 4.17301 37.873 4.44296 37.873 4.77596C37.873 5.10896 38.1169 5.37891 38.4177 5.37891C38.7185 5.37891 38.9623 5.10896 38.9623 4.77596Z" fill="#F8B036"/>
<path d="M49.3315 2.77401C49.3315 2.44101 49.0876 2.17106 48.7868 2.17106C48.486 2.17106 48.2422 2.44101 48.2422 2.77401C48.2422 3.107 48.486 3.37695 48.7868 3.37695C49.0876 3.37695 49.3315 3.107 49.3315 2.77401Z" fill="#F8B036"/>
<path d="M44.6987 7.36971C44.6987 7.03671 44.4548 6.76676 44.154 6.76676C43.8532 6.76676 43.6094 7.03671 43.6094 7.36971C43.6094 7.70271 43.8532 7.97266 44.154 7.97266C44.4548 7.97266 44.6987 7.70271 44.6987 7.36971Z" fill="#F8B036"/>
<path d="M54.7387 6.49666C54.7387 6.16366 54.4948 5.89371 54.1941 5.89371C53.8933 5.89371 53.6494 6.16366 53.6494 6.49666C53.6494 6.82966 53.8933 7.09961 54.1941 7.09961C54.4948 7.09961 54.7387 6.82966 54.7387 6.49666Z" fill="#F8B036"/>
<path d="M59.891 2.91463C59.891 2.58163 59.6472 2.31168 59.3464 2.31168C59.0456 2.31168 58.8018 2.58163 58.8018 2.91463C58.8018 3.24763 59.0456 3.51758 59.3464 3.51758C59.6472 3.51758 59.891 3.24763 59.891 2.91463Z" fill="#F8B036"/>
<path d="M70.3237 4.91658C70.3237 4.58358 70.0798 4.31364 69.779 4.31364C69.4782 4.31364 69.2344 4.58358 69.2344 4.91658C69.2344 5.24958 69.4782 5.51953 69.779 5.51953C70.0798 5.51953 70.3237 5.24958 70.3237 4.91658Z" fill="#F8B036"/>
<path d="M64.7709 7.43807C64.7709 7.10507 64.5271 6.83512 64.2263 6.83512C63.9255 6.83512 63.6816 7.10507 63.6816 7.43807C63.6816 7.77107 63.9255 8.04102 64.2263 8.04102C64.5271 8.04102 64.7709 7.77107 64.7709 7.43807Z" fill="#F8B036"/>
<path d="M68.8764 10.5904C68.8764 10.2574 68.6325 9.98746 68.3317 9.98746C68.031 9.98746 67.7871 10.2574 67.7871 10.5904C67.7871 10.9234 68.031 11.1934 68.3317 11.1934C68.6325 11.1934 68.8764 10.9234 68.8764 10.5904Z" fill="#F8B036"/>
<path d="M74.311 9.97908C74.311 9.64608 74.0671 9.37614 73.7663 9.37614C73.4655 9.37614 73.2217 9.64608 73.2217 9.97908C73.2217 10.3121 73.4655 10.582 73.7663 10.582C74.0671 10.582 74.311 10.3121 74.311 9.97908Z" fill="#F8B036"/>
<path d="M79.9311 8.63533C79.9311 8.30233 79.6872 8.03239 79.3864 8.03239C79.0856 8.03239 78.8418 8.30233 78.8418 8.63533C78.8418 8.96833 79.0856 9.23828 79.3864 9.23828C79.6872 9.23828 79.9311 8.96833 79.9311 8.63533Z" fill="#F8B036"/>
<path d="M77.3617 14.0299C77.3617 13.6969 77.1179 13.4269 76.8171 13.4269C76.5163 13.4269 76.2725 13.6969 76.2725 14.0299C76.2725 14.3629 76.5163 14.6328 76.8171 14.6328C77.1179 14.6328 77.3617 14.3629 77.3617 14.0299Z" fill="#F8B036"/>
<path d="M82.8119 14.3892C82.8119 14.0562 82.5681 13.7863 82.2673 13.7863C81.9665 13.7863 81.7227 14.0562 81.7227 14.3892C81.7227 14.7222 81.9665 14.9922 82.2673 14.9922C82.5681 14.9922 82.8119 14.7222 82.8119 14.3892Z" fill="#F8B036"/>
<path d="M85.1127 18.8541C85.1127 18.5211 84.8689 18.2511 84.5681 18.2511C84.2673 18.2511 84.0234 18.5211 84.0234 18.8541C84.0234 19.1871 84.2673 19.457 84.5681 19.457C84.8689 19.457 85.1127 19.1871 85.1127 18.8541Z" fill="#F8B036"/>
<path d="M88.5893 13.8717C88.5893 13.5387 88.3454 13.2687 88.0446 13.2687C87.7438 13.2687 87.5 13.5387 87.5 13.8717C87.5 14.2047 87.7438 14.4746 88.0446 14.4746C88.3454 14.4746 88.5893 14.2047 88.5893 13.8717Z" fill="#F8B036"/>
<path d="M90.1723 20.1724C90.1723 19.8394 89.9284 19.5695 89.6276 19.5695C89.3269 19.5695 89.083 19.8394 89.083 20.1724C89.083 20.5054 89.3269 20.7754 89.6276 20.7754C89.9284 20.7754 90.1723 20.5054 90.1723 20.1724Z" fill="#F8B036"/>
<path d="M95.7865 20.7467C95.7865 20.4137 95.5427 20.1437 95.2419 20.1437C94.9411 20.1437 94.6973 20.4137 94.6973 20.7467C94.6973 21.0797 94.9411 21.3496 95.2419 21.3496C95.5427 21.3496 95.7865 21.0797 95.7865 20.7467Z" fill="#F8B036"/>
<path d="M91.6 24.9049C91.6 24.5719 91.3562 24.3019 91.0554 24.3019C90.7546 24.3019 90.5107 24.5719 90.5107 24.9049C90.5107 25.2379 90.7546 25.5078 91.0554 25.5078C91.3562 25.5078 91.6 25.2379 91.6 24.9049Z" fill="#F8B036"/>
<path d="M96.0824 27.0279C96.0824 26.6949 95.8386 26.425 95.5378 26.425C95.237 26.425 94.9932 26.6949 94.9932 27.0279C94.9932 27.3609 95.237 27.6309 95.5378 27.6309C95.8386 27.6309 96.0824 27.3609 96.0824 27.0279Z" fill="#F8B036"/>
<path d="M101.208 28.856C101.208 28.523 100.965 28.2531 100.664 28.2531C100.363 28.2531 100.119 28.523 100.119 28.856C100.119 29.189 100.363 29.459 100.664 29.459C100.965 29.459 101.208 29.189 101.208 28.856Z" fill="#F8B036"/>
<path d="M96.0824 31.6803C96.0824 31.3473 95.8386 31.0773 95.5378 31.0773C95.237 31.0773 94.9932 31.3473 94.9932 31.6803C94.9932 32.0133 95.237 32.2832 95.5378 32.2832C95.8386 32.2832 96.0824 32.0133 96.0824 31.6803Z" fill="#F8B036"/>
<path d="M100.08 34.776C100.08 34.443 99.8357 34.173 99.5349 34.173C99.2341 34.173 98.9902 34.443 98.9902 34.776C98.9902 35.109 99.2341 35.3789 99.5349 35.3789C99.8357 35.3789 100.08 35.109 100.08 34.776Z" fill="#F8B036"/>
<path d="M99.0883 39.1783C99.0883 38.8453 98.8445 38.5754 98.5437 38.5754C98.2429 38.5754 97.999 38.8453 97.999 39.1783C97.999 39.5113 98.2429 39.7813 98.5437 39.7813C98.8445 39.7813 99.0883 39.5113 99.0883 39.1783Z" fill="#F8B036"/>
<path d="M102.076 43.0006C102.076 42.6676 101.832 42.3976 101.531 42.3976C101.23 42.3976 100.986 42.6676 100.986 43.0006C100.986 43.3336 101.23 43.6035 101.531 43.6035C101.832 43.6035 102.076 43.3336 102.076 43.0006Z" fill="#F8B036"/>
<path d="M100.138 47.1178C100.138 46.7848 99.8943 46.5148 99.5935 46.5148C99.2927 46.5148 99.0488 46.7848 99.0488 47.1178C99.0488 47.4508 99.2927 47.7207 99.5935 47.7207C99.8943 47.7207 100.138 47.4508 100.138 47.1178Z" fill="#F8B036"/>
<path d="M105.79 47.2154C105.79 46.8824 105.547 46.6125 105.246 46.6125C104.945 46.6125 104.701 46.8824 104.701 47.2154C104.701 47.5484 104.945 47.8184 105.246 47.8184C105.547 47.8184 105.79 47.5484 105.79 47.2154Z" fill="#F8B036"/>
<path d="M102.238 51.3521C102.238 51.0191 101.994 50.7492 101.693 50.7492C101.392 50.7492 101.148 51.0191 101.148 51.3521C101.148 51.6851 101.392 51.9551 101.693 51.9551C101.994 51.9551 102.238 51.6851 102.238 51.3521Z" fill="#F8B036"/>
<path d="M104.711 56.5982C104.711 56.2652 104.468 55.9953 104.167 55.9953C103.866 55.9953 103.622 56.2652 103.622 56.5982C103.622 56.9312 103.866 57.2012 104.167 57.2012C104.468 57.2012 104.711 56.9312 104.711 56.5982Z" fill="#F8B036"/>
<path d="M99.1469 55.024C99.1469 54.691 98.903 54.4211 98.6023 54.4211C98.3015 54.4211 98.0576 54.691 98.0576 55.024C98.0576 55.357 98.3015 55.627 98.6023 55.627C98.903 55.627 99.1469 55.357 99.1469 55.024Z" fill="#F8B036"/>
<path d="M100.237 59.6549C100.237 59.3219 99.9929 59.0519 99.6921 59.0519C99.3913 59.0519 99.1475 59.3219 99.1475 59.6549C99.1475 59.9879 99.3913 60.2578 99.6921 60.2578C99.9929 60.2578 100.237 59.9879 100.237 59.6549Z" fill="#F8B036"/>
<path d="M101.398 65.6099C101.398 65.2769 101.154 65.007 100.853 65.007C100.552 65.007 100.309 65.2769 100.309 65.6099C100.309 65.9429 100.552 66.2129 100.853 66.2129C101.154 66.2129 101.398 65.9429 101.398 65.6099Z" fill="#F8B036"/>
<path d="M96.2621 62.6959C96.2621 62.3629 96.0183 62.0929 95.7175 62.0929C95.4167 62.0929 95.1729 62.3629 95.1729 62.6959C95.1729 63.0289 95.4167 63.2988 95.7175 63.2988C96.0183 63.2988 96.2621 63.0289 96.2621 62.6959Z" fill="#F8B036"/>
<path d="M96.5551 67.401C96.5551 67.068 96.3113 66.798 96.0105 66.798C95.7097 66.798 95.4658 67.068 95.4658 67.401C95.4658 67.734 95.7097 68.0039 96.0105 68.0039C96.3113 68.0039 96.5551 67.734 96.5551 67.401Z" fill="#F8B036"/>
<path d="M91.8363 69.649C91.8363 69.316 91.5925 69.0461 91.2917 69.0461C90.9909 69.0461 90.7471 69.316 90.7471 69.649C90.7471 69.982 90.9909 70.252 91.2917 70.252C91.5925 70.252 91.8363 69.982 91.8363 69.649Z" fill="#F8B036"/>
<path d="M96.1342 73.7506C96.1342 73.4176 95.8904 73.1476 95.5896 73.1476C95.2888 73.1476 95.0449 73.4176 95.0449 73.7506C95.0449 74.0836 95.2888 74.3535 95.5896 74.3535C95.8904 74.3535 96.1342 74.0836 96.1342 73.7506Z" fill="#F8B036"/>
<path d="M89.0444 80.6119C89.0444 80.2789 88.8005 80.0089 88.4997 80.0089C88.1989 80.0089 87.9551 80.2789 87.9551 80.6119C87.9551 80.9449 88.1989 81.2148 88.4997 81.2148C88.8005 81.2148 89.0444 80.9449 89.0444 80.6119Z" fill="#F8B036"/>
<path d="M85.4643 75.7213C85.4643 75.3883 85.2204 75.1183 84.9196 75.1183C84.6188 75.1183 84.375 75.3883 84.375 75.7213C84.375 76.0543 84.6188 76.3242 84.9196 76.3242C85.2204 76.3242 85.4643 76.0543 85.4643 75.7213Z" fill="#F8B036"/>
<path d="M83.4037 80.0533C83.4037 79.7203 83.1599 79.4504 82.8591 79.4504C82.5583 79.4504 82.3145 79.7203 82.3145 80.0533C82.3145 80.3863 82.5583 80.6563 82.8591 80.6563C83.1599 80.6563 83.4037 80.3863 83.4037 80.0533Z" fill="#F8B036"/>
<path d="M80.3793 86.0572C80.3793 85.7242 80.1355 85.4543 79.8347 85.4543C79.5339 85.4543 79.29 85.7242 79.29 86.0572C79.29 86.3902 79.5339 86.6602 79.8347 86.6602C80.1355 86.6602 80.3793 86.3902 80.3793 86.0572Z" fill="#F8B036"/>
<path d="M77.9281 80.5924C77.9281 80.2594 77.6843 79.9894 77.3835 79.9894C77.0827 79.9894 76.8389 80.2594 76.8389 80.5924C76.8389 80.9254 77.0827 81.1953 77.3835 81.1953C77.6843 81.1953 77.9281 80.9254 77.9281 80.5924Z" fill="#F8B036"/>
<path d="M74.4926 84.442C74.4926 84.109 74.2488 83.839 73.948 83.839C73.6472 83.839 73.4033 84.109 73.4033 84.442C73.4033 84.775 73.6472 85.0449 73.948 85.0449C74.2488 85.0449 74.4926 84.775 74.4926 84.442Z" fill="#F8B036"/>
<path d="M70.8139 89.9029C70.8139 89.5699 70.57 89.3 70.2692 89.3C69.9685 89.3 69.7246 89.5699 69.7246 89.9029C69.7246 90.2359 69.9685 90.5059 70.2692 90.5059C70.57 90.5059 70.8139 90.2359 70.8139 89.9029Z" fill="#F8B036"/>
<path d="M69.3432 83.8912C69.3432 83.5582 69.0993 83.2882 68.7985 83.2882C68.4977 83.2882 68.2539 83.5582 68.2539 83.8912C68.2539 84.2242 68.4977 84.4941 68.7985 84.4941C69.0993 84.4941 69.3432 84.2242 69.3432 83.8912Z" fill="#F8B036"/>
<path d="M65.1996 87.3013C65.1996 86.9683 64.9558 86.6984 64.655 86.6984C64.3542 86.6984 64.1104 86.9683 64.1104 87.3013C64.1104 87.6343 64.3542 87.9043 64.655 87.9043C64.9558 87.9043 65.1996 87.6343 65.1996 87.3013Z" fill="#F8B036"/>
<path d="M59.9789 85.9205C59.9789 85.5875 59.7351 85.3175 59.4343 85.3175C59.1335 85.3175 58.8896 85.5875 58.8896 85.9205C58.8896 86.2535 59.1335 86.5234 59.4343 86.5234C59.7351 86.5234 59.9789 86.2535 59.9789 85.9205Z" fill="#F8B036"/>
<path d="M60.3813 91.7799C60.3813 91.4469 60.1374 91.1769 59.8366 91.1769C59.5358 91.1769 59.292 91.4469 59.292 91.7799C59.292 92.1129 59.5358 92.3828 59.8366 92.3828C60.1374 92.3828 60.3813 92.1129 60.3813 91.7799Z" fill="#F8B036"/>
<path d="M90.6371 74.192C90.6371 73.859 90.3933 73.589 90.0925 73.589C89.7917 73.589 89.5479 73.859 89.5479 74.192C89.5479 74.525 89.7917 74.7949 90.0925 74.7949C90.3933 74.7949 90.6371 74.525 90.6371 74.192Z" fill="#F8B036"/>
<path d="M104.632 37.8072C104.632 37.4742 104.388 37.2043 104.088 37.2043C103.787 37.2043 103.543 37.4742 103.543 37.8072C103.543 38.1402 103.787 38.4102 104.088 38.4102C104.388 38.4102 104.632 38.1402 104.632 37.8072Z" fill="#F8B036"/>
<path d="M35.0707 10.0142C35.0707 9.68124 34.8269 9.41129 34.5261 9.41129C34.2253 9.41129 33.9814 9.68124 33.9814 10.0142C33.9814 10.3472 34.2253 10.6172 34.5261 10.6172C34.8269 10.6172 35.0707 10.3472 35.0707 10.0142Z" fill="#F8B036"/>
<path d="M8.55314 65.8912C8.55314 65.5582 8.3093 65.2882 8.0085 65.2882C7.70771 65.2882 7.46387 65.5582 7.46387 65.8912C7.46387 66.2242 7.70771 66.4941 8.0085 66.4941C8.3093 66.4941 8.55314 66.2242 8.55314 65.8912Z" fill="#F8B036"/>
<path d="M18.9762 56.8947C18.9156 56.8947 18.8853 56.8947 18.855 56.8947C18.2487 56.8947 17.7333 56.925 17.2786 56.925C16.9754 56.925 16.7026 56.9554 16.4904 56.9554C16.3994 56.9554 16.4904 56.9554 16.4297 56.9554H16.3691L16.3388 56.8947C16.2479 56.8035 16.1872 56.4996 16.2175 56.3172C16.2175 56.2868 16.2175 56.2261 16.2175 56.1957C16.2175 56.1653 16.2479 56.1045 16.2782 56.0741L16.3085 56.0437L16.3691 56.0133C16.4297 56.0133 16.5207 56.0133 16.6116 55.9829C17.0057 55.9222 17.2179 55.8918 17.3998 55.831C17.5211 55.8006 17.5817 55.7094 17.6424 55.6487C17.6727 55.5271 17.703 55.4055 17.703 55.2536C17.7333 54.7977 17.7333 53.6125 17.7333 52.2449C17.7333 50.8774 17.7333 49.3275 17.7333 48.203C17.5211 48.1726 17.0664 48.1726 16.642 48.203C16.551 48.203 16.4601 48.203 16.3691 48.203C16.3085 48.203 16.2175 48.203 16.1569 48.203C16.0356 48.203 15.9447 48.2334 15.8841 48.2942C15.8234 48.355 15.7628 48.4462 15.7022 48.5677C15.6415 48.7501 15.6112 48.9628 15.5506 49.1755C15.5203 49.4186 15.49 49.6618 15.4293 49.9353V49.9961L15.399 50.0264C15.3384 50.1176 15.0049 50.148 14.823 50.1176C14.7927 50.1176 14.7321 50.0872 14.7018 50.0872C14.6714 50.0872 14.6411 50.0568 14.6108 50.0568L14.5502 49.9961V49.9049C14.5502 49.7833 14.5199 49.601 14.5199 49.449C14.4896 48.6285 14.4289 47.8383 14.3077 47.2913L14.2773 47.2305L14.3077 47.1698C14.338 47.1394 14.3683 47.0482 14.4289 47.0178C14.4592 46.9874 14.4592 46.9874 14.4896 46.9874C14.5199 46.957 14.5199 46.957 14.5502 46.957H14.5805C14.7624 46.9874 14.9443 47.0178 15.1868 47.0178C15.399 47.0482 15.7022 47.0482 16.1266 47.0482H18.855H21.5834C22.0078 47.0482 22.3109 47.0482 22.5232 47.0178C22.7657 47.0178 22.9173 46.9874 23.1295 46.957H23.1598C23.2204 46.957 23.3114 47.0482 23.3417 47.109C23.372 47.109 23.372 47.1394 23.372 47.1394V47.1698H23.4023V47.2305V47.2913C23.281 47.8383 23.2204 48.6285 23.1901 49.449C23.1598 49.601 23.1598 49.7833 23.1598 49.9049V49.9961L23.0992 50.0568C23.0082 50.1176 22.705 50.148 22.5232 50.1176C22.4928 50.1176 22.4322 50.1176 22.4019 50.1176C22.3716 50.0872 22.3109 50.0568 22.2806 50.0264V49.9961L22.2503 49.9353C22.22 49.6618 22.1897 49.4186 22.1594 49.1755C22.0987 48.9628 22.0381 48.7501 21.9775 48.5677C21.9472 48.4462 21.8865 48.355 21.8259 48.2942C21.7653 48.2334 21.6743 48.203 21.5531 48.203C21.3409 48.203 21.068 48.203 20.7952 48.1726C20.7345 48.1726 20.6739 48.1726 20.6436 48.1726C20.3708 48.1726 20.0979 48.1726 19.9463 48.203C19.9463 48.5981 19.9463 49.0844 19.9463 49.5706C19.9463 51.7891 19.9463 54.5242 19.9767 55.2536C20.007 55.4055 20.007 55.5271 20.0676 55.6487C20.0979 55.7094 20.1889 55.8006 20.3101 55.831C20.4617 55.8918 20.7042 55.9222 21.068 55.9829C21.159 56.0133 21.2499 56.0133 21.3409 56.0133L21.4015 56.0437L21.4318 56.0741C21.4924 56.1653 21.5227 56.4996 21.4621 56.6819C21.4621 56.7123 21.4621 56.7731 21.4318 56.8035C21.4318 56.8339 21.4015 56.8643 21.3712 56.8947L21.3409 56.9554H21.2802C21.068 56.9554 20.7649 56.925 20.4314 56.925C20.007 56.925 19.5219 56.8947 18.9762 56.8947ZM17.7333 48.1423V48.1726V48.1423Z" fill="#F7B941"/>
<path d="M80.6373 56.8927C80.607 56.8927 80.5767 56.8927 80.5161 56.8927C79.9401 56.8927 79.3944 56.9231 78.9397 56.9231C78.6365 56.9535 78.394 56.9535 78.1515 56.9535C78.0605 56.9535 78.1515 56.9535 78.0908 56.9535H78.0302L77.9999 56.8927C77.9089 56.8319 77.8786 56.528 77.8786 56.3153C77.8786 56.2849 77.8786 56.2545 77.9089 56.1937C77.9089 56.1633 77.9089 56.1026 77.9393 56.0722L77.9696 56.0418H78.0302C78.1211 56.0114 78.2121 56.0114 78.303 55.981C78.6668 55.9506 78.9094 55.9202 79.0912 55.8594C79.2125 55.7986 79.2731 55.7379 79.3035 55.6467C79.3641 55.5251 79.3641 55.4036 79.3944 55.2516C79.4247 54.8262 79.4247 53.6105 79.4247 52.243C79.4247 50.8754 79.4247 49.3255 79.4247 48.2011C79.1822 48.2011 78.7275 48.1707 78.303 48.2011C78.2424 48.2011 78.1515 48.2011 78.0605 48.2011C77.9696 48.2011 77.9089 48.2011 77.818 48.2011C77.6967 48.2315 77.6058 48.2315 77.5452 48.2923C77.4845 48.353 77.4239 48.4442 77.3936 48.5658C77.3329 48.7481 77.2723 48.9608 77.242 49.1736C77.1814 49.4167 77.1511 49.6598 77.1207 49.9333V49.9941L77.0904 50.0245C77.0298 50.1157 76.6963 50.1461 76.4841 50.1157C76.4538 50.1157 76.4235 50.1157 76.3932 50.0853C76.3325 50.0853 76.3022 50.0549 76.2719 50.0549L76.2416 49.9941L76.2113 49.9333C76.2113 49.7814 76.2113 49.6294 76.2113 49.4775C76.1506 48.6569 76.1203 47.8668 75.9688 47.3198V47.2286L75.9991 47.1678C75.9991 47.1374 76.0597 47.0462 76.1203 47.0159C76.1203 46.9855 76.1506 46.9855 76.1506 46.9855C76.181 46.9551 76.2113 46.9551 76.2416 46.9551C76.4538 46.9855 76.6357 47.0159 76.8479 47.0159C77.0904 47.0462 77.3633 47.0462 77.7877 47.0462H80.5161H83.2748C83.6689 47.0462 83.972 47.0462 84.1842 47.0159C84.4268 47.0159 84.6087 46.9855 84.7906 46.9551H84.8209C84.9118 46.9551 84.9725 47.0462 85.0331 47.107C85.0331 47.1374 85.0331 47.1374 85.0331 47.1374C85.0634 47.1678 85.0634 47.1678 85.0634 47.1678L85.0937 47.2286L85.0634 47.3198C84.9421 47.8668 84.9118 48.6569 84.8512 49.4775C84.8512 49.6294 84.8209 49.7814 84.8209 49.9029V49.9333V49.9941L84.7602 50.0549C84.6996 50.1157 84.3661 50.1461 84.1842 50.1157C84.1539 50.1157 84.1236 50.1157 84.0933 50.1157C84.0327 50.0853 84.0024 50.0853 83.972 50.0245L83.9417 49.9941V49.9333C83.9114 49.6598 83.8508 49.4167 83.8205 49.1736C83.7901 48.9608 83.7295 48.7481 83.6689 48.5658C83.6083 48.4442 83.5779 48.353 83.487 48.2923C83.4264 48.2315 83.3354 48.2315 83.2142 48.2011C83.0019 48.2011 82.7291 48.2011 82.4563 48.2011C82.4259 48.2011 82.3653 48.2011 82.3047 48.2011C82.0318 48.2011 81.7893 48.2011 81.6377 48.2011C81.6377 48.6265 81.6377 49.0824 81.6377 49.599C81.6377 51.7871 81.6377 54.5223 81.6681 55.2516C81.6681 55.4036 81.6984 55.5251 81.7287 55.6467C81.7893 55.7379 81.85 55.7986 81.9712 55.8594C82.1531 55.9202 82.3653 55.9506 82.7594 55.981C82.8504 56.0114 82.9413 56.0114 83.0019 56.0418H83.0626L83.0929 56.0722C83.1838 56.1633 83.1838 56.4976 83.1535 56.68C83.1232 56.7407 83.1232 56.7711 83.1232 56.8015C83.0929 56.8319 83.0626 56.8927 83.0626 56.8927L83.0019 56.9535H82.9413C82.7291 56.9535 82.4563 56.9535 82.0925 56.9231C81.6681 56.9231 81.183 56.8927 80.6373 56.8927ZM79.4247 48.1403V48.1707V48.1403Z" fill="#F7B941"/>
<path d="M37.8935 53.2152C37.8935 53.7015 37.8935 54.7348 37.9238 55.2514C37.9238 55.4337 37.9541 55.5857 38.0148 55.6769C38.0451 55.768 38.136 55.8288 38.2876 55.8896C38.5301 55.9504 38.803 55.9808 39.1364 56.0111C39.1668 56.0415 39.1971 56.0415 39.2577 56.0415H39.3183L39.3487 56.1023C39.379 56.1327 39.379 56.1631 39.4093 56.2239C39.4093 56.2543 39.4093 56.2847 39.4093 56.3454C39.4396 56.5278 39.379 56.8013 39.3183 56.8925L39.288 56.9532H39.1971C38.8939 56.9532 38.4998 56.9532 38.0754 56.9229C37.6813 56.9229 37.2569 56.9229 36.8325 56.9229C36.4687 56.9229 36.0746 56.9229 35.6805 56.9229C35.2864 56.9532 34.8923 56.9532 34.6194 56.9532H34.5285L34.4982 56.8925C34.4679 56.8621 34.4679 56.8013 34.4679 56.7709C34.4375 56.7405 34.4375 56.7101 34.4375 56.6797C34.4072 56.467 34.4375 56.1935 34.4679 56.1023L34.5285 56.0415H34.5891C34.7407 56.0111 34.8923 56.0111 35.0135 55.9808C35.1348 55.9808 35.2561 55.9504 35.3773 55.8896C35.4986 55.8592 35.5895 55.7984 35.6198 55.7072C35.6805 55.5857 35.6805 55.4033 35.7108 55.1906C35.7108 55.0994 35.7108 55.0387 35.7108 54.9171C35.7108 54.8259 35.7108 54.7044 35.7108 54.5828C35.7108 53.975 35.7411 53.0633 35.7411 51.7565C35.7411 50.085 35.7411 49.1733 35.7108 48.7479V48.7175C35.6805 48.5047 35.6805 48.3224 35.6198 48.2312C35.5592 48.1401 35.4683 48.0793 35.3167 48.0489C35.1954 48.0185 35.1045 47.9881 34.9832 47.9881C34.862 47.9577 34.7104 47.9273 34.5588 47.8969H34.4982L34.4679 47.8058C34.4375 47.7754 34.4375 47.745 34.4375 47.7146C34.4072 47.6842 34.4072 47.6538 34.4072 47.6234C34.4072 47.4107 34.4375 47.1372 34.4982 47.0764L34.5588 47.0156H34.6194C34.8013 47.0156 35.1045 47.0156 35.438 47.0156C35.8017 47.046 36.1655 47.046 36.5899 47.046C37.1053 47.046 37.5297 47.046 37.9845 47.046C38.4392 47.0156 38.8939 47.0156 39.4093 47.0156C39.6518 47.0156 39.9853 47.046 40.3491 47.1372C40.4097 47.1372 40.4703 47.1676 40.531 47.1676C40.8644 47.2587 41.1676 47.4107 41.4404 47.6234C41.5314 47.6842 41.592 47.745 41.6829 47.8058C41.7436 47.8969 41.8345 47.9881 41.8952 48.0489C42.2589 48.5047 42.5015 49.1126 42.5015 49.9331C42.5015 50.3586 42.4408 50.7232 42.3499 51.0271C42.2893 51.1791 42.2589 51.3007 42.1983 51.4222C41.9255 52.03 41.4707 52.4555 41.016 52.729C40.9857 52.7594 41.016 52.729 41.016 52.729C40.9251 52.7898 40.8341 52.8202 40.7432 52.8809C40.6825 52.9113 40.5916 52.9417 40.5006 52.9721C40.0762 53.1545 39.6215 53.2456 39.1971 53.2456L37.8935 53.2152ZM37.8935 52.2124H38.7727L38.8939 52.182C39.0152 52.182 39.1364 52.182 39.2577 52.1516C39.3487 52.1212 39.4396 52.0604 39.5305 51.9996C39.7731 51.8477 39.955 51.6349 40.0762 51.3614C40.1975 51.0879 40.2581 50.7232 40.2278 50.2674C40.2278 49.5988 40.0762 49.0518 39.7731 48.6567C39.4699 48.2616 38.9849 48.0489 38.3786 48.0489C38.3179 48.0489 38.227 48.0489 38.136 48.0793H38.1057C38.0451 48.0793 38.0148 48.0793 37.9541 48.1097C37.9541 48.1401 37.9238 48.1705 37.9238 48.2008C37.9238 48.444 37.8935 48.7479 37.8935 49.2645C37.8935 49.7508 37.8935 50.5105 37.8935 51.6957V51.8781C37.8935 51.9996 37.8935 52.0908 37.8935 52.2124Z" fill="#F7B941"/>
<path d="M47.352 56.1944C47.3823 56.1336 47.4126 56.1033 47.4429 56.0729L47.4732 56.0425H47.5035L48.0795 55.9209C48.2917 55.8905 48.413 55.7993 48.4736 55.6778C48.5646 55.5258 48.5646 55.2827 48.5949 54.8876C48.5949 54.2494 48.5949 53.0034 48.5949 52.3045C48.4736 52.3349 48.3524 52.3652 48.2311 52.4564C48.0795 52.5476 47.928 52.6995 47.7764 52.9123C47.5945 53.2162 47.261 53.8544 46.9275 54.4318C46.6244 54.9484 46.3516 55.4651 46.2 55.7082C46.1697 55.7386 46.1393 55.7993 46.109 55.8297C45.6846 56.4072 45.4118 56.7111 44.5023 56.8934C44.2901 56.9238 43.9566 56.9542 43.5928 56.9542C43.2291 56.9542 42.835 56.9542 42.4409 56.9542H42.3802L42.3196 56.8934C42.259 56.8022 42.2286 56.4983 42.259 56.316C42.259 56.2856 42.259 56.2552 42.259 56.2248C42.259 56.164 42.2893 56.1336 42.2893 56.1033L42.3499 56.0425H42.3802C42.8653 55.9513 43.1684 55.8905 43.411 55.769C43.6535 55.6474 43.8051 55.4651 44.0173 55.2219C44.2295 54.8876 44.5023 54.4926 44.7145 54.1583C44.9267 53.8544 45.0783 53.5809 45.1996 53.4289C45.5937 52.8211 45.8665 52.426 46.109 52.1525C46.2909 51.9398 46.4728 51.7878 46.6547 51.6663C46.5031 51.5143 46.3819 51.332 46.2303 51.0889C46.0181 50.785 45.8059 50.3899 45.533 49.8125C45.2602 49.2654 45.0783 48.9615 44.8964 48.8096C44.7751 48.688 44.6539 48.6576 44.472 48.6576C44.1082 48.6576 43.7141 48.7792 43.411 48.9008C43.411 48.9311 43.3806 48.9311 43.3806 48.9311C43.3503 48.9311 43.32 48.9615 43.2897 48.9615C43.2291 48.9615 43.1684 48.9008 43.1078 48.84C43.0775 48.8096 43.0472 48.7488 43.0169 48.688C43.0169 48.6576 43.0169 48.6272 43.0169 48.5969C43.0169 48.3233 43.0775 47.8979 43.1684 47.5636C43.1684 47.5028 43.1987 47.442 43.2291 47.3812C43.2594 47.3205 43.2594 47.2597 43.2897 47.1989C43.3503 47.1381 43.411 47.0469 43.5019 46.9862C43.5019 46.9558 43.5322 46.9558 43.5322 46.9254C43.5625 46.9254 43.5625 46.9254 43.5928 46.895C43.6838 46.8646 43.7747 46.8646 43.8354 46.8342C43.8657 46.8342 43.896 46.8342 43.896 46.8342C44.0173 46.8038 44.1082 46.7734 44.1992 46.7734C44.6842 46.7734 45.0177 46.9558 45.3208 47.2293C45.624 47.5028 45.8362 47.9283 46.0787 48.4145C46.3516 48.9919 46.5334 49.4174 46.7153 49.7517C46.8669 50.1164 47.0185 50.3595 47.1701 50.6026C47.3217 50.8761 47.5035 51.0585 47.7461 51.18C47.9886 51.3016 48.2614 51.332 48.6252 51.3624C48.6252 51.2104 48.6252 51.0889 48.6252 50.9369C48.6252 50.1164 48.6252 49.1743 48.5949 48.6576C48.5646 48.4753 48.5646 48.3233 48.504 48.2322C48.4433 48.141 48.3524 48.0802 48.2008 48.0498C48.1099 48.0194 48.0189 48.0194 47.928 47.989C47.8067 47.989 47.6551 47.9587 47.5035 47.9283H47.4732L47.4429 47.8979C47.4126 47.8675 47.4126 47.8067 47.3823 47.7459C47.3823 47.6851 47.352 47.5332 47.3823 47.4116C47.3823 47.2901 47.4126 47.1381 47.4732 47.0773C47.4732 47.0469 47.5035 47.0166 47.5642 47.0166H47.5945C47.7158 47.0166 48.0492 47.0166 48.4736 47.0166C48.8374 47.0469 49.2922 47.0469 49.5953 47.0469C50.141 47.0469 50.626 47.0469 50.9898 47.0166C51.3233 47.0166 51.5658 46.9862 51.6871 47.0166H51.7174H51.7477C51.778 47.0469 51.8083 47.0773 51.8387 47.1381C51.869 47.1989 51.8993 47.3205 51.8993 47.442C51.8993 47.5636 51.869 47.6851 51.8387 47.7763C51.8387 47.8371 51.8083 47.8675 51.7477 47.8979V47.9283H51.7174C51.5658 47.9587 51.4749 47.9587 51.3839 47.989C51.3233 47.989 51.2323 48.0194 51.1414 48.0194V48.0498C50.9898 48.0802 50.8686 48.1106 50.8079 48.2322C50.7473 48.3233 50.7473 48.5057 50.7473 48.7488C50.717 49.0223 50.717 49.387 50.717 49.7821C50.717 49.8429 50.717 49.934 50.717 49.9948C50.717 50.4507 50.717 50.9369 50.717 51.3624C51.1414 51.3624 51.5355 51.2408 51.8083 51.0585C51.869 51.0281 51.8993 50.9673 51.9599 50.9369C51.9902 50.8761 52.0509 50.8457 52.0812 50.785C52.2328 50.5722 52.445 50.2379 52.6269 49.8732C52.6572 49.8125 52.6875 49.7517 52.7178 49.6605C52.7481 49.5997 52.8088 49.539 52.8391 49.4478C53.2938 48.5057 53.6879 47.8371 54.082 47.4116C54.4761 46.9862 54.9005 46.7734 55.4159 46.7734C55.5978 46.7734 55.7797 46.8342 55.9009 46.9254C55.9312 46.9254 55.9616 46.9254 55.9919 46.9558C56.0222 46.9558 56.0525 46.9862 56.0525 46.9862L56.0828 47.0166C56.1435 47.0469 56.1738 47.1685 56.2041 47.2597C56.2041 47.2597 56.2041 47.2901 56.2344 47.2901C56.2344 47.3205 56.2344 47.3812 56.2344 47.4116C56.2344 47.594 56.1131 48.141 55.9919 48.5057C55.9616 48.5665 55.9312 48.6576 55.9312 48.7184C55.9009 48.7488 55.8706 48.8096 55.8403 48.84C55.81 48.9311 55.719 48.9919 55.6584 49.0223H55.6281C55.5978 49.0223 55.5675 49.0527 55.5371 49.0527H55.5068L55.4765 49.0223C55.3553 48.9311 55.234 48.8704 55.1127 48.84C55.0824 48.84 55.0824 48.8096 55.0521 48.8096C54.9005 48.7792 54.7793 48.7488 54.6883 48.7488C54.5367 48.7488 54.4458 48.7792 54.3245 48.9008C54.173 49.0223 54.0214 49.2654 53.8092 49.6909C53.5363 50.2683 53.3241 50.6634 53.1422 50.9673C52.9906 51.2104 52.8694 51.3928 52.7178 51.5143C52.8997 51.6359 53.0513 51.7574 53.2029 51.9094C53.4151 52.1221 53.597 52.3652 53.8395 52.7299C53.9607 52.9427 54.082 53.1554 54.2033 53.3985C54.4155 53.7632 54.658 54.1887 54.9612 54.6445C55.3553 55.2219 55.6281 55.5562 55.9009 55.769C56.2041 55.9513 56.5072 56.0121 56.9923 56.0425H57.0226H57.0529C57.1136 56.0729 57.1439 56.1336 57.1439 56.2248C57.1742 56.2856 57.1742 56.4072 57.1439 56.5287C57.1439 56.6199 57.1136 56.7414 57.0832 56.8326C57.0529 56.8934 57.0226 56.9542 56.962 56.9542C56.7498 57.015 55.9009 57.015 55.2643 56.9846C55.143 56.9846 55.0218 56.9846 54.9308 56.9846C54.8096 56.9846 54.7489 56.9542 54.6883 56.9542C54.3852 56.9238 54.1426 56.863 53.9911 56.7414C53.8092 56.6503 53.6879 56.5287 53.5666 56.3768C53.1422 55.8905 52.7481 55.1308 52.2934 54.2798C52.0812 53.9152 51.869 53.5201 51.6568 53.125C51.4446 52.7907 51.293 52.578 51.1111 52.4564C50.9898 52.3956 50.8686 52.3349 50.717 52.3349C50.717 52.9123 50.717 53.7936 50.717 54.4926C50.717 54.6445 50.717 54.7661 50.717 54.918C50.717 55.0396 50.717 55.1612 50.7473 55.2523C50.7473 55.4954 50.7473 55.617 50.8079 55.7082C50.8686 55.7993 50.9595 55.8601 51.1111 55.8905C51.202 55.9209 51.293 55.9513 51.4142 55.9513C51.5052 55.9817 51.6568 56.0121 51.8083 56.0121L51.8387 56.0425H51.869C51.8993 56.0729 51.9296 56.1033 51.9599 56.164C51.9902 56.2552 51.9902 56.3768 51.9902 56.4983C51.9902 56.6199 51.9599 56.7414 51.9296 56.8022C51.8993 56.863 51.869 56.9238 51.8083 56.9542H51.778H51.7477C51.5658 56.9542 50.9898 56.9238 50.4745 56.9238C50.3835 56.9238 50.2623 56.9238 50.1713 56.9238C49.9894 56.9238 49.7772 56.9238 49.6559 56.9238C49.2315 56.9238 48.5646 56.9238 48.0795 56.9542C47.9583 56.9542 47.8673 56.9542 47.7764 56.9542C47.7158 56.9542 47.6248 56.9542 47.5642 56.9542H47.5339H47.5035C47.4732 56.9238 47.4429 56.8934 47.4126 56.863C47.352 56.7718 47.352 56.6503 47.3217 56.5287C47.3217 56.4072 47.3217 56.2856 47.352 56.1944Z" fill="#F7B941"/>
<path d="M58.598 47.9892C58.4767 47.9892 58.3251 47.9588 58.1736 47.9284H58.1129L58.0826 47.898V47.8676C58.022 47.8069 57.9917 47.6245 58.022 47.4726C58.022 47.3206 58.0523 47.1383 58.1129 47.0775L58.1736 47.0471H58.2039C58.4767 47.0471 58.8405 47.0471 59.2346 47.0471C59.6287 47.0775 60.0531 47.0775 60.4169 47.0775H63.4485C63.8426 47.0775 64.3882 47.0775 64.843 47.0471C64.9339 47.0471 64.9946 47.0167 65.0855 47.0167C65.1461 47.0167 65.2068 47.0167 65.2674 46.9863H65.328L65.3583 47.0167C65.3887 47.0167 65.4493 47.0775 65.4493 47.1079C65.4796 47.1079 65.4796 47.1383 65.4796 47.1383C65.4796 47.1687 65.5099 47.1991 65.5099 47.2295V47.2598L65.4796 47.2902C65.419 47.6245 65.3583 48.2323 65.328 48.8705C65.2977 48.9921 65.2977 49.1136 65.2977 49.2352C65.2977 49.3568 65.2977 49.4783 65.2674 49.5695V49.6607L65.2068 49.7215C65.1158 49.7822 64.843 49.8126 64.6611 49.8126C64.6308 49.8126 64.6005 49.8126 64.5701 49.7822C64.5095 49.7822 64.4792 49.7822 64.4489 49.7518L64.3882 49.7215V49.6303C64.3579 49.3872 64.3276 49.1744 64.2973 49.0225C64.267 48.8705 64.2063 48.749 64.176 48.6274C64.1154 48.4755 64.0548 48.4147 63.9638 48.3539C63.8729 48.2931 63.7819 48.2627 63.6607 48.2627C63.3878 48.2323 62.5087 48.2019 61.963 48.2323C61.8417 48.2323 61.7508 48.2323 61.6902 48.2323C61.6295 48.2323 61.5689 48.2323 61.5386 48.2323C61.5386 48.2627 61.5083 48.2931 61.5083 48.3235C61.5083 48.3539 61.5083 48.3539 61.478 48.3539C61.478 48.8705 61.478 49.3568 61.478 49.8734C61.478 50.39 61.478 50.8763 61.478 51.3625C61.5689 51.3625 61.6598 51.3625 61.7205 51.3625C62.2358 51.3625 62.9937 51.3625 63.4181 51.3321C63.5091 51.3321 63.6 51.3017 63.6304 51.241C63.691 51.1802 63.7213 51.089 63.7819 50.9371C63.7819 50.8763 63.8122 50.7851 63.8426 50.6636C63.8729 50.5724 63.8729 50.4812 63.9032 50.3596V50.2989L63.9638 50.2685C64.0548 50.1773 64.3579 50.1773 64.5701 50.2077C64.6005 50.2381 64.6308 50.2381 64.6611 50.2381C64.6914 50.2381 64.752 50.2685 64.752 50.2989L64.843 50.3293V50.4508C64.8127 50.542 64.8127 50.6332 64.8127 50.7243C64.7823 51.089 64.7217 51.5753 64.7217 51.9703C64.7217 52.3654 64.752 52.8517 64.752 53.2467C64.752 53.3379 64.7823 53.4291 64.7823 53.5202V53.6114L64.6914 53.6722C64.6308 53.733 64.3276 53.7634 64.1457 53.7634C64.0851 53.733 64.0548 53.733 64.0245 53.733C63.9941 53.733 63.9638 53.7026 63.9335 53.7026L63.8729 53.6722V53.581C63.8122 53.3683 63.7819 53.2771 63.7819 53.1859C63.7516 53.0948 63.7516 53.034 63.7213 52.9428C63.691 52.8517 63.6607 52.7909 63.6 52.7301C63.5394 52.6693 63.4788 52.6389 63.3575 52.6389C63.024 52.5781 61.9933 52.5781 61.478 52.5781V55.3133C61.478 55.4652 61.5386 55.5868 61.6295 55.6476L61.6598 55.6779C61.6902 55.6779 61.7205 55.6779 61.7205 55.7083C61.8417 55.7387 62.0539 55.7387 62.3571 55.7691C62.4177 55.7691 62.4784 55.7691 62.539 55.7691C62.9028 55.7995 63.3272 55.7995 63.7213 55.7995C63.9941 55.7995 64.176 55.7691 64.3276 55.7083C64.4489 55.6476 64.5701 55.5564 64.7217 55.3437C64.9036 55.1309 65.0855 54.7662 65.2674 54.4319C65.2977 54.3408 65.328 54.28 65.3583 54.2192C65.3887 54.1584 65.419 54.0673 65.4493 54.0065L65.4796 53.9153H65.5705C65.6615 53.8849 65.9343 53.9761 66.0859 54.0673C66.1162 54.0673 66.1465 54.0977 66.1769 54.0977C66.2072 54.128 66.2375 54.1584 66.2678 54.1888L66.2981 54.2496V54.3104C66.2375 54.6447 66.0556 55.4348 65.8434 56.0426C65.8131 56.1642 65.7828 56.2554 65.7221 56.3769C65.6918 56.4681 65.6615 56.5593 65.6009 56.6504C65.5705 56.7416 65.5099 56.8328 65.3583 56.9239C65.2371 56.9847 65.0249 57.0151 64.6611 57.0151C64.1154 57.0151 63.4788 56.9847 62.8118 56.9847C62.1146 56.9543 61.3264 56.9543 60.4472 56.9543C60.0228 56.9543 59.5681 56.9543 59.1133 56.9543C58.6586 56.9847 58.2039 56.9847 57.8401 56.9847H57.7491L57.7188 56.8936C57.6582 56.772 57.6582 56.5289 57.6582 56.3465C57.6582 56.3161 57.6582 56.2858 57.6885 56.2554C57.6885 56.225 57.6885 56.1946 57.7188 56.1642L57.7491 56.073H57.8098C58.0826 56.0426 58.2948 56.0122 58.507 55.9818C58.6889 55.9515 58.8405 55.9211 58.9315 55.8907C59.0527 55.8603 59.1437 55.7995 59.2043 55.7083C59.2346 55.6172 59.2649 55.4956 59.2952 55.2829C59.3256 54.5839 59.3256 53.3987 59.3256 51.5753C59.3256 50.9371 59.3256 50.2685 59.2952 49.8126C59.2952 49.296 59.2952 48.8705 59.2952 48.6274C59.2649 48.4147 59.2346 48.2931 59.2043 48.2323C59.1437 48.1715 59.083 48.1412 58.9618 48.0804C58.8405 48.05 58.7496 48.0196 58.598 47.9892ZM61.478 52.5477V52.5781C61.478 52.5781 61.478 52.5781 61.478 52.5477Z" fill="#F7B941"/>
<path d="M74.2109 49.9636C74.1806 49.9332 74.1806 49.9028 74.1502 49.842C74.0896 49.3254 73.9987 48.9607 73.9077 48.6872C73.7865 48.444 73.6349 48.2617 73.362 48.1097C73.1195 47.9578 72.8467 47.8666 72.5738 47.8362C72.301 47.7755 71.9978 47.7451 71.6947 47.7451H71.6644C70.8459 47.7451 70.1789 48.0794 69.7242 48.7176C69.2391 49.3861 68.9966 50.389 68.9966 51.6958C68.9966 52.7291 69.2088 53.7927 69.7545 54.6133C70.3002 55.4034 71.1187 55.9504 72.301 55.9504C72.5435 55.9504 72.8164 55.9201 73.0286 55.8593C73.2711 55.7681 73.4833 55.6769 73.6652 55.4946H73.6955C73.938 55.2819 74.2109 54.9172 74.4837 54.4917C74.5443 54.4005 74.605 54.3094 74.6353 54.2486C74.6959 54.1574 74.7566 54.0662 74.7869 53.9751L74.8475 53.8839H74.9384C75.0294 53.9143 75.2416 54.0055 75.3629 54.127C75.3932 54.1574 75.4235 54.1878 75.4538 54.2182C75.4841 54.2486 75.4841 54.279 75.5144 54.3094L75.5448 54.3701L75.5144 54.4613C75.3932 54.9476 74.9991 55.7681 74.6656 56.2847C74.605 56.3759 74.514 56.4671 74.4534 56.5582C74.3928 56.619 74.3018 56.6798 74.2412 56.7406H74.2109C73.9684 56.8318 73.6652 56.9533 73.3014 57.0141C72.9073 57.1053 72.4526 57.1661 71.9372 57.1661C70.2395 57.1661 68.9057 56.6798 67.9659 55.7985C67.0261 54.9172 66.5107 53.58 66.5107 51.8478C66.5107 50.541 66.9352 49.295 67.8143 48.3529C67.9659 48.1705 68.1781 47.9882 68.36 47.8362C68.5722 47.6843 68.7844 47.5323 69.0269 47.4108C69.421 47.198 69.8758 47.0157 70.3911 46.9245C70.9065 46.803 71.4522 46.7422 72.0888 46.7422C72.877 46.7422 73.6349 46.8334 74.2412 46.9245C74.5747 46.9549 74.8778 46.9853 75.09 47.0157H75.2719L75.2416 47.198C75.181 47.5931 75.09 48.3225 75.0597 49.0215C75.0294 49.1734 75.0294 49.295 75.0294 49.4165C75.0294 49.5381 75.0294 49.6597 75.0294 49.7508V49.7812V49.8116L74.9991 49.8724C74.9384 49.9332 74.8475 49.9636 74.7566 49.9939C74.6656 50.0243 74.5747 50.0243 74.4837 50.0243C74.3625 50.0243 74.2715 50.0243 74.2109 49.9636Z" fill="#F7B941"/>
<path d="M86.4893 47.9276C86.3681 47.8972 86.2165 47.8668 86.0952 47.8668L86.0649 47.8364L86.0346 47.806C86.0043 47.806 86.0043 47.7756 85.974 47.7756C85.9437 47.6844 85.9133 47.5325 85.9133 47.3805C85.9133 47.2286 85.9437 47.0766 86.0043 47.0159L86.0346 46.9855L86.0649 46.9551H86.1255C86.2165 46.9551 86.4893 46.9551 86.8228 46.9855C87.1563 46.9855 87.5807 47.0159 88.1264 47.0159V46.9855C88.7024 46.9855 89.1874 46.9855 89.6118 46.9855C90.0362 46.9551 90.4 46.9551 90.7032 46.9551C91.4004 46.9551 92.128 47.0462 92.704 47.3805C93.28 47.7148 93.7044 48.3226 93.7044 49.2951C93.7044 49.9637 93.3709 50.6019 92.795 51.0274C92.704 51.1185 92.5827 51.1793 92.4615 51.2401C92.4312 51.2705 92.4312 51.2705 92.4009 51.2705C92.8859 51.4224 93.3406 51.6656 93.6741 51.9695C94.0985 52.3949 94.341 52.942 94.341 53.6713C94.341 54.3703 94.1895 54.9173 93.856 55.4036C93.5225 55.8594 93.0375 56.2241 92.4312 56.528C92.128 56.6496 91.7945 56.7711 91.4308 56.8319C91.3398 56.8623 91.2792 56.8623 91.2185 56.8623C90.7638 56.9535 90.3091 56.9839 89.8847 56.9839C89.5512 56.9839 88.8236 56.9535 88.0354 56.9535C87.2472 56.9231 86.4287 56.8927 85.9437 56.8927V56.9231H85.883L85.8224 56.8623C85.8224 56.8319 85.8224 56.8319 85.8224 56.8319C85.7618 56.7407 85.7314 56.5888 85.7314 56.4368C85.7314 56.2545 85.7618 56.1025 85.8527 56.0418C85.8527 56.0114 85.8527 56.0114 85.8527 56.0114L85.883 55.981H85.9133C86.1255 55.9506 86.3074 55.9506 86.459 55.9202C86.6409 55.8898 86.7622 55.8594 86.8834 55.829C86.9744 55.7986 87.035 55.7379 87.0956 55.6467C87.126 55.5555 87.1563 55.434 87.1866 55.2212C87.2169 54.7958 87.2169 53.3978 87.2169 51.8783C87.2169 50.9666 87.2169 50.298 87.2169 49.8422C87.2169 49.3255 87.2169 48.9001 87.1866 48.5354C87.1866 48.353 87.1563 48.2315 87.126 48.1707C87.0653 48.0795 87.0047 48.0491 86.8834 48.0187C86.7925 47.958 86.6409 47.9276 86.4893 47.9276ZM89.7634 47.9883C89.6725 47.9883 89.5815 47.9883 89.4906 48.0187C89.4603 48.0187 89.4603 48.0187 89.4299 48.0187C89.3996 48.0187 89.3996 48.0491 89.3996 48.0795C89.3693 48.4746 89.339 49.9941 89.339 50.997C89.3996 51.0274 89.4603 51.0274 89.5512 51.0274C89.5815 51.0274 89.5815 51.0274 89.6118 51.0274C89.7331 51.0274 89.8847 51.0274 90.0666 51.0274C90.4303 51.0274 90.7335 50.997 90.9154 50.9666C90.976 50.9362 91.0063 50.9362 91.0367 50.9362C91.0367 50.9058 91.067 50.9058 91.067 50.9058H91.0973C91.2185 50.8146 91.3398 50.6931 91.4308 50.5411C91.4308 50.5107 91.4611 50.4803 91.4611 50.45C91.552 50.2372 91.5823 49.9941 91.5823 49.751C91.5823 49.204 91.4611 48.7481 91.1579 48.4442C90.8548 48.1403 90.4 47.9883 89.7634 47.9883ZM90.5516 55.9506C90.976 55.9506 91.3701 55.7986 91.6126 55.4947C91.8855 55.1605 92.0371 54.7046 92.0371 54.036C92.0371 53.4282 91.8552 52.9116 91.4914 52.5773C91.1276 52.243 90.5516 52.0606 89.8544 52.0606C89.7028 52.0606 89.4906 52.0606 89.339 52.0606C89.339 53.1547 89.339 54.583 89.3996 55.2212C89.3996 55.3428 89.4603 55.4947 89.5209 55.5859C89.5512 55.5859 89.5512 55.6163 89.5815 55.6467C89.5815 55.6467 89.5815 55.6771 89.6118 55.6771C89.7028 55.7683 89.824 55.829 89.9756 55.8594C90.0059 55.8898 90.0362 55.8898 90.0666 55.8898C90.2485 55.9506 90.4303 55.9506 90.5516 55.9506Z" fill="#F7B941"/>
<path d="M33.7697 52.031C33.7697 52.8515 33.6484 53.5505 33.3756 54.2191C33.1331 54.8572 32.7693 55.4043 32.3146 55.8601C31.8598 56.316 31.3445 56.6503 30.7381 56.8934C30.1318 57.1365 29.4649 57.2581 28.798 57.2581C27.8279 57.2581 26.979 57.0453 26.2515 56.6199C25.4936 56.2248 24.8873 55.617 24.4628 54.8269C24.0384 54.0367 23.7959 53.0946 23.7959 52.0006C23.7959 51.2104 23.9475 50.5114 24.19 49.8429C24.4325 49.2047 24.7963 48.6576 25.251 48.2018C25.7058 47.7459 26.2211 47.3812 26.8274 47.1381C27.4338 46.895 28.0704 46.7734 28.7676 46.7734C29.7074 46.7734 30.5563 46.9862 31.3141 47.4116C32.072 47.8371 32.6783 48.4449 33.1028 49.235C33.5575 50.0556 33.7697 50.9673 33.7697 52.031ZM31.3141 52.031C31.3141 50.8457 31.1322 49.8429 30.7685 49.0223C30.4047 48.2018 29.7377 47.8067 28.798 47.8067C28.1916 47.8067 27.6763 48.0194 27.3125 48.4449C26.9487 48.8704 26.6759 49.387 26.5243 50.0252C26.3424 50.6634 26.2818 51.332 26.2818 52.031C26.2818 53.1858 26.4637 54.1583 26.8578 54.9788C27.2519 55.8297 27.8885 56.2248 28.8283 56.2248C29.768 56.2248 30.4047 55.8297 30.7685 55.0092C31.1322 54.1887 31.3141 53.1858 31.3141 52.031Z" fill="#F7B941"/>
<path d="M34.3474 35.5559C34.2868 35.5255 34.1959 35.5255 34.1049 35.5255H34.0746L34.0443 35.4952C34.014 35.4344 33.9837 35.3432 34.014 35.252C34.014 35.1609 34.0443 35.0697 34.0746 35.0393L34.1049 35.0089H34.1352C34.2868 35.0089 34.499 35.0089 34.7415 35.0393C34.9537 35.0393 35.1963 35.0393 35.4388 35.0393H37.2274C37.4699 35.0393 37.7731 35.0393 38.0459 35.0089C38.1066 35.0089 38.1369 35.0089 38.1975 35.0089C38.2278 35.0089 38.2884 35.0089 38.3188 34.9785H38.3491V35.0089C38.3794 35.0089 38.4097 35.0393 38.4097 35.0393C38.44 35.0697 38.44 35.0697 38.44 35.0697C38.44 35.1001 38.44 35.1001 38.44 35.1305V35.1609C38.4097 35.3432 38.3794 35.6775 38.3491 36.0422C38.3188 36.103 38.3188 36.1637 38.3188 36.2245C38.3188 36.3157 38.3188 36.3765 38.3188 36.4372V36.4676L38.2884 36.498C38.2278 36.5588 38.0459 36.5588 37.955 36.5588C37.9247 36.5588 37.8943 36.5588 37.8943 36.5588C37.864 36.5588 37.8337 36.5284 37.8337 36.5284L37.8034 36.498L37.7731 36.4676C37.7731 36.3157 37.7428 36.2245 37.7428 36.1333C37.7125 36.0422 37.6821 35.951 37.6518 35.8902C37.6215 35.8294 37.5912 35.7687 37.5306 35.7383C37.4699 35.7079 37.4093 35.7079 37.3487 35.6775C37.1971 35.6775 36.6514 35.6775 36.3483 35.6775C36.2876 35.6775 36.227 35.6775 36.1664 35.6775C36.1361 35.6775 36.1057 35.6775 36.1057 35.6775C36.1057 35.6775 36.0754 35.7079 36.0754 35.7383C36.0754 35.7383 36.0754 35.7383 36.0754 35.7687C36.0754 36.0422 36.0754 36.3157 36.0754 36.5892C36.0754 36.8627 36.0754 37.1666 36.0754 37.4097C36.1057 37.4097 36.1664 37.4097 36.227 37.4097C36.4998 37.4097 36.9546 37.4401 37.1971 37.4097C37.2577 37.4097 37.3184 37.3793 37.3487 37.349C37.379 37.3186 37.4093 37.2578 37.4093 37.197C37.4396 37.1362 37.4396 37.1058 37.4699 37.0451C37.4699 36.9843 37.4699 36.9235 37.5002 36.8627V36.8323L37.5306 36.8019C37.5912 36.7715 37.7731 36.7715 37.8943 36.8019C37.9247 36.8019 37.9247 36.8019 37.955 36.8019C37.9853 36.8019 37.9853 36.8019 38.0156 36.8323L38.0459 36.8627V36.9235C38.0459 36.9539 38.0459 37.0147 38.0459 37.0754C38.0156 37.2578 37.9853 37.5617 37.9853 37.7744C37.9853 37.9872 37.9853 38.2607 38.0156 38.4734C38.0156 38.5342 38.0156 38.5646 38.0156 38.6253V38.6861L37.9853 38.7165C37.9247 38.7469 37.7428 38.7773 37.6215 38.7469C37.6215 38.7469 37.5912 38.7469 37.5609 38.7469C37.5609 38.7469 37.5306 38.7469 37.5002 38.7165H37.4699V38.6557C37.4396 38.5342 37.4396 38.4734 37.4093 38.443C37.4093 38.3822 37.4093 38.3518 37.379 38.2911C37.379 38.2607 37.3487 38.2303 37.3184 38.1999C37.288 38.1695 37.2274 38.1391 37.1668 38.1391C36.9849 38.1087 36.3483 38.1087 36.0754 38.1087V39.6282C36.0754 39.7194 36.1057 39.7802 36.1361 39.8106C36.1664 39.8106 36.1664 39.8106 36.1664 39.841C36.1967 39.841 36.1967 39.841 36.1967 39.841C36.2876 39.8713 36.4089 39.8713 36.5605 39.8713C36.6211 39.8713 36.6514 39.8713 36.6817 39.9017C36.8939 39.9017 37.1668 39.9017 37.379 39.9017C37.5609 39.9017 37.6518 39.9017 37.7428 39.841C37.8337 39.8106 37.8943 39.7498 37.9853 39.6586C38.1066 39.5067 38.1975 39.3243 38.3188 39.142C38.3188 39.0812 38.3491 39.0508 38.3491 39.0204C38.3794 38.99 38.4097 38.9293 38.4097 38.8989L38.44 38.8381H38.4703C38.531 38.8381 38.7129 38.8685 38.8038 38.9293C38.8038 38.9293 38.8341 38.9596 38.8644 38.9596L38.8948 38.99L38.9251 39.0508V39.0812C38.8948 39.2635 38.7735 39.689 38.6522 40.0233C38.6219 40.0841 38.5916 40.1753 38.5916 40.2056C38.5613 40.2664 38.531 40.3272 38.5007 40.388C38.4703 40.4184 38.44 40.4792 38.3491 40.5095C38.2884 40.5399 38.1672 40.5703 37.955 40.5703C37.6215 40.5703 37.2577 40.5703 36.8636 40.5703C36.4392 40.5399 35.9845 40.5399 35.4691 40.5399C35.1963 40.5399 34.9234 40.5399 34.6506 40.5399C34.3778 40.5703 34.1352 40.5703 33.8927 40.5703H33.8624L33.8321 40.5095C33.8018 40.4488 33.8018 40.2968 33.8018 40.2056C33.8018 40.1753 33.8018 40.1753 33.8018 40.1449C33.8018 40.1449 33.8018 40.1145 33.8321 40.0841V40.0537H33.8927C34.0443 40.0233 34.1655 40.0233 34.2868 39.9929C34.4081 39.9929 34.499 39.9625 34.5596 39.9321C34.6203 39.9321 34.6809 39.9017 34.7112 39.8713C34.7415 39.8106 34.7415 39.7194 34.7719 39.5978C34.7719 39.2332 34.7719 38.5646 34.7719 37.5617C34.7719 37.197 34.7719 36.8019 34.7719 36.5588C34.7719 36.2853 34.7719 36.0422 34.7719 35.8902C34.7415 35.7991 34.7415 35.7079 34.7112 35.6775C34.6809 35.6471 34.6506 35.6167 34.5596 35.5863C34.499 35.5863 34.4384 35.5559 34.3474 35.5559ZM37.9247 36.8931L37.955 36.8019L37.9247 36.8931ZM38.0156 36.8323L37.955 36.8931L38.0156 36.8323Z" fill="#F7B941"/>
<path d="M44.8667 36.6808C44.8667 36.6504 44.8363 36.6201 44.8363 36.5897C44.7757 36.3162 44.7454 36.1034 44.6848 35.9515C44.6241 35.8299 44.5332 35.7083 44.3513 35.6172C44.23 35.5564 44.0785 35.4956 43.8966 35.4652C43.745 35.4348 43.5631 35.4348 43.3509 35.4348C42.8658 35.4348 42.4717 35.6172 42.1989 35.9819C41.9261 36.3465 41.7745 36.8936 41.7745 37.6229C41.7745 38.2004 41.8957 38.8082 42.2292 39.264C42.5324 39.6895 43.0477 39.9934 43.745 39.9934C43.8966 39.9934 44.0178 39.9934 44.1694 39.963C44.321 39.9022 44.4422 39.8414 44.5635 39.7503C44.6848 39.6287 44.8667 39.416 45.0486 39.2032C45.0789 39.1425 45.1092 39.0817 45.1395 39.0513C45.1698 38.9905 45.2001 38.9601 45.2304 38.8993V38.8385L45.2911 38.8689C45.3517 38.8689 45.473 38.9297 45.5639 38.9905C45.5639 39.0209 45.5942 39.0209 45.5942 39.0209C45.6245 39.0513 45.6245 39.0817 45.6245 39.0817L45.6549 39.1121V39.1728C45.5639 39.4464 45.3517 39.9022 45.1395 40.1757C45.0789 40.2365 45.0486 40.2973 45.0182 40.3277C44.9576 40.3885 44.9273 40.4188 44.897 40.4492H44.8667C44.7151 40.51 44.5332 40.5708 44.321 40.6012C44.1088 40.6316 43.8359 40.662 43.5025 40.662C42.5021 40.662 41.7138 40.4188 41.1682 39.9326C40.6225 39.416 40.3193 38.6866 40.3193 37.7141C40.3193 36.9847 40.5619 36.2858 41.0772 35.7691C41.1682 35.678 41.2894 35.5564 41.4107 35.4956C41.532 35.4044 41.6532 35.3133 41.7745 35.2525C42.017 35.1309 42.2898 35.0398 42.593 34.9486C42.8962 34.8878 43.2296 34.8574 43.5934 34.8574C44.0785 34.8574 44.5332 34.9182 44.897 34.979C45.0789 34.979 45.2608 35.0094 45.382 35.0094H45.5033L45.473 35.1309C45.4427 35.3437 45.382 35.7691 45.3517 36.1338C45.3517 36.225 45.3517 36.2858 45.3517 36.3465C45.3517 36.4377 45.3517 36.4985 45.3517 36.5593V36.5897L45.3214 36.6201C45.2911 36.6504 45.2608 36.6808 45.1698 36.6808C45.1395 36.7112 45.0789 36.7112 45.0182 36.7112C44.9576 36.7112 44.897 36.6808 44.8667 36.6808Z" fill="#F7B941"/>
<path d="M67.0899 40.177C67.0899 40.1466 67.0899 40.1466 67.0899 40.1162L67.1202 40.0858H67.1505C67.4537 40.025 67.6356 39.9946 67.7568 39.9035C67.8781 39.8123 67.969 39.6603 68.0903 39.3868C68.4238 38.5967 68.9088 37.3507 69.212 36.4997C69.2726 36.3174 69.3332 36.1655 69.3939 36.0743C69.4242 35.9527 69.4545 35.8312 69.4848 35.74C69.5454 35.6184 69.6061 35.4361 69.6364 35.2841C69.6364 35.2537 69.6667 35.2234 69.6667 35.193C69.6667 35.1626 69.6667 35.1626 69.6667 35.1322L69.697 35.041H69.7576C69.8183 35.0714 69.8486 35.0714 69.9092 35.0714C69.9395 35.0714 69.9395 35.0714 69.9395 35.0714C70.0305 35.0714 70.0911 35.0714 70.1821 35.0714C70.273 35.0714 70.3336 35.0714 70.3943 35.0714C70.4549 35.0714 70.5155 35.0714 70.5762 35.041H70.6368L70.6671 35.1322C70.6974 35.2234 70.7277 35.3753 70.7884 35.4969C70.7884 35.5273 70.7884 35.5577 70.7884 35.5577C70.8187 35.588 70.8187 35.6184 70.8187 35.6488C70.8793 35.8008 71.0006 36.1655 71.1522 36.5605C71.4856 37.5026 71.9404 38.7182 72.1829 39.2653C72.3041 39.5996 72.3951 39.7819 72.5164 39.9035C72.6073 39.9946 72.7892 40.025 73.0924 40.0858H73.1227L73.153 40.1162C73.1833 40.177 73.1833 40.3289 73.1833 40.4505C73.1833 40.4809 73.153 40.4809 73.153 40.5113C73.153 40.5417 73.1227 40.5417 73.1227 40.572L73.0924 40.6024H73.062C72.9711 40.6024 72.7892 40.6024 72.577 40.572C72.3951 40.572 72.1223 40.572 71.8191 40.572C71.4553 40.572 71.1522 40.572 70.9096 40.572C70.7581 40.6024 70.6065 40.6024 70.5155 40.6024H70.4549L70.4246 40.5417C70.4246 40.4809 70.3943 40.3289 70.3943 40.2378C70.3943 40.2074 70.3943 40.2074 70.4246 40.177C70.4246 40.1466 70.4246 40.1466 70.4246 40.1162L70.4549 40.0858H70.4852C70.4852 40.0858 70.5155 40.0858 70.5459 40.0554C70.7277 40.0554 70.849 40.025 70.9096 39.9642C70.9703 39.9642 70.9703 39.9339 70.9703 39.9339V39.9035C70.9096 39.6907 70.7884 39.326 70.6671 39.0221C70.6671 38.9614 70.6368 38.9006 70.6065 38.8398C70.6065 38.8094 70.5762 38.7486 70.5762 38.7182C70.5459 38.7182 70.5459 38.7182 70.5459 38.6878H69.0907V38.7182C69.0907 38.7182 69.0907 38.7182 69.0907 38.7486C69.0301 38.8702 68.9694 39.0221 68.9088 39.1741C68.8179 39.4476 68.7269 39.7211 68.7269 39.8123C68.7269 39.8427 68.7269 39.9035 68.7572 39.9339C68.7876 39.9642 68.8179 39.9946 68.9088 39.9946C68.9694 39.9946 68.9998 40.025 69.0604 40.025C69.1513 40.0554 69.2423 40.0554 69.3635 40.0858H69.3939L69.4242 40.1162C69.4545 40.177 69.4545 40.3289 69.4242 40.4505C69.4242 40.4505 69.4242 40.4809 69.4242 40.5113L69.3939 40.5417L69.3635 40.6024H69.3332C69.212 40.6024 69.0604 40.6024 68.8785 40.572C68.6663 40.572 68.4541 40.572 68.1812 40.572C67.969 40.572 67.7871 40.572 67.6356 40.572C67.4537 40.6024 67.3021 40.6024 67.1808 40.6024H67.1202L67.0899 40.5417C67.0596 40.5113 67.0596 40.3289 67.0596 40.2378C67.0596 40.2074 67.0596 40.2074 67.0899 40.177ZM69.8486 36.5909C69.8486 36.5605 69.8486 36.5605 69.8183 36.5301L69.3332 37.9889C69.4545 37.9889 69.6061 37.9889 69.8183 37.9889C70.0305 37.9889 70.2427 37.9889 70.3336 37.9889C70.2427 37.7154 70.0911 37.2595 69.9395 36.834C69.9092 36.7429 69.8789 36.6517 69.8486 36.5909Z" fill="#F7B941"/>
<path d="M74.8502 35.588C74.7592 35.5577 74.6683 35.5577 74.5773 35.5577L74.547 35.5273H74.5167C74.4864 35.4665 74.4864 35.3753 74.4864 35.2841C74.4864 35.2234 74.5167 35.1322 74.5167 35.0714C74.547 35.0714 74.547 35.0714 74.547 35.0714L74.5773 35.041H74.6076C74.6683 35.041 74.7592 35.041 74.9108 35.041C75.123 35.041 75.4262 35.0714 75.8506 35.0714C76.3053 35.0714 76.5781 35.041 76.7903 35.041C76.9419 35.041 77.0329 35.041 77.1238 35.041H77.1541L77.1844 35.0714C77.2148 35.1322 77.2148 35.2234 77.2148 35.3145C77.2148 35.4057 77.2148 35.4969 77.1541 35.5273V35.5577H77.1238C77.0026 35.5577 76.8813 35.588 76.7903 35.588C76.7903 35.6184 76.76 35.6184 76.76 35.6184C76.7297 35.6184 76.7297 35.6184 76.7297 35.6184H76.6994C76.6388 35.6488 76.6085 35.6792 76.5781 35.7096C76.5478 35.7704 76.5478 35.8616 76.5478 35.9527C76.5478 36.3174 76.5478 36.7733 76.5478 37.3811C76.6085 37.4115 76.8207 37.4115 77.7301 37.4115C78.0939 37.4115 78.3668 37.4115 78.488 37.3811C78.6396 37.3811 78.7305 37.3811 78.7912 37.3811C78.7912 37.1379 78.7912 36.8644 78.7912 36.6213C78.7912 36.3478 78.7912 36.0743 78.7609 35.8616C78.7609 35.8008 78.7609 35.7704 78.7305 35.7096C78.7305 35.6792 78.7002 35.6488 78.6699 35.6488H78.6396C78.5486 35.588 78.3971 35.588 78.1545 35.5577H78.1242L78.0939 35.5273C78.0939 35.5273 78.0939 35.5273 78.0939 35.4969C78.0636 35.4665 78.0333 35.3753 78.0636 35.2841C78.0636 35.193 78.0636 35.1322 78.0939 35.0714H78.1242L78.1545 35.041H78.1849C78.3061 35.041 78.4577 35.041 78.6093 35.041C78.8215 35.0714 79.0943 35.0714 79.4581 35.0714C79.8825 35.0714 80.1554 35.041 80.3676 35.041C80.4888 35.041 80.6101 35.041 80.6707 35.041H80.701L80.7314 35.0714C80.7314 35.0714 80.7314 35.0714 80.7617 35.0714C80.792 35.1322 80.792 35.193 80.792 35.2841C80.792 35.3753 80.792 35.4665 80.7617 35.5273C80.7314 35.5273 80.7314 35.5273 80.7314 35.5273L80.701 35.5577C80.6101 35.5577 80.5192 35.5577 80.4585 35.588C80.3676 35.588 80.3069 35.6184 80.2766 35.6488H80.2463C80.1857 35.6488 80.1554 35.6792 80.1251 35.74C80.0947 35.7704 80.0947 35.8616 80.0947 35.9831C80.0644 36.3478 80.0644 36.6517 80.0644 37.1683C80.0947 37.4115 80.0947 37.7154 80.0947 37.8673C80.0947 38.2016 80.0947 38.5967 80.0947 38.8702C80.0947 39.1741 80.0947 39.4476 80.0947 39.6299C80.0947 39.7515 80.1251 39.8123 80.1554 39.8731C80.1554 39.9035 80.1857 39.9339 80.2463 39.9642C80.3373 40.025 80.4888 40.025 80.701 40.0554C80.7314 40.0554 80.7617 40.0858 80.8223 40.0858H80.8526L80.8829 40.1466C80.9133 40.177 80.8829 40.3593 80.8829 40.4505C80.8526 40.4809 80.8526 40.4809 80.8526 40.5113C80.8526 40.5417 80.8223 40.572 80.8223 40.572L80.792 40.6024H80.7617C80.6707 40.6024 80.4888 40.572 80.2463 40.572C80.0341 40.572 79.7613 40.572 79.4581 40.572C79.155 40.572 78.8821 40.572 78.6699 40.572C78.4577 40.572 78.2758 40.6024 78.1849 40.6024H78.1242V40.572C78.1242 40.572 78.0939 40.572 78.0939 40.5417C78.0636 40.5113 78.0636 40.4201 78.0636 40.3289C78.0636 40.2378 78.0636 40.1466 78.0939 40.1162C78.0939 40.1162 78.1242 40.1162 78.1242 40.0858H78.1545C78.2758 40.0554 78.3364 40.0554 78.4274 40.025C78.488 40.025 78.5486 39.9946 78.6093 39.9946C78.6699 39.9642 78.7002 39.9642 78.7305 39.9035C78.7609 39.8731 78.7609 39.7819 78.7912 39.6603C78.7912 39.326 78.7912 38.6575 78.7912 38.1104C78.6093 38.1104 78.0939 38.1104 77.6998 38.1104C77.2451 38.1104 76.9419 38.1104 76.7903 38.1104C76.6388 38.1104 76.5781 38.1104 76.5478 38.1408C76.5478 38.6575 76.5478 39.326 76.5478 39.5996C76.5478 39.7211 76.5478 39.8123 76.5781 39.8731C76.6085 39.9035 76.6691 39.9642 76.7297 39.9642C76.7903 39.9946 76.8813 39.9946 76.9722 40.025C77.0329 40.0554 77.1541 40.0554 77.2451 40.0858H77.2754L77.3057 40.1162C77.336 40.1466 77.336 40.2681 77.336 40.3593C77.3057 40.4505 77.2754 40.5417 77.2451 40.572V40.6024H77.1844C76.9116 40.6024 76.9722 40.572 76.76 40.572C76.5175 40.572 76.2447 40.572 75.8506 40.572C75.5171 40.572 75.2443 40.572 75.032 40.572C74.8198 40.572 74.6683 40.6024 74.5773 40.6024H74.547L74.5167 40.572C74.5167 40.572 74.5167 40.572 74.5167 40.5417C74.4864 40.5113 74.4561 40.4201 74.4561 40.3289C74.4561 40.2378 74.4864 40.1466 74.5167 40.1162C74.5167 40.1162 74.5167 40.1162 74.5167 40.0858H74.547H74.5773C74.7289 40.0554 74.8198 40.025 74.9108 40.025C74.9411 40.025 74.9714 39.9946 75.0017 39.9946C75.0927 39.9642 75.1533 39.9339 75.1836 39.8731C75.2139 39.8123 75.2139 39.6907 75.2443 39.5084C75.2443 39.4476 75.2443 39.2653 75.2443 39.0221C75.2443 38.9614 75.2443 38.931 75.2443 38.8702C75.2443 38.5663 75.2443 38.1712 75.2443 37.7761C75.2443 37.1683 75.2443 36.6213 75.2443 36.2566C75.2443 36.1958 75.2443 36.1351 75.2443 36.1047C75.2443 36.0439 75.2443 36.0135 75.2443 35.9831V35.9527C75.2443 35.8616 75.2139 35.7704 75.1836 35.7096C75.1836 35.6792 75.123 35.6488 75.0624 35.6488C75.0017 35.6184 74.9108 35.588 74.8502 35.588Z" fill="#F7B941"/>
<path d="M50.0507 40.5712C50.0204 40.5712 49.9901 40.5712 49.9598 40.5712C49.6263 40.5712 49.2929 40.5712 49.02 40.5712C48.8684 40.5712 48.6865 40.6016 48.5653 40.6016C48.5047 40.6016 48.5653 40.6016 48.535 40.6016H48.5047L48.4743 40.5712C48.4137 40.5104 48.3834 40.3585 48.4137 40.2369C48.4137 40.2065 48.4137 40.2065 48.4137 40.1761C48.4137 40.1457 48.4137 40.1153 48.444 40.1153L48.4743 40.0849H48.5047C48.535 40.0546 48.5956 40.0546 48.6562 40.0546C48.8684 40.0242 49.02 39.9938 49.111 39.9634C49.1716 39.933 49.2322 39.9026 49.2625 39.8418C49.2929 39.8114 49.2929 39.7203 49.2929 39.6595C49.3232 39.386 49.3232 38.7174 49.3232 37.9576C49.3232 37.1979 49.3232 36.3469 49.3232 35.7087C49.1716 35.7087 48.8988 35.7087 48.6562 35.7087C48.5956 35.7087 48.5653 35.7087 48.5047 35.7087C48.4743 35.7087 48.4137 35.7087 48.3834 35.7087H48.3531C48.2924 35.7087 48.2621 35.7391 48.2015 35.7695C48.1712 35.7999 48.1409 35.8303 48.1106 35.9215C48.0802 36.0126 48.0499 36.1342 48.0196 36.2558C47.9893 36.3773 47.959 36.5293 47.959 36.6812L47.9287 36.7116V36.742C47.8983 36.7724 47.6861 36.8028 47.5649 36.7724C47.5649 36.7724 47.5346 36.7724 47.5042 36.7724C47.5042 36.7724 47.4739 36.742 47.4436 36.742L47.4133 36.7116V36.6812C47.4133 36.5901 47.4133 36.4989 47.4133 36.4077C47.383 35.9519 47.3527 35.5264 47.2617 35.2225V35.1617L47.292 35.1313C47.292 35.1313 47.3223 35.0705 47.3527 35.0402H47.383C47.383 35.0098 47.4133 35.0098 47.4133 35.0098H47.4436C47.5649 35.0402 47.6558 35.0402 47.7771 35.0705C47.9287 35.0705 48.1106 35.0705 48.3531 35.0705H49.9598H51.5968C51.8394 35.0705 52.0213 35.0705 52.1425 35.0705C52.2941 35.0402 52.385 35.0402 52.5063 35.0098C52.5669 35.0098 52.6276 35.0705 52.6276 35.1009C52.6579 35.1009 52.6579 35.1009 52.6579 35.1313L52.6882 35.1617L52.6579 35.2225C52.5972 35.5264 52.5669 35.9519 52.5366 36.4077C52.5366 36.4989 52.5366 36.5901 52.5366 36.6508V36.6812L52.5063 36.7116L52.476 36.742C52.4457 36.7724 52.2638 36.8028 52.1425 36.7724C52.1122 36.7724 52.1122 36.7724 52.0819 36.7724C52.0516 36.7724 52.0213 36.742 52.0213 36.742L51.9909 36.7116V36.6812C51.9606 36.5293 51.9606 36.3773 51.9303 36.2558C51.9 36.1342 51.8697 36.0126 51.8394 35.9215C51.809 35.8303 51.7787 35.7999 51.7484 35.7695C51.6878 35.7391 51.6271 35.7087 51.5665 35.7087C51.4453 35.7087 51.2937 35.7087 51.1118 35.7087C51.0815 35.7087 51.0512 35.7087 51.0208 35.7087C50.8693 35.7087 50.7177 35.7087 50.6267 35.7087C50.6267 35.9519 50.6267 36.195 50.6267 36.4685C50.6267 37.7145 50.6267 39.234 50.6571 39.6595C50.6571 39.7203 50.6571 39.8114 50.6874 39.8418C50.7177 39.9026 50.748 39.933 50.8389 39.9634C50.9299 39.9938 51.0815 40.0242 51.2937 40.0546C51.3543 40.0546 51.4149 40.0546 51.4453 40.0849H51.4756L51.5059 40.1153C51.5362 40.1457 51.5362 40.3281 51.5362 40.4496C51.5059 40.4496 51.5059 40.48 51.5059 40.5104C51.5059 40.5408 51.4756 40.5408 51.4756 40.5712L51.4453 40.6016H51.4149C51.2937 40.6016 51.1118 40.5712 50.8996 40.5712C50.6571 40.5712 50.3539 40.5712 50.0507 40.5712ZM52.5972 35.1617L52.6579 35.1313L52.5972 35.1617ZM52.6579 35.1313L52.5972 35.1921L52.6579 35.1313ZM49.3232 35.7087V35.6784V35.7087ZM49.3232 35.6784C49.3232 35.6784 49.3232 35.6784 49.3232 35.7087V35.6784Z" fill="#F7B941"/>
<path d="M63.4814 38.4743C63.4814 38.7478 63.4814 39.3252 63.5117 39.6291C63.5117 39.7203 63.5117 39.781 63.542 39.8418C63.5723 39.9026 63.633 39.933 63.7239 39.9634C63.8755 39.9938 64.0271 40.0242 64.2089 40.0546C64.2393 40.0546 64.2696 40.0546 64.2999 40.0546H64.3302L64.3605 40.0849C64.3605 40.1153 64.3605 40.1153 64.3908 40.1457C64.3908 40.1761 64.3908 40.2065 64.3908 40.2065C64.3908 40.3281 64.3605 40.48 64.3302 40.5408L64.2999 40.5712H64.2696C64.0877 40.5712 63.8452 40.5712 63.6026 40.5408C63.3601 40.5408 63.0873 40.5408 62.8751 40.5408C62.6325 40.5408 62.39 40.5408 62.1778 40.5408C61.9353 40.5712 61.7231 40.5712 61.5412 40.5712H61.4806V40.5104C61.4502 40.5104 61.4502 40.48 61.4502 40.4496C61.4502 40.4496 61.4502 40.4192 61.4199 40.3888C61.4199 40.2977 61.4199 40.1457 61.4502 40.0849L61.4806 40.0546H61.5109C61.6018 40.0546 61.6928 40.0242 61.7837 40.0242C61.8443 40.0242 61.905 39.9938 61.9959 39.9634C62.0565 39.9634 62.1172 39.9026 62.1475 39.8722C62.1778 39.8114 62.1778 39.6899 62.1778 39.5683C62.1778 39.5379 62.1778 39.4771 62.1778 39.4164C62.1778 39.386 62.1778 39.3252 62.1778 39.234C62.2081 38.8997 62.2081 38.3831 62.2081 37.6537C62.2081 36.7116 62.2081 36.2254 62.1778 35.9823C62.1778 35.8303 62.1778 35.7391 62.1475 35.7087C62.1172 35.648 62.0565 35.6176 61.9656 35.5872C61.8747 35.5872 61.814 35.5568 61.7534 35.5568C61.6928 35.5568 61.6018 35.5264 61.5109 35.5264L61.4502 35.496V35.4656C61.4502 35.4352 61.4199 35.4352 61.4199 35.4048C61.4199 35.3744 61.4199 35.3744 61.4199 35.3441C61.4199 35.2529 61.4502 35.1009 61.4806 35.0402L61.5109 35.0098H61.5412C61.6624 35.0098 61.814 35.0098 62.0262 35.0402C62.2384 35.0402 62.481 35.0402 62.6932 35.0402C63.0266 35.0402 63.2692 35.0402 63.542 35.0402C63.8148 35.0402 64.0877 35.0098 64.3908 35.0098C64.5121 35.0098 64.7243 35.0402 64.9365 35.0705C64.9971 35.1009 65.0275 35.1009 65.0578 35.1009C65.2397 35.1617 65.4216 35.2225 65.6035 35.3441C65.6338 35.3744 65.6944 35.4352 65.7247 35.4656C65.7854 35.496 65.8157 35.5568 65.846 35.5872C66.0582 35.8607 66.2098 36.195 66.2098 36.6508C66.2098 36.894 66.1795 37.0763 66.1188 37.2586C66.0885 37.3498 66.0582 37.4106 66.0279 37.4714C65.8763 37.8057 65.6035 38.0488 65.3306 38.2007C65.27 38.2311 65.2397 38.2615 65.179 38.2919C65.1487 38.2919 65.0881 38.3223 65.0275 38.3527C64.7849 38.4439 64.5121 38.4743 64.2393 38.4743H63.4814ZM63.4814 37.8968H63.9967H64.0877C64.1483 37.8968 64.2089 37.8968 64.2999 37.8665C64.3605 37.8665 64.4212 37.8361 64.4515 37.8057C64.603 37.7145 64.694 37.5929 64.7849 37.441C64.8456 37.289 64.8759 37.0763 64.8759 36.8332C64.8759 36.4685 64.7849 36.1646 64.603 35.9519C64.4212 35.7087 64.1483 35.5872 63.7542 35.5872C63.7239 35.5872 63.6936 35.5872 63.633 35.6176H63.6026C63.5723 35.6176 63.542 35.6176 63.542 35.6176C63.5117 35.648 63.5117 35.648 63.5117 35.6784C63.4814 35.7999 63.4814 35.9823 63.4814 36.2558C63.4814 36.5597 63.4814 36.9547 63.4814 37.6233V37.7145C63.4814 37.8057 63.4814 37.8665 63.4814 37.8968Z" fill="#F7B941"/>
<path d="M29.8007 38.5055C29.8007 38.779 29.8007 39.3564 29.831 39.6299C29.831 39.7211 29.831 39.8123 29.8917 39.8731C29.922 39.9339 29.9523 39.9642 30.0432 39.9946C30.1948 40.025 30.3464 40.025 30.5283 40.0554C30.5586 40.0554 30.5889 40.0554 30.6192 40.0554L30.6495 40.0858L30.6799 40.1162C30.6799 40.1162 30.7102 40.1466 30.7102 40.177C30.7102 40.177 30.7102 40.2074 30.7102 40.2378C30.7405 40.3289 30.7102 40.4809 30.6495 40.5417L30.6192 40.572H30.5889C30.407 40.572 30.1645 40.572 29.922 40.572C29.6794 40.572 29.4369 40.5417 29.1944 40.5417C28.9822 40.5417 28.7397 40.572 28.4971 40.572C28.2546 40.572 28.0424 40.572 27.8605 40.572H27.8302L27.7999 40.5417C27.7999 40.5113 27.7696 40.5113 27.7696 40.4809C27.7696 40.4505 27.7696 40.4505 27.7696 40.4201C27.7393 40.2985 27.7696 40.1466 27.7999 40.1162V40.0858L27.8605 40.0554C27.9515 40.0554 28.0424 40.0554 28.103 40.025C28.1637 40.025 28.2546 40.025 28.3153 39.9946C28.4062 39.9642 28.4365 39.9339 28.4668 39.8731C28.4971 39.8123 28.4971 39.7211 28.4971 39.5996C28.4971 39.5388 28.5275 39.5084 28.5275 39.4476C28.5275 39.3868 28.5275 39.326 28.5275 39.2653C28.5275 38.931 28.5275 38.4143 28.5275 37.685C28.5275 36.7429 28.5275 36.2566 28.4971 35.9831C28.4971 35.8616 28.4971 35.7704 28.4668 35.7096C28.4365 35.6488 28.3759 35.6488 28.2849 35.6184C28.2243 35.588 28.1637 35.588 28.0727 35.588C28.0121 35.5577 27.9212 35.5577 27.8302 35.5273H27.7999L27.7696 35.4969C27.7696 35.4665 27.7696 35.4361 27.7696 35.4361C27.7696 35.4057 27.7393 35.3753 27.7393 35.3753C27.7393 35.2537 27.7696 35.1018 27.7999 35.0714L27.8302 35.041H27.8605C27.9818 35.041 28.1637 35.041 28.3759 35.041C28.5578 35.041 28.8003 35.0714 29.0428 35.0714C29.346 35.0714 29.5885 35.041 29.8613 35.041C30.1342 35.041 30.407 35.041 30.7102 35.041C30.8618 35.041 31.074 35.041 31.2862 35.1018C31.3165 35.1018 31.3468 35.1018 31.3771 35.1322C31.559 35.1626 31.7712 35.2537 31.9228 35.3753C31.9834 35.4057 32.0137 35.4361 32.0441 35.4969C32.1047 35.5273 32.135 35.5577 32.1956 35.6184C32.4078 35.8616 32.5594 36.1958 32.5594 36.6821C32.5594 36.8948 32.4988 37.1076 32.4382 37.2899C32.4382 37.3507 32.4078 37.4115 32.3775 37.5026C32.1956 37.8369 31.9531 38.08 31.6803 38.232C31.65 38.232 31.6803 38.232 31.65 38.232C31.6196 38.2624 31.559 38.2928 31.4984 38.2928C31.4681 38.3232 31.4074 38.3536 31.3771 38.3536C31.1043 38.4447 30.8314 38.5055 30.5889 38.5055H29.8007ZM29.8007 37.9281H30.3464H30.407C30.498 37.9281 30.5586 37.9281 30.6192 37.8977C30.6799 37.8673 30.7405 37.8673 30.8011 37.8065C30.9224 37.7458 31.0436 37.6242 31.1043 37.4722C31.1649 37.3203 31.1952 37.1076 31.1952 36.8644C31.1952 36.4694 31.1043 36.1655 30.9224 35.9527C30.7405 35.74 30.4677 35.6184 30.1039 35.6184C30.0736 35.6184 30.0129 35.6184 29.9523 35.6184C29.9523 35.6184 29.9523 35.6184 29.922 35.6184C29.8917 35.6184 29.8917 35.6488 29.8613 35.6488C29.831 35.6488 29.831 35.6792 29.831 35.7096C29.831 35.8312 29.831 36.0135 29.831 36.287C29.8007 36.5605 29.8007 36.986 29.8007 37.6546V37.7458C29.8007 37.8065 29.8007 37.8673 29.8007 37.9281Z" fill="#F7B941"/>
<path d="M59.8128 37.8647C59.8128 38.3206 59.7522 38.7157 59.6006 39.0803C59.4491 39.4146 59.2369 39.7489 58.964 39.9921C58.6912 40.2352 58.388 40.4175 58.0242 40.5695C57.6604 40.691 57.2663 40.7518 56.8722 40.7518C56.3266 40.7518 55.8112 40.6302 55.3565 40.4175C54.9321 40.1744 54.5683 39.8401 54.3257 39.4146C54.0529 38.9892 53.9316 38.4421 53.9316 37.8647C53.9316 37.4089 54.0226 37.0138 54.1742 36.6491C54.2954 36.2844 54.5076 35.9805 54.7805 35.7374C55.0533 35.4639 55.3565 35.2816 55.7203 35.16C56.084 35.008 56.4478 34.9473 56.8722 34.9473C57.4179 34.9473 57.903 35.0688 58.3577 35.3119C58.8124 35.5247 59.1762 35.859 59.4187 36.3148C59.6916 36.7707 59.8128 37.2873 59.8128 37.8647ZM58.3577 37.8647C58.3577 37.1961 58.2668 36.6491 58.0545 36.1933C57.8423 35.7374 57.4482 35.4943 56.8722 35.4943C56.5085 35.4943 56.2356 35.6159 55.9931 35.859C55.7809 36.1021 55.6293 36.406 55.5384 36.7403C55.4474 37.105 55.3868 37.4697 55.3868 37.8647C55.3868 38.5029 55.508 39.05 55.7203 39.5058C55.9628 39.9617 56.3569 40.2048 56.9026 40.2048C57.4482 40.2048 57.8423 39.9617 58.0545 39.5058C58.2668 39.05 58.3577 38.5029 58.3577 37.8647Z" fill="#F7B941"/>
<path d="M4.82061 42.8199L8.24626 39.1123L6.79111 34.5841L6.70017 34.2498L6.94269 34.0675L11.1565 31.0588L10.8837 26.3179L10.8534 26.014L11.1262 25.8925L16.0677 23.7044L16.9165 18.9331L16.9468 18.6596L17.1893 18.5988L22.5855 17.3224L24.556 12.7639L24.6469 12.5208H24.8895L30.4978 12.2169L33.59 8.08378L33.7113 7.90144L33.9235 7.93183L39.5318 8.6612L43.5335 5.16632L43.6851 5.04475L43.867 5.10553L49.2025 6.83778L53.9923 4.16344L54.1742 4.07227L54.3258 4.16344L59.1763 6.80739L64.4512 5.01436L64.6331 4.95358L64.815 5.07514L68.8166 8.53964L74.425 7.77988L74.6372 7.74949L74.7584 7.93183L77.9112 12.0041L83.5499 12.2776H83.7621L83.8834 12.4904L85.8842 17.0489L91.2804 18.2949L91.5229 18.3557L91.5835 18.6292L92.5233 23.3701L97.3435 25.5278L97.6163 25.619L97.586 25.9229L97.4041 30.7245L101.679 33.7028L101.951 33.8851L101.86 34.2194L100.496 38.7476L103.922 42.4552L104.134 42.6983L103.952 43.0022L101.557 47.1353L103.983 51.3595L104.164 51.633L103.922 51.8762L100.557 55.5534L101.951 60.1423L102.073 60.4766L101.8 60.659L97.5557 63.6676L97.8891 68.4085L97.9195 68.7124L97.6466 68.8339L92.7658 71.022L91.8564 75.7933L91.7957 76.0364L91.5532 76.0972L86.248 77.4344L84.2472 81.9625L84.1562 82.2057H83.9137L78.275 82.4792L75.2435 86.5819L75.0919 86.7642H74.8797L69.241 86.0348L65.2697 89.5297L65.0878 89.6513L64.9059 89.5905L59.5401 87.8583L54.8108 90.5326L54.6289 90.6238L54.4471 90.5326L49.6269 87.9494L44.3217 89.7121L44.1095 89.7728L43.9579 89.6513L39.9259 86.1564L34.3176 86.9162L34.1054 86.9465L33.9841 86.7946L30.8616 82.6919L25.2532 82.4488H25.041L24.9198 82.2361L22.8583 77.7079L17.4925 76.4315L17.25 76.3707L17.1893 76.0972L16.2495 71.3867L11.3384 69.1986L11.0656 69.0771L11.0959 68.7732L11.3081 64.0323L7.06395 60.9933L6.82143 60.8109L6.91238 60.507L8.27657 55.9789L4.91155 52.3016L4.69934 52.0585L4.85092 51.785L7.24585 47.5304L4.75998 43.3669L4.6084 43.063L4.82061 42.8199ZM8.94351 39.5377L5.60881 43.1846L8.00373 47.3176L8.15531 47.5304L8.03405 47.7735L5.66944 51.9369L9.00414 55.5838L9.15572 55.7661L9.09509 56.0092L7.73089 60.4766L11.9144 63.4549L12.0963 63.5764V63.8195L11.8841 68.53L16.7346 70.6574L16.9468 70.7485L16.9771 70.9613L17.8866 75.6414L23.1918 76.9178L23.3737 76.9785L23.4646 77.1609L25.5261 81.5979L31.0435 81.841H31.2254L31.3467 81.9929L34.4388 86.0348L39.9866 85.2751H40.1381L40.2594 85.3663L44.2611 88.8307L49.5663 87.0985L49.6875 87.0377L49.8391 87.0985L54.6289 89.6513L59.3278 87.0073L59.4491 86.9465L59.6007 86.9769L64.9362 88.7092L68.9075 85.2447L69.0288 85.1231L69.1804 85.1535L74.7584 85.8829L77.7597 81.8106L77.8809 81.6586L78.0628 81.6282L83.6409 81.3547L85.6114 76.857L85.7023 76.6746L85.8842 76.6442L91.1591 75.3375L92.0383 70.627L92.0989 70.4142L92.2808 70.3231L97.1009 68.135L96.7675 63.4853V63.2421L96.9494 63.0902L101.133 60.1119L99.7384 55.5838L99.6474 55.3407L99.8293 55.1279L103.164 51.5115L100.769 47.3784L100.648 47.1353L100.769 46.9226L103.134 42.8199L99.7687 39.173L99.5868 38.9907L99.6778 38.7172L101.012 34.2498L96.7978 31.3323L96.6159 31.2108L96.6462 30.9373L96.8281 26.1964L92.0383 24.0995L91.826 24.0083L91.7957 23.7652L90.8863 19.0851L85.5507 17.8391L85.3689 17.7783L85.2779 17.5959L83.2771 13.0982L77.7293 12.8551H77.5475L77.4262 12.7031L74.334 8.6612L68.756 9.42095L68.6044 9.45134L68.4528 9.32978L64.4815 5.89568L59.2369 7.68871L59.0853 7.74949L58.9641 7.65832L54.1742 5.01436L49.4147 7.68871L49.2631 7.74949L49.1115 7.7191L43.8366 5.98685L39.8653 9.45134L39.744 9.57291L39.5925 9.54252L34.0447 8.81315L30.9829 12.8854L30.8919 13.0374H30.71L25.132 13.3413L23.1918 17.8695L23.1008 18.0822L22.919 18.1126L17.6137 19.3586L16.7952 24.0995L16.7346 24.3122L16.5527 24.4034L11.6719 26.5611L11.9447 31.2716L11.9751 31.5147L11.7932 31.6666L7.63995 34.6145L9.06477 39.0819L9.12541 39.3554L8.94351 39.5377Z" fill="#EF8F27"/>
</svg>
