<svg width="16" height="16" viewBox="0 0 16 16" xmlns="http://www.w3.org/2000/svg">
<path fill-rule="evenodd" clip-rule="evenodd" d="M15.2113 13.446L9.90799 8.1427L15.2114 2.83933C15.6995 2.35117 15.6995 1.55975 15.2114 1.07159C14.7232 0.583441 13.9318 0.583445 13.4436 1.0716L8.14031 6.37493L2.83704 1.07166C2.34889 0.583506 1.55737 0.583411 1.06921 1.07157C0.581054 1.55973 0.581147 2.35125 1.0693 2.8394L6.37257 8.14267L1.06925 13.446C0.581087 13.9342 0.581085 14.7256 1.06924 15.2137C1.55739 15.7019 2.34881 15.7019 2.83697 15.2137L8.14029 9.9104L13.4436 15.2137C13.9318 15.7019 14.7232 15.7018 15.2113 15.2137C15.6995 14.7256 15.6995 13.9342 15.2113 13.446Z" />
</svg>
