<svg width="45" height="45" viewBox="0 0 45 45" xmlns="http://www.w3.org/2000/svg">
<path d="M44.6108 42.7051L33.6727 31.7694C36.6068 28.3969 38.3832 23.9967 38.3832 19.1874C38.3832 8.60089 29.7705 0 19.1916 0C8.60279 0 0 8.61087 0 19.1874C0 29.7639 8.61277 38.3747 19.1916 38.3747C24.002 38.3747 28.4032 36.5987 31.7764 33.6652L42.7146 44.6009C42.9741 44.8603 43.3234 45 43.6627 45C44.002 45 44.3513 44.8703 44.6108 44.6009C45.1297 44.082 45.1297 43.2239 44.6108 42.7051ZM2.68463 19.1874C2.68463 10.0876 10.0898 2.69401 19.1816 2.69401C28.2834 2.69401 35.6786 10.0976 35.6786 19.1874C35.6786 28.2772 28.2834 35.6907 19.1816 35.6907C10.0898 35.6907 2.68463 28.2871 2.68463 19.1874Z"/>
</svg>
