<svg width="32" height="32" viewBox="0 0 32 32" xmlns="http://www.w3.org/2000/svg">
<path fill-rule="evenodd" clip-rule="evenodd" d="M16 29C23.18 29 29 23.1797 29 16C29 8.82029 23.18 3 16 3C8.81997 3 3 8.82029 3 16C3 23.1797 8.81997 29 16 29ZM23.9063 20.5995L23.9103 20.6091C23.9293 20.6561 23.9511 20.7344 23.9694 20.8504C23.9912 20.9633 23.9912 21.0636 23.9667 21.1545C23.945 21.2454 23.8702 21.3269 23.7459 21.4021C23.6827 21.4413 23.6039 21.4703 23.5115 21.4891C23.4266 21.5063 23.3302 21.5149 23.2235 21.5149L20.9504 21.5494C20.8077 21.5808 20.6427 21.5651 20.4531 21.5055C20.2636 21.446 20.108 21.3802 19.9898 21.3081L19.8125 21.2015C19.6352 21.0761 19.4273 20.8849 19.1909 20.6279C18.9518 20.3708 18.7493 20.142 18.5815 19.9351C18.4137 19.7282 18.233 19.5558 18.0408 19.4148C17.8478 19.2769 17.6827 19.2298 17.5401 19.2769L17.5156 19.2858C17.5014 19.2914 17.4857 19.2986 17.4688 19.3082C17.4375 19.3207 17.3879 19.3646 17.3159 19.4367C17.248 19.5088 17.1827 19.5966 17.1264 19.7C17.0673 19.8035 17.0177 19.9571 16.9742 20.1639C16.9273 20.3677 16.909 20.5997 16.9151 20.8567C16.9151 20.9476 16.9056 21.0291 16.8838 21.1043C16.8655 21.1795 16.8438 21.236 16.8186 21.2704L16.7846 21.3143C16.6787 21.4272 16.5231 21.493 16.3152 21.5118H15.2955C14.8757 21.5369 14.4436 21.4867 13.9986 21.3645C13.5571 21.2422 13.1685 21.0855 12.8329 20.8912C12.5 20.6968 12.1957 20.4993 11.9185 20.2987C11.6454 20.0981 11.4368 19.9289 11.2935 19.7847L11.0727 19.5684C11.0136 19.5088 10.93 19.4179 10.8274 19.2988C10.7249 19.1797 10.5136 18.907 10.1929 18.4838C9.87296 18.0607 9.5591 17.6093 9.25136 17.1328C8.94293 16.6564 8.57948 16.0294 8.16304 15.2458C7.74592 14.4621 7.35734 13.6534 7.00951 12.8008C6.99321 12.7566 6.9803 12.7152 6.97147 12.6768C6.96128 12.6336 6.95652 12.5943 6.95652 12.5595C6.95652 12.4936 6.96603 12.4466 6.98438 12.4153L7.01902 12.362C7.1087 12.2492 7.27649 12.1927 7.52582 12.1927L9.95652 12.1739C10.0285 12.1865 10.0965 12.2053 10.1624 12.2335C10.2276 12.2586 10.2772 12.2836 10.305 12.3087L10.3485 12.3369C10.445 12.4027 10.5163 12.4968 10.5632 12.6222C10.6814 12.9231 10.8152 13.2303 10.9701 13.55C11.123 13.8697 11.2439 14.1142 11.3342 14.2803L11.4769 14.5405C11.5605 14.7145 11.6427 14.8773 11.7235 15.0289C11.8091 15.1888 11.8933 15.3364 11.9749 15.4715C12.0537 15.6001 12.1284 15.7146 12.199 15.8152C12.2724 15.9204 12.3417 16.0105 12.4069 16.0859C12.5313 16.2332 12.6556 16.346 12.7738 16.4307C12.8363 16.4756 12.894 16.5082 12.947 16.5288C12.9932 16.5471 13.036 16.556 13.0754 16.556C13.159 16.556 13.2371 16.5404 13.3145 16.5122C13.3274 16.5059 13.3397 16.4934 13.358 16.4683C13.3736 16.4432 13.411 16.3774 13.464 16.2708C13.5197 16.1642 13.5571 16.0232 13.5849 15.8508C13.6101 15.6784 13.6379 15.437 13.6692 15.1267C13.6814 14.9934 13.6882 14.9295 13.6895 14.8655C13.6916 14.7804 13.6848 14.6951 13.6692 14.4465C13.6569 14.2083 13.6284 13.992 13.5883 13.7945C13.5476 13.6001 13.5041 13.4622 13.464 13.3839L13.411 13.2773C13.2615 13.0735 13.0102 12.945 12.6556 12.8917C12.5781 12.8792 12.5931 12.8071 12.699 12.6754C12.7982 12.5595 12.9103 12.4717 13.0346 12.4059C13.3492 12.2492 14.0543 12.1771 15.1556 12.1896C15.6406 12.1959 16.038 12.2335 16.3526 12.3056C16.4144 12.322 16.4708 12.3409 16.5224 12.3625C16.5693 12.3821 16.6121 12.4039 16.6508 12.4278C16.6868 12.4517 16.7194 12.4794 16.748 12.5109C16.7833 12.5496 16.8118 12.594 16.8342 12.6441C16.8743 12.735 16.9056 12.8322 16.9273 12.9293C16.949 13.0297 16.9586 13.1644 16.9586 13.3369C16.9586 13.5092 16.9552 13.6754 16.949 13.829C16.9463 13.8954 16.9436 13.8903 16.9409 13.8847C16.9368 13.8773 16.9327 13.869 16.9273 14.0202C16.9185 14.2866 16.9151 14.5342 16.9151 14.7599C16.9151 14.8258 16.9117 14.9512 16.9056 15.1361L16.9035 15.2316C16.9015 15.3713 16.9001 15.4832 16.9029 15.5655C16.9056 15.669 16.9151 15.7881 16.9334 15.9291C16.9524 16.0671 16.9864 16.183 17.036 16.2771C17.0863 16.3711 17.1515 16.4432 17.2351 16.4965C17.2853 16.5059 17.3349 16.5184 17.3879 16.531C17.4402 16.5435 17.5183 16.5122 17.6175 16.4338C17.7201 16.3586 17.8322 16.2551 17.9565 16.1266C18.0183 16.0627 18.087 15.9818 18.163 15.883C18.2398 15.7831 18.324 15.665 18.4164 15.5279C18.5999 15.2552 18.8023 14.9355 19.0197 14.5656C19.3777 13.945 19.6916 13.2742 19.9715 12.5532C19.9932 12.4936 20.0245 12.4403 20.0584 12.3965C20.0924 12.3526 20.1236 12.3212 20.1549 12.3024L20.1889 12.2742L20.2323 12.2523L20.3478 12.2241C20.4056 12.2124 20.4531 12.2076 20.4905 12.2126C20.5027 12.2142 20.5143 12.217 20.5245 12.2209L23.0802 12.2021C23.3105 12.1708 23.5 12.1802 23.6495 12.2241C23.7955 12.268 23.8886 12.3181 23.9232 12.3714L23.9755 12.4592C24.1128 12.8384 23.6678 13.7161 22.6454 15.0891C22.502 15.2803 22.3091 15.5342 22.0666 15.8508C21.6067 16.4463 21.339 16.8382 21.2677 17.0231C21.1685 17.2676 21.2086 17.509 21.392 17.7472C21.4918 17.8726 21.731 18.1171 22.1101 18.4807H22.1196L22.1386 18.4995L22.1569 18.5183C22.9905 19.2988 23.5564 19.9602 23.8512 20.4962C23.8689 20.5253 23.8859 20.5597 23.9063 20.5995Z"/>
<path fill-rule="evenodd" clip-rule="evenodd" d="M32 16C32 24.8366 24.8363 32 16 32C7.16372 32 0 24.8366 0 16C0 7.16345 7.16372 0 16 0C24.8363 0 32 7.16345 32 16ZM31 16C31 24.2843 24.284 31 16 31C7.71603 31 1 24.2843 1 16C1 7.71574 7.71603 1 16 1C24.284 1 31 7.71574 31 16Z"/>
</svg>
